G04 #@! TF.GenerationSoftware,KiCad,Pcbnew,(5.0.0-3-g5ebb6b6)*
G04 #@! TF.CreationDate,2018-12-30T11:26:31+01:00*
G04 #@! TF.ProjectId,Leiterfolie,4C6569746572666F6C69652E6B696361,rev?*
G04 #@! TF.SameCoordinates,Original*
G04 #@! TF.FileFunction,Copper,L1,Top,Signal*
G04 #@! TF.FilePolarity,Positive*
%FSLAX46Y46*%
G04 Gerber Fmt 4.6, Leading zero omitted, Abs format (unit mm)*
G04 Created by KiCad (PCBNEW (5.0.0-3-g5ebb6b6)) date Sunday, 30. December 2018 um 11:26:31*
%MOMM*%
%LPD*%
G01*
G04 APERTURE LIST*
G04 #@! TA.AperFunction,NonConductor*
%ADD10C,0.300000*%
G04 #@! TD*
G04 #@! TA.AperFunction,ComponentPad*
%ADD11R,1.700000X1.700000*%
G04 #@! TD*
G04 #@! TA.AperFunction,ComponentPad*
%ADD12O,1.700000X1.700000*%
G04 #@! TD*
G04 #@! TA.AperFunction,ComponentPad*
%ADD13C,1.400000*%
G04 #@! TD*
G04 #@! TA.AperFunction,ComponentPad*
%ADD14O,1.400000X1.400000*%
G04 #@! TD*
G04 #@! TA.AperFunction,SMDPad,CuDef*
%ADD15R,12.000000X2.000000*%
G04 #@! TD*
G04 #@! TA.AperFunction,ComponentPad*
%ADD16R,1.600000X1.600000*%
G04 #@! TD*
G04 #@! TA.AperFunction,ComponentPad*
%ADD17C,1.600000*%
G04 #@! TD*
G04 #@! TA.AperFunction,ComponentPad*
%ADD18R,1.800000X1.800000*%
G04 #@! TD*
G04 #@! TA.AperFunction,ComponentPad*
%ADD19O,1.800000X1.800000*%
G04 #@! TD*
G04 #@! TA.AperFunction,ComponentPad*
%ADD20C,2.400000*%
G04 #@! TD*
G04 #@! TA.AperFunction,ComponentPad*
%ADD21O,2.400000X2.400000*%
G04 #@! TD*
G04 #@! TA.AperFunction,ViaPad*
%ADD22C,1.200000*%
G04 #@! TD*
G04 #@! TA.AperFunction,ViaPad*
%ADD23C,0.600000*%
G04 #@! TD*
G04 #@! TA.AperFunction,Conductor*
%ADD24C,1.500000*%
G04 #@! TD*
G04 #@! TA.AperFunction,Conductor*
%ADD25C,0.350000*%
G04 #@! TD*
G04 #@! TA.AperFunction,Conductor*
%ADD26C,1.000000*%
G04 #@! TD*
G04 #@! TA.AperFunction,Conductor*
%ADD27C,0.254000*%
G04 #@! TD*
G04 APERTURE END LIST*
D10*
X95775000Y-95563571D02*
X96346428Y-95563571D01*
X95989285Y-96563571D02*
X95989285Y-95277857D01*
X96060714Y-95135000D01*
X96203571Y-95063571D01*
X96346428Y-95063571D01*
X96846428Y-96563571D02*
X96846428Y-95563571D01*
X96846428Y-95063571D02*
X96775000Y-95135000D01*
X96846428Y-95206428D01*
X96917857Y-95135000D01*
X96846428Y-95063571D01*
X96846428Y-95206428D01*
X97417857Y-95563571D02*
X98203571Y-95563571D01*
X97417857Y-96563571D01*
X98203571Y-96563571D01*
X98775000Y-95992142D02*
X99917857Y-95992142D01*
X100846428Y-96563571D02*
X100703571Y-96492142D01*
X100632142Y-96420714D01*
X100560714Y-96277857D01*
X100560714Y-95849285D01*
X100632142Y-95706428D01*
X100703571Y-95635000D01*
X100846428Y-95563571D01*
X101060714Y-95563571D01*
X101203571Y-95635000D01*
X101275000Y-95706428D01*
X101346428Y-95849285D01*
X101346428Y-96277857D01*
X101275000Y-96420714D01*
X101203571Y-96492142D01*
X101060714Y-96563571D01*
X100846428Y-96563571D01*
X101989285Y-95992142D02*
X103132142Y-95992142D01*
X103846428Y-96563571D02*
X103846428Y-95563571D01*
X103846428Y-95706428D02*
X103917857Y-95635000D01*
X104060714Y-95563571D01*
X104275000Y-95563571D01*
X104417857Y-95635000D01*
X104489285Y-95777857D01*
X104489285Y-96563571D01*
X104489285Y-95777857D02*
X104560714Y-95635000D01*
X104703571Y-95563571D01*
X104917857Y-95563571D01*
X105060714Y-95635000D01*
X105132142Y-95777857D01*
X105132142Y-96563571D01*
X106489285Y-96563571D02*
X106489285Y-95777857D01*
X106417857Y-95635000D01*
X106275000Y-95563571D01*
X105989285Y-95563571D01*
X105846428Y-95635000D01*
X106489285Y-96492142D02*
X106346428Y-96563571D01*
X105989285Y-96563571D01*
X105846428Y-96492142D01*
X105775000Y-96349285D01*
X105775000Y-96206428D01*
X105846428Y-96063571D01*
X105989285Y-95992142D01*
X106346428Y-95992142D01*
X106489285Y-95920714D01*
X106989285Y-95563571D02*
X107560714Y-95563571D01*
X107203571Y-95063571D02*
X107203571Y-96349285D01*
X107275000Y-96492142D01*
X107417857Y-96563571D01*
X107560714Y-96563571D01*
X108060714Y-96563571D02*
X108060714Y-95563571D01*
X108060714Y-95063571D02*
X107989285Y-95135000D01*
X108060714Y-95206428D01*
X108132142Y-95135000D01*
X108060714Y-95063571D01*
X108060714Y-95206428D01*
X109417857Y-96492142D02*
X109275000Y-96563571D01*
X108989285Y-96563571D01*
X108846428Y-96492142D01*
X108775000Y-96420714D01*
X108703571Y-96277857D01*
X108703571Y-95849285D01*
X108775000Y-95706428D01*
X108846428Y-95635000D01*
X108989285Y-95563571D01*
X109275000Y-95563571D01*
X109417857Y-95635000D01*
X110060714Y-96420714D02*
X110132142Y-96492142D01*
X110060714Y-96563571D01*
X109989285Y-96492142D01*
X110060714Y-96420714D01*
X110060714Y-96563571D01*
X110775000Y-95563571D02*
X110775000Y-96563571D01*
X110775000Y-95706428D02*
X110846428Y-95635000D01*
X110989285Y-95563571D01*
X111203571Y-95563571D01*
X111346428Y-95635000D01*
X111417857Y-95777857D01*
X111417857Y-96563571D01*
X112703571Y-96492142D02*
X112560714Y-96563571D01*
X112275000Y-96563571D01*
X112132142Y-96492142D01*
X112060714Y-96349285D01*
X112060714Y-95777857D01*
X112132142Y-95635000D01*
X112275000Y-95563571D01*
X112560714Y-95563571D01*
X112703571Y-95635000D01*
X112775000Y-95777857D01*
X112775000Y-95920714D01*
X112060714Y-96063571D01*
X113203571Y-95563571D02*
X113775000Y-95563571D01*
X113417857Y-95063571D02*
X113417857Y-96349285D01*
X113489285Y-96492142D01*
X113632142Y-96563571D01*
X113775000Y-96563571D01*
D11*
G04 #@! TO.P,J1,1*
G04 #@! TO.N,GND*
X78740000Y-85090000D03*
D12*
G04 #@! TO.P,J1,2*
G04 #@! TO.N,+12V*
X78740000Y-87630000D03*
G04 #@! TO.P,J1,3*
G04 #@! TO.N,RPM*
X78740000Y-90170000D03*
G04 #@! TD*
D11*
G04 #@! TO.P,J2,1*
G04 #@! TO.N,/0.3BAR*
X76200000Y-85090000D03*
D12*
G04 #@! TO.P,J2,2*
G04 #@! TO.N,/1.8BAR*
X76200000Y-87630000D03*
G04 #@! TO.P,J2,3*
G04 #@! TO.N,+12V*
X76200000Y-90170000D03*
G04 #@! TO.P,J2,4*
G04 #@! TO.N,Net-(D5-Pad1)*
X76200000Y-92710000D03*
G04 #@! TO.P,J2,5*
G04 #@! TO.N,GND*
X76200000Y-95250000D03*
G04 #@! TO.P,J2,6*
G04 #@! TO.N,RPM*
X76200000Y-97790000D03*
G04 #@! TD*
D13*
G04 #@! TO.P,R6,1*
G04 #@! TO.N,+12V*
X91440000Y-113030000D03*
D14*
G04 #@! TO.P,R6,2*
G04 #@! TO.N,Net-(D2-Pad2)*
X83820000Y-113030000D03*
G04 #@! TD*
D15*
G04 #@! TO.P,J3,1*
G04 #@! TO.N,INSTR.BEL*
X139700000Y-135220000D03*
G04 #@! TO.P,J3,2*
G04 #@! TO.N,/FERNLICHT*
X139700000Y-131220000D03*
G04 #@! TO.P,J3,3*
G04 #@! TO.N,GND*
X139700000Y-127220000D03*
G04 #@! TO.P,J3,4*
G04 #@! TO.N,Net-(J3-Pad4)*
X139700000Y-123220000D03*
G04 #@! TO.P,J3,5*
G04 #@! TO.N,UHR+*
X139700000Y-119220000D03*
G04 #@! TO.P,J3,6*
G04 #@! TO.N,WASSER*
X139700000Y-115220000D03*
G04 #@! TO.P,J3,7*
G04 #@! TO.N,TANK*
X139700000Y-111220000D03*
G04 #@! TO.P,J3,8*
G04 #@! TO.N,+12V*
X139700000Y-107220000D03*
G04 #@! TO.P,J3,9*
G04 #@! TO.N,RPM*
X139700000Y-103220000D03*
G04 #@! TO.P,J3,10*
G04 #@! TO.N,/BLINKER*
X139700000Y-99220000D03*
G04 #@! TO.P,J3,11*
G04 #@! TO.N,/LADEKONTR.*
X139700000Y-95220000D03*
G04 #@! TO.P,J3,12*
G04 #@! TO.N,/1.8BAR*
X139700000Y-91220000D03*
G04 #@! TO.P,J3,13*
G04 #@! TO.N,/0.3BAR*
X139700000Y-87220000D03*
G04 #@! TO.P,J3,14*
G04 #@! TO.N,/DIESEL*
X139700000Y-83220000D03*
G04 #@! TD*
D13*
G04 #@! TO.P,R2,1*
G04 #@! TO.N,Net-(D3-Pad1)*
X83820000Y-118110000D03*
D14*
G04 #@! TO.P,R2,2*
G04 #@! TO.N,/BLINKER*
X91440000Y-118110000D03*
G04 #@! TD*
D11*
G04 #@! TO.P,D3,1*
G04 #@! TO.N,Net-(D3-Pad1)*
X78740000Y-118110000D03*
D12*
G04 #@! TO.P,D3,2*
G04 #@! TO.N,+12V*
X76200000Y-118110000D03*
G04 #@! TD*
D11*
G04 #@! TO.P,J5,1*
G04 #@! TO.N,UHR+*
X78740000Y-105410000D03*
D12*
G04 #@! TO.P,J5,2*
G04 #@! TO.N,GND*
X76200000Y-105410000D03*
G04 #@! TD*
D11*
G04 #@! TO.P,J6,1*
G04 #@! TO.N,WASSER*
X78740000Y-92710000D03*
D12*
G04 #@! TO.P,J6,2*
G04 #@! TO.N,GND*
X78740000Y-95250000D03*
G04 #@! TO.P,J6,3*
G04 #@! TO.N,VCC*
X78740000Y-97790000D03*
G04 #@! TD*
D11*
G04 #@! TO.P,D2,1*
G04 #@! TO.N,Net-(D1-Pad2)*
X78740000Y-115570000D03*
D12*
G04 #@! TO.P,D2,2*
G04 #@! TO.N,Net-(D2-Pad2)*
X76200000Y-115570000D03*
G04 #@! TD*
D11*
G04 #@! TO.P,D4,1*
G04 #@! TO.N,Net-(D4-Pad1)*
X78740000Y-113030000D03*
D12*
G04 #@! TO.P,D4,2*
G04 #@! TO.N,/FERNLICHT*
X76200000Y-113030000D03*
G04 #@! TD*
D11*
G04 #@! TO.P,D5,1*
G04 #@! TO.N,Net-(D5-Pad1)*
X78740000Y-110490000D03*
D12*
G04 #@! TO.P,D5,2*
G04 #@! TO.N,+12V*
X76200000Y-110490000D03*
G04 #@! TD*
D11*
G04 #@! TO.P,D6,1*
G04 #@! TO.N,Net-(D6-Pad1)*
X78740000Y-107950000D03*
D12*
G04 #@! TO.P,D6,2*
G04 #@! TO.N,+12V*
X76200000Y-107950000D03*
G04 #@! TD*
D11*
G04 #@! TO.P,J7,1*
G04 #@! TO.N,TANK*
X78740000Y-100330000D03*
D12*
G04 #@! TO.P,J7,2*
G04 #@! TO.N,VCC*
X76200000Y-100330000D03*
G04 #@! TD*
D11*
G04 #@! TO.P,J8,1*
G04 #@! TO.N,GND*
X76200000Y-120650000D03*
D12*
G04 #@! TO.P,J8,2*
X78740000Y-120650000D03*
G04 #@! TO.P,J8,3*
G04 #@! TO.N,+12V*
X76200000Y-123190000D03*
G04 #@! TO.P,J8,4*
X78740000Y-123190000D03*
G04 #@! TD*
D11*
G04 #@! TO.P,J4,1*
G04 #@! TO.N,INSTR.BEL*
X78740000Y-102870000D03*
D12*
G04 #@! TO.P,J4,2*
G04 #@! TO.N,GND*
X76200000Y-102870000D03*
G04 #@! TD*
D16*
G04 #@! TO.P,C1,1*
G04 #@! TO.N,Net-(C1-Pad1)*
X119380000Y-114300000D03*
D17*
G04 #@! TO.P,C1,2*
G04 #@! TO.N,GND*
X119380000Y-112300000D03*
G04 #@! TD*
D16*
G04 #@! TO.P,C2,1*
G04 #@! TO.N,VCC*
X111760000Y-114300000D03*
D17*
G04 #@! TO.P,C2,2*
G04 #@! TO.N,GND*
X111760000Y-112300000D03*
G04 #@! TD*
G04 #@! TO.P,C3,1*
G04 #@! TO.N,VCC*
X105410000Y-114300000D03*
G04 #@! TO.P,C3,2*
G04 #@! TO.N,GND*
X105410000Y-111800000D03*
G04 #@! TD*
D18*
G04 #@! TO.P,D1,1*
G04 #@! TO.N,/LADEKONTR.*
X105410000Y-119380000D03*
D19*
G04 #@! TO.P,D1,2*
G04 #@! TO.N,Net-(D1-Pad2)*
X115570000Y-119380000D03*
G04 #@! TD*
D18*
G04 #@! TO.P,D7,1*
G04 #@! TO.N,Net-(C1-Pad1)*
X125730000Y-116840000D03*
D19*
G04 #@! TO.P,D7,2*
G04 #@! TO.N,+12V*
X125730000Y-106680000D03*
G04 #@! TD*
D18*
G04 #@! TO.P,D8,1*
G04 #@! TO.N,+12V*
X102870000Y-107950000D03*
D19*
G04 #@! TO.P,D8,2*
G04 #@! TO.N,GND*
X113030000Y-107950000D03*
G04 #@! TD*
D13*
G04 #@! TO.P,R1,1*
G04 #@! TO.N,Net-(D5-Pad1)*
X83820000Y-107950000D03*
D14*
G04 #@! TO.P,R1,2*
G04 #@! TO.N,/0.3BAR*
X91440000Y-107950000D03*
G04 #@! TD*
D13*
G04 #@! TO.P,R3,1*
G04 #@! TO.N,Net-(D6-Pad1)*
X83820000Y-105410000D03*
D14*
G04 #@! TO.P,R3,2*
G04 #@! TO.N,/DIESEL*
X91440000Y-105410000D03*
G04 #@! TD*
D13*
G04 #@! TO.P,R7,1*
G04 #@! TO.N,GND*
X91440000Y-110490000D03*
D14*
G04 #@! TO.P,R7,2*
G04 #@! TO.N,Net-(D4-Pad1)*
X83820000Y-110490000D03*
G04 #@! TD*
D20*
G04 #@! TO.P,R4,1*
G04 #@! TO.N,+12V*
X95250000Y-132080000D03*
D21*
G04 #@! TO.P,R4,2*
G04 #@! TO.N,Net-(D1-Pad2)*
X115570000Y-132080000D03*
G04 #@! TD*
D20*
G04 #@! TO.P,R5,1*
G04 #@! TO.N,+12V*
X95250000Y-125730000D03*
D21*
G04 #@! TO.P,R5,2*
G04 #@! TO.N,Net-(D1-Pad2)*
X115570000Y-125730000D03*
G04 #@! TD*
D18*
G04 #@! TO.P,U1,1*
G04 #@! TO.N,Net-(C1-Pad1)*
X101600000Y-104140000D03*
D19*
G04 #@! TO.P,U1,2*
G04 #@! TO.N,GND*
X104140000Y-104140000D03*
G04 #@! TO.P,U1,3*
G04 #@! TO.N,VCC*
X106680000Y-104140000D03*
G04 #@! TD*
D11*
G04 #@! TO.P,J9,1*
G04 #@! TO.N,RPM*
X76200000Y-125730000D03*
D12*
G04 #@! TO.P,J9,2*
G04 #@! TO.N,UHR+*
X78740000Y-125730000D03*
G04 #@! TO.P,J9,3*
G04 #@! TO.N,+12V*
X76200000Y-128270000D03*
G04 #@! TO.P,J9,4*
G04 #@! TO.N,INSTR.BEL*
X78740000Y-128270000D03*
G04 #@! TO.P,J9,5*
G04 #@! TO.N,GND*
X76200000Y-130810000D03*
G04 #@! TO.P,J9,6*
G04 #@! TO.N,TANK*
X78740000Y-130810000D03*
G04 #@! TO.P,J9,7*
G04 #@! TO.N,GND*
X76200000Y-133350000D03*
G04 #@! TO.P,J9,8*
G04 #@! TO.N,WASSER*
X78740000Y-133350000D03*
G04 #@! TD*
D16*
G04 #@! TO.P,C4,1*
G04 #@! TO.N,WASSER*
X119380000Y-102870000D03*
D17*
G04 #@! TO.P,C4,2*
G04 #@! TO.N,GND*
X119380000Y-100870000D03*
G04 #@! TD*
D22*
G04 #@! TO.N,+12V*
X125730000Y-113030000D03*
X128270000Y-124460000D03*
G04 #@! TO.N,GND*
X130810000Y-125730000D03*
D23*
G04 #@! TO.N,/0.3BAR*
X92710000Y-91440000D03*
X88900000Y-95250000D03*
X130810000Y-87630000D03*
G04 #@! TO.N,/1.8BAR*
X128270000Y-92710000D03*
G04 #@! TO.N,/FERNLICHT*
X130740002Y-130810000D03*
G04 #@! TO.N,/BLINKER*
X96520000Y-106680000D03*
D22*
G04 #@! TO.N,/LADEKONTR.*
X99060000Y-99060000D03*
D23*
G04 #@! TO.N,/DIESEL*
X90170000Y-95250000D03*
X91440000Y-101530002D03*
G04 #@! TO.N,RPM*
X73660000Y-110490000D03*
X129540000Y-102870000D03*
G04 #@! TO.N,INSTR.BEL*
X129540000Y-127000000D03*
X104140000Y-128270000D03*
G04 #@! TO.N,UHR+*
X83820000Y-125730000D03*
X86360000Y-113030000D03*
G04 #@! TO.N,WASSER*
X130810000Y-114300000D03*
X91440000Y-96520000D03*
G04 #@! TO.N,TANK*
X93980000Y-106680000D03*
G04 #@! TD*
D24*
G04 #@! TO.N,+12V*
X139700000Y-107220000D02*
X126270000Y-107220000D01*
X126270000Y-107220000D02*
X125730000Y-106680000D01*
G04 #@! TO.N,GND*
X139700000Y-127220000D02*
X132300000Y-127220000D01*
X132300000Y-127220000D02*
X130810000Y-125730000D01*
D25*
G04 #@! TO.N,/0.3BAR*
X88900000Y-95250000D02*
X92710000Y-91440000D01*
X139700000Y-87220000D02*
X131220000Y-87220000D01*
X131220000Y-87220000D02*
X130810000Y-87630000D01*
G04 #@! TO.N,/1.8BAR*
X139700000Y-91220000D02*
X129760000Y-91220000D01*
X129760000Y-91220000D02*
X128270000Y-92710000D01*
G04 #@! TO.N,/FERNLICHT*
X139700000Y-131220000D02*
X131220000Y-131220000D01*
X131220000Y-131220000D02*
X130810000Y-130810000D01*
X130810000Y-130810000D02*
X130740002Y-130810000D01*
G04 #@! TO.N,/BLINKER*
X139700000Y-99220000D02*
X130970000Y-99220000D01*
X130970000Y-99220000D02*
X130810000Y-99060000D01*
X130810000Y-99060000D02*
X127000000Y-99060000D01*
X119380000Y-106680000D02*
X127000000Y-99060000D01*
X96520000Y-106680000D02*
X119380000Y-106680000D01*
D24*
G04 #@! TO.N,/LADEKONTR.*
X139700000Y-95220000D02*
X125730000Y-95250000D01*
X121920000Y-99060000D02*
X99060000Y-99060000D01*
X125730000Y-95250000D02*
X121920000Y-99060000D01*
D25*
G04 #@! TO.N,/DIESEL*
X139700000Y-83220000D02*
X131410000Y-83220000D01*
X131410000Y-83220000D02*
X129540000Y-85090000D01*
X91440000Y-101530002D02*
X91440000Y-105410000D01*
X129540000Y-88900000D02*
X129540000Y-85090000D01*
X127000000Y-91440000D02*
X129540000Y-88900000D01*
X93980000Y-91440000D02*
X127000000Y-91440000D01*
X90170000Y-95250000D02*
X93980000Y-91440000D01*
D26*
G04 #@! TO.N,VCC*
X76200000Y-100330000D02*
X78740000Y-97790000D01*
X106680000Y-104140000D02*
X106680000Y-102870000D01*
X92710000Y-97790000D02*
X78740000Y-97790000D01*
X96520000Y-101600000D02*
X92710000Y-97790000D01*
X105410000Y-101600000D02*
X96520000Y-101600000D01*
X106680000Y-102870000D02*
X105410000Y-101600000D01*
D25*
G04 #@! TO.N,Net-(D2-Pad2)*
X76200000Y-115570000D02*
X77470000Y-114300000D01*
X82550000Y-114300000D02*
X83820000Y-113030000D01*
X77470000Y-114300000D02*
X82550000Y-114300000D01*
G04 #@! TO.N,Net-(D3-Pad1)*
X83820000Y-118110000D02*
X78740000Y-118110000D01*
G04 #@! TO.N,Net-(D4-Pad1)*
X78740000Y-113030000D02*
X80010000Y-113030000D01*
X82550000Y-110490000D02*
X83820000Y-110490000D01*
X80010000Y-113030000D02*
X82550000Y-110490000D01*
G04 #@! TO.N,Net-(D5-Pad1)*
X78740000Y-110490000D02*
X80010000Y-110490000D01*
X82550000Y-107950000D02*
X83820000Y-107950000D01*
X80010000Y-110490000D02*
X82550000Y-107950000D01*
X76200000Y-92710000D02*
X74930000Y-92710000D01*
X77470000Y-109220000D02*
X78740000Y-110490000D01*
X74930000Y-109220000D02*
X77470000Y-109220000D01*
X73660000Y-107950000D02*
X74930000Y-109220000D01*
X73660000Y-93980000D02*
X73660000Y-107950000D01*
X74930000Y-92710000D02*
X73660000Y-93980000D01*
D24*
G04 #@! TO.N,Net-(D1-Pad2)*
X115570000Y-125730000D02*
X115570000Y-132080000D01*
X78740000Y-115570000D02*
X93980000Y-115570000D01*
X113030000Y-116840000D02*
X115570000Y-119380000D01*
X95250000Y-116840000D02*
X113030000Y-116840000D01*
X93980000Y-115570000D02*
X95250000Y-116840000D01*
D25*
G04 #@! TO.N,Net-(D6-Pad1)*
X78740000Y-107950000D02*
X80010000Y-107950000D01*
X82550000Y-105410000D02*
X83820000Y-105410000D01*
X80010000Y-107950000D02*
X82550000Y-105410000D01*
G04 #@! TO.N,RPM*
X76200000Y-125730000D02*
X74930000Y-125730000D01*
X73660000Y-124460000D02*
X73660000Y-110490000D01*
X74930000Y-125730000D02*
X73660000Y-124460000D01*
X139700000Y-103220000D02*
X129890000Y-103220000D01*
X129890000Y-103220000D02*
X129540000Y-102870000D01*
G04 #@! TO.N,INSTR.BEL*
X139700000Y-135220000D02*
X131410000Y-135220000D01*
X131410000Y-135220000D02*
X129540000Y-133350000D01*
X129540000Y-133350000D02*
X129540000Y-127000000D01*
X104140000Y-128270000D02*
X93980000Y-128270000D01*
X93980000Y-128270000D02*
X92710000Y-127000000D01*
X92710000Y-127000000D02*
X86360000Y-127000000D01*
X86360000Y-127000000D02*
X85090000Y-128270000D01*
X85090000Y-128270000D02*
X78740000Y-128270000D01*
G04 #@! TO.N,UHR+*
X78740000Y-105410000D02*
X80010000Y-105410000D01*
X86360000Y-104140000D02*
X86360000Y-113030000D01*
X85090000Y-102870000D02*
X86360000Y-104140000D01*
X82550000Y-102870000D02*
X85090000Y-102870000D01*
X80010000Y-105410000D02*
X82550000Y-102870000D01*
X139700000Y-119220000D02*
X130970000Y-119220000D01*
X130970000Y-119220000D02*
X127000000Y-123190000D01*
X127000000Y-123190000D02*
X93980000Y-123190000D01*
X93980000Y-123190000D02*
X91440000Y-125730000D01*
X91440000Y-125730000D02*
X83820000Y-125730000D01*
X83820000Y-125730000D02*
X78740000Y-125730000D01*
G04 #@! TO.N,WASSER*
X139700000Y-115220000D02*
X131730000Y-115220000D01*
X131730000Y-115220000D02*
X130810000Y-114300000D01*
X91440000Y-96520000D02*
X83820000Y-96520000D01*
X83820000Y-96520000D02*
X80010000Y-92710000D01*
X80010000Y-92710000D02*
X78740000Y-92710000D01*
G04 #@! TO.N,TANK*
X139700000Y-111220000D02*
X131540000Y-111220000D01*
X130810000Y-110490000D02*
X99060000Y-110490000D01*
X99060000Y-110490000D02*
X93980000Y-106680000D01*
X131540000Y-111220000D02*
X130810000Y-110490000D01*
X92710000Y-100330000D02*
X78740000Y-100330000D01*
X93980000Y-106680000D02*
X93980000Y-101600000D01*
X93980000Y-101600000D02*
X92710000Y-100330000D01*
G04 #@! TD*
D27*
G04 #@! TO.N,+12V*
G36*
X131953000Y-82664000D02*
X131464752Y-82664000D01*
X131409999Y-82653109D01*
X131355246Y-82664000D01*
X131355242Y-82664000D01*
X131193060Y-82696260D01*
X131009147Y-82819147D01*
X130978128Y-82865570D01*
X129185568Y-84658130D01*
X129139148Y-84689147D01*
X129108131Y-84735567D01*
X129108129Y-84735569D01*
X129016261Y-84873060D01*
X128973109Y-85090000D01*
X128984001Y-85144758D01*
X128984000Y-88669698D01*
X126769698Y-90884000D01*
X94034754Y-90884000D01*
X93980000Y-90873109D01*
X93925246Y-90884000D01*
X93925242Y-90884000D01*
X93797847Y-90909340D01*
X93763059Y-90916260D01*
X93625568Y-91008129D01*
X93625567Y-91008130D01*
X93579147Y-91039147D01*
X93548130Y-91085567D01*
X93372886Y-91260811D01*
X93287324Y-91054244D01*
X93095756Y-90862676D01*
X92845459Y-90759000D01*
X92574541Y-90759000D01*
X92324244Y-90862676D01*
X92132676Y-91054244D01*
X92029000Y-91304541D01*
X92029000Y-91334697D01*
X88794698Y-94569000D01*
X88764541Y-94569000D01*
X88514244Y-94672676D01*
X88322676Y-94864244D01*
X88219000Y-95114541D01*
X88219000Y-95385459D01*
X88322676Y-95635756D01*
X88514244Y-95827324D01*
X88764541Y-95931000D01*
X89035459Y-95931000D01*
X89285756Y-95827324D01*
X89477324Y-95635756D01*
X89535000Y-95496513D01*
X89592676Y-95635756D01*
X89784244Y-95827324D01*
X90034541Y-95931000D01*
X90305459Y-95931000D01*
X90555756Y-95827324D01*
X90747324Y-95635756D01*
X90851000Y-95385459D01*
X90851000Y-95355302D01*
X91857302Y-94349000D01*
X95101143Y-94349000D01*
X95101143Y-97661000D01*
X114448857Y-97661000D01*
X114448857Y-94349000D01*
X95101143Y-94349000D01*
X91857302Y-94349000D01*
X94210303Y-91996000D01*
X126945247Y-91996000D01*
X127000000Y-92006891D01*
X127054753Y-91996000D01*
X127054758Y-91996000D01*
X127216940Y-91963740D01*
X127400853Y-91840853D01*
X127431872Y-91794430D01*
X129894431Y-89331871D01*
X129940853Y-89300853D01*
X130063740Y-89116940D01*
X130096000Y-88954758D01*
X130096000Y-88954754D01*
X130106891Y-88900001D01*
X130096000Y-88845248D01*
X130096000Y-85320302D01*
X131640302Y-83776000D01*
X131953000Y-83776000D01*
X131953000Y-86664000D01*
X131274758Y-86664000D01*
X131220000Y-86653108D01*
X131003059Y-86696260D01*
X130865568Y-86788129D01*
X130865567Y-86788130D01*
X130819147Y-86819147D01*
X130788130Y-86865567D01*
X130704697Y-86949000D01*
X130674541Y-86949000D01*
X130424244Y-87052676D01*
X130232676Y-87244244D01*
X130129000Y-87494541D01*
X130129000Y-87765459D01*
X130232676Y-88015756D01*
X130424244Y-88207324D01*
X130674541Y-88311000D01*
X130945459Y-88311000D01*
X131195756Y-88207324D01*
X131387324Y-88015756D01*
X131486634Y-87776000D01*
X131953000Y-87776000D01*
X131953000Y-90664000D01*
X129814752Y-90664000D01*
X129759999Y-90653109D01*
X129705246Y-90664000D01*
X129705242Y-90664000D01*
X129543060Y-90696260D01*
X129359147Y-90819147D01*
X129328128Y-90865570D01*
X128164698Y-92029000D01*
X128134541Y-92029000D01*
X127884244Y-92132676D01*
X127692676Y-92324244D01*
X127589000Y-92574541D01*
X127589000Y-92845459D01*
X127692676Y-93095756D01*
X127884244Y-93287324D01*
X128134541Y-93391000D01*
X128405459Y-93391000D01*
X128655756Y-93287324D01*
X128847324Y-93095756D01*
X128951000Y-92845459D01*
X128951000Y-92815302D01*
X129990302Y-91776000D01*
X131953000Y-91776000D01*
X131953000Y-94105634D01*
X125840189Y-94118761D01*
X125730000Y-94096843D01*
X125617406Y-94119239D01*
X125616181Y-94119242D01*
X125508376Y-94140927D01*
X125288706Y-94184622D01*
X125287654Y-94185325D01*
X125286420Y-94185573D01*
X125101023Y-94310028D01*
X125009027Y-94371497D01*
X125008157Y-94372367D01*
X124912846Y-94436348D01*
X124850632Y-94529892D01*
X121451525Y-97929000D01*
X98948609Y-97929000D01*
X98618706Y-97994622D01*
X98244595Y-98244595D01*
X97994622Y-98618706D01*
X97906843Y-99060000D01*
X97994622Y-99501294D01*
X98244595Y-99875405D01*
X98618706Y-100125378D01*
X98948609Y-100191000D01*
X118388814Y-100191000D01*
X118378797Y-100201017D01*
X118199000Y-100635085D01*
X118199000Y-101104915D01*
X118378797Y-101538983D01*
X118531081Y-101691267D01*
X118431341Y-101711106D01*
X118305314Y-101795314D01*
X118221106Y-101921341D01*
X118191536Y-102070000D01*
X118191536Y-103670000D01*
X118221106Y-103818659D01*
X118305314Y-103944686D01*
X118431341Y-104028894D01*
X118580000Y-104058464D01*
X120180000Y-104058464D01*
X120328659Y-104028894D01*
X120454686Y-103944686D01*
X120538894Y-103818659D01*
X120568464Y-103670000D01*
X120568464Y-102070000D01*
X120538894Y-101921341D01*
X120454686Y-101795314D01*
X120328659Y-101711106D01*
X120228919Y-101691267D01*
X120381203Y-101538983D01*
X120561000Y-101104915D01*
X120561000Y-100635085D01*
X120381203Y-100201017D01*
X120371186Y-100191000D01*
X121808614Y-100191000D01*
X121920000Y-100213156D01*
X122031386Y-100191000D01*
X122031391Y-100191000D01*
X122361294Y-100125378D01*
X122735405Y-99875405D01*
X122798503Y-99780972D01*
X126199482Y-96379994D01*
X131953000Y-96367639D01*
X131953000Y-98664000D01*
X131214096Y-98664000D01*
X131210853Y-98659147D01*
X131026940Y-98536260D01*
X130864758Y-98504000D01*
X130864753Y-98504000D01*
X130810000Y-98493109D01*
X130755247Y-98504000D01*
X127054752Y-98504000D01*
X126999999Y-98493109D01*
X126945246Y-98504000D01*
X126945242Y-98504000D01*
X126783060Y-98536260D01*
X126599147Y-98659147D01*
X126568128Y-98705570D01*
X119149698Y-106124000D01*
X96927080Y-106124000D01*
X96905756Y-106102676D01*
X96655459Y-105999000D01*
X96384541Y-105999000D01*
X96134244Y-106102676D01*
X95942676Y-106294244D01*
X95839000Y-106544541D01*
X95839000Y-106815459D01*
X95942676Y-107065756D01*
X96134244Y-107257324D01*
X96384541Y-107361000D01*
X96655459Y-107361000D01*
X96905756Y-107257324D01*
X96927080Y-107236000D01*
X101539000Y-107236000D01*
X101539000Y-107817250D01*
X101646750Y-107925000D01*
X102845000Y-107925000D01*
X102845000Y-107905000D01*
X102895000Y-107905000D01*
X102895000Y-107925000D01*
X104093250Y-107925000D01*
X104201000Y-107817250D01*
X104201000Y-107236000D01*
X111966435Y-107236000D01*
X111823325Y-107450179D01*
X111723904Y-107950000D01*
X111823325Y-108449821D01*
X112106451Y-108873549D01*
X112530179Y-109156675D01*
X112903834Y-109231000D01*
X113156166Y-109231000D01*
X113529821Y-109156675D01*
X113953549Y-108873549D01*
X114236675Y-108449821D01*
X114336096Y-107950000D01*
X114236675Y-107450179D01*
X114093565Y-107236000D01*
X119325247Y-107236000D01*
X119380000Y-107246891D01*
X119434753Y-107236000D01*
X119434758Y-107236000D01*
X119596940Y-107203740D01*
X119780853Y-107080853D01*
X119811872Y-107034430D01*
X119933432Y-106912870D01*
X124419528Y-106912870D01*
X124608397Y-107396640D01*
X124968020Y-107771308D01*
X125443648Y-107979834D01*
X125497130Y-107990470D01*
X125705000Y-107902995D01*
X125705000Y-106705000D01*
X125755000Y-106705000D01*
X125755000Y-107902995D01*
X125962870Y-107990470D01*
X126016352Y-107979834D01*
X126491980Y-107771308D01*
X126851603Y-107396640D01*
X127040472Y-106912870D01*
X126953017Y-106705000D01*
X125755000Y-106705000D01*
X125705000Y-106705000D01*
X124506983Y-106705000D01*
X124419528Y-106912870D01*
X119933432Y-106912870D01*
X120399172Y-106447130D01*
X124419528Y-106447130D01*
X124506983Y-106655000D01*
X125705000Y-106655000D01*
X125705000Y-105457005D01*
X125755000Y-105457005D01*
X125755000Y-106655000D01*
X126953017Y-106655000D01*
X127040472Y-106447130D01*
X126851603Y-105963360D01*
X126491980Y-105588692D01*
X126016352Y-105380166D01*
X125962870Y-105369530D01*
X125755000Y-105457005D01*
X125705000Y-105457005D01*
X125497130Y-105369530D01*
X125443648Y-105380166D01*
X124968020Y-105588692D01*
X124608397Y-105963360D01*
X124419528Y-106447130D01*
X120399172Y-106447130D01*
X127230302Y-99616000D01*
X130565904Y-99616000D01*
X130569147Y-99620853D01*
X130753060Y-99743740D01*
X130915242Y-99776000D01*
X130915246Y-99776000D01*
X130969999Y-99786891D01*
X131024752Y-99776000D01*
X131953000Y-99776000D01*
X131953000Y-102664000D01*
X130191781Y-102664000D01*
X130117324Y-102484244D01*
X129925756Y-102292676D01*
X129675459Y-102189000D01*
X129404541Y-102189000D01*
X129154244Y-102292676D01*
X128962676Y-102484244D01*
X128859000Y-102734541D01*
X128859000Y-103005459D01*
X128962676Y-103255756D01*
X129154244Y-103447324D01*
X129404541Y-103551000D01*
X129434698Y-103551000D01*
X129458128Y-103574430D01*
X129489147Y-103620853D01*
X129535569Y-103651871D01*
X129673059Y-103743740D01*
X129707847Y-103750660D01*
X129835242Y-103776000D01*
X129835246Y-103776000D01*
X129890000Y-103786891D01*
X129944754Y-103776000D01*
X131953000Y-103776000D01*
X131953000Y-110664000D01*
X131770303Y-110664000D01*
X131241872Y-110135569D01*
X131210853Y-110089147D01*
X131026940Y-109966260D01*
X130864758Y-109934000D01*
X130864753Y-109934000D01*
X130810000Y-109923109D01*
X130755247Y-109934000D01*
X99245334Y-109934000D01*
X96777000Y-108082750D01*
X101539000Y-108082750D01*
X101539000Y-108935731D01*
X101604616Y-109094142D01*
X101725858Y-109215384D01*
X101884269Y-109281000D01*
X102737250Y-109281000D01*
X102845000Y-109173250D01*
X102845000Y-107975000D01*
X102895000Y-107975000D01*
X102895000Y-109173250D01*
X103002750Y-109281000D01*
X103855731Y-109281000D01*
X104014142Y-109215384D01*
X104135384Y-109094142D01*
X104201000Y-108935731D01*
X104201000Y-108082750D01*
X104093250Y-107975000D01*
X102895000Y-107975000D01*
X102845000Y-107975000D01*
X101646750Y-107975000D01*
X101539000Y-108082750D01*
X96777000Y-108082750D01*
X94631683Y-106473763D01*
X94557324Y-106294244D01*
X94536000Y-106272920D01*
X94536000Y-101654752D01*
X94546891Y-101599999D01*
X94536000Y-101545246D01*
X94536000Y-101545242D01*
X94503740Y-101383060D01*
X94380853Y-101199147D01*
X94334430Y-101168128D01*
X93141872Y-99975570D01*
X93110853Y-99929147D01*
X92926940Y-99806260D01*
X92764758Y-99774000D01*
X92764753Y-99774000D01*
X92710000Y-99763109D01*
X92655247Y-99774000D01*
X79978464Y-99774000D01*
X79978464Y-99480000D01*
X79948894Y-99331341D01*
X79864686Y-99205314D01*
X79738659Y-99121106D01*
X79590000Y-99091536D01*
X78684386Y-99091536D01*
X78754922Y-99021000D01*
X78861239Y-99021000D01*
X79220312Y-98949576D01*
X79627501Y-98677501D01*
X79631845Y-98671000D01*
X92345079Y-98671000D01*
X95835685Y-102161607D01*
X95884835Y-102235165D01*
X96051102Y-102346261D01*
X96176251Y-102429883D01*
X96520000Y-102498259D01*
X96606767Y-102481000D01*
X105045079Y-102481000D01*
X105770885Y-103206807D01*
X105756451Y-103216451D01*
X105473325Y-103640179D01*
X105410000Y-103958534D01*
X105346675Y-103640179D01*
X105063549Y-103216451D01*
X104639821Y-102933325D01*
X104266166Y-102859000D01*
X104013834Y-102859000D01*
X103640179Y-102933325D01*
X103216451Y-103216451D01*
X102933325Y-103640179D01*
X102888464Y-103865710D01*
X102888464Y-103240000D01*
X102858894Y-103091341D01*
X102774686Y-102965314D01*
X102648659Y-102881106D01*
X102500000Y-102851536D01*
X100700000Y-102851536D01*
X100551341Y-102881106D01*
X100425314Y-102965314D01*
X100341106Y-103091341D01*
X100311536Y-103240000D01*
X100311536Y-105040000D01*
X100341106Y-105188659D01*
X100425314Y-105314686D01*
X100551341Y-105398894D01*
X100700000Y-105428464D01*
X102500000Y-105428464D01*
X102648659Y-105398894D01*
X102774686Y-105314686D01*
X102858894Y-105188659D01*
X102888464Y-105040000D01*
X102888464Y-104414290D01*
X102933325Y-104639821D01*
X103216451Y-105063549D01*
X103640179Y-105346675D01*
X104013834Y-105421000D01*
X104266166Y-105421000D01*
X104639821Y-105346675D01*
X105063549Y-105063549D01*
X105346675Y-104639821D01*
X105410000Y-104321466D01*
X105473325Y-104639821D01*
X105756451Y-105063549D01*
X106180179Y-105346675D01*
X106553834Y-105421000D01*
X106806166Y-105421000D01*
X107179821Y-105346675D01*
X107603549Y-105063549D01*
X107886675Y-104639821D01*
X107986096Y-104140000D01*
X107886675Y-103640179D01*
X107603549Y-103216451D01*
X107561000Y-103188021D01*
X107561000Y-102956761D01*
X107578258Y-102869999D01*
X107561000Y-102783238D01*
X107561000Y-102783233D01*
X107509883Y-102526251D01*
X107315165Y-102234835D01*
X107241607Y-102185685D01*
X106094317Y-101038395D01*
X106045165Y-100964835D01*
X105753749Y-100770117D01*
X105496767Y-100719000D01*
X105496763Y-100719000D01*
X105410000Y-100701742D01*
X105323237Y-100719000D01*
X96884922Y-100719000D01*
X93394317Y-97228396D01*
X93345165Y-97154835D01*
X93053749Y-96960117D01*
X92796767Y-96909000D01*
X92796763Y-96909000D01*
X92710000Y-96891742D01*
X92623237Y-96909000D01*
X92014080Y-96909000D01*
X92017324Y-96905756D01*
X92121000Y-96655459D01*
X92121000Y-96384541D01*
X92017324Y-96134244D01*
X91825756Y-95942676D01*
X91575459Y-95839000D01*
X91304541Y-95839000D01*
X91054244Y-95942676D01*
X91032920Y-95964000D01*
X84050303Y-95964000D01*
X80441871Y-92355569D01*
X80410853Y-92309147D01*
X80226940Y-92186260D01*
X80064758Y-92154000D01*
X80064753Y-92154000D01*
X80010000Y-92143109D01*
X79978464Y-92149382D01*
X79978464Y-91860000D01*
X79948894Y-91711341D01*
X79864686Y-91585314D01*
X79738659Y-91501106D01*
X79590000Y-91471536D01*
X77890000Y-91471536D01*
X77741341Y-91501106D01*
X77615314Y-91585314D01*
X77531106Y-91711341D01*
X77501536Y-91860000D01*
X77501536Y-93560000D01*
X77531106Y-93708659D01*
X77615314Y-93834686D01*
X77741341Y-93918894D01*
X77890000Y-93948464D01*
X79590000Y-93948464D01*
X79738659Y-93918894D01*
X79864686Y-93834686D01*
X79948894Y-93708659D01*
X79978464Y-93560000D01*
X79978464Y-93464766D01*
X83388130Y-96874433D01*
X83411227Y-96909000D01*
X79631845Y-96909000D01*
X79627501Y-96902499D01*
X79220312Y-96630424D01*
X78861239Y-96559000D01*
X78618761Y-96559000D01*
X78259688Y-96630424D01*
X77852499Y-96902499D01*
X77580424Y-97309688D01*
X77484884Y-97790000D01*
X77486409Y-97797669D01*
X77445442Y-97838637D01*
X77455116Y-97790000D01*
X77359576Y-97309688D01*
X77087501Y-96902499D01*
X76680312Y-96630424D01*
X76321239Y-96559000D01*
X76078761Y-96559000D01*
X75719688Y-96630424D01*
X75312499Y-96902499D01*
X75040424Y-97309688D01*
X74944884Y-97790000D01*
X75040424Y-98270312D01*
X75312499Y-98677501D01*
X75719688Y-98949576D01*
X76078761Y-99021000D01*
X76263079Y-99021000D01*
X76185079Y-99099000D01*
X76078761Y-99099000D01*
X75719688Y-99170424D01*
X75312499Y-99442499D01*
X75040424Y-99849688D01*
X74944884Y-100330000D01*
X75040424Y-100810312D01*
X75312499Y-101217501D01*
X75719688Y-101489576D01*
X76078761Y-101561000D01*
X76321239Y-101561000D01*
X76680312Y-101489576D01*
X77087501Y-101217501D01*
X77359576Y-100810312D01*
X77455116Y-100330000D01*
X77453590Y-100322331D01*
X77501536Y-100274385D01*
X77501536Y-101180000D01*
X77531106Y-101328659D01*
X77615314Y-101454686D01*
X77741341Y-101538894D01*
X77890000Y-101568464D01*
X79590000Y-101568464D01*
X79738659Y-101538894D01*
X79864686Y-101454686D01*
X79948894Y-101328659D01*
X79978464Y-101180000D01*
X79978464Y-100886000D01*
X91215220Y-100886000D01*
X91054244Y-100952678D01*
X90862676Y-101144246D01*
X90759000Y-101394543D01*
X90759000Y-101665461D01*
X90862676Y-101915758D01*
X90884000Y-101937082D01*
X90884001Y-104481399D01*
X90660642Y-104630642D01*
X90421720Y-104988215D01*
X90337822Y-105410000D01*
X90421720Y-105831785D01*
X90660642Y-106189358D01*
X91018215Y-106428280D01*
X91333531Y-106491000D01*
X91546469Y-106491000D01*
X91861785Y-106428280D01*
X92219358Y-106189358D01*
X92458280Y-105831785D01*
X92542178Y-105410000D01*
X92458280Y-104988215D01*
X92219358Y-104630642D01*
X91996000Y-104481399D01*
X91996000Y-101937082D01*
X92017324Y-101915758D01*
X92121000Y-101665461D01*
X92121000Y-101394543D01*
X92017324Y-101144246D01*
X91825756Y-100952678D01*
X91664780Y-100886000D01*
X92479698Y-100886000D01*
X93424001Y-101830303D01*
X93424000Y-106272920D01*
X93402676Y-106294244D01*
X93299000Y-106544541D01*
X93299000Y-106815459D01*
X93402676Y-107065756D01*
X93594244Y-107257324D01*
X93844541Y-107361000D01*
X93961334Y-107361000D01*
X98650450Y-110877837D01*
X98659147Y-110890853D01*
X98738507Y-110943880D01*
X98770206Y-110967654D01*
X98783956Y-110974248D01*
X98843060Y-111013740D01*
X98882787Y-111021642D01*
X98919308Y-111039156D01*
X98990283Y-111043024D01*
X99005242Y-111046000D01*
X99044875Y-111046000D01*
X99140170Y-111051194D01*
X99154936Y-111046000D01*
X104493814Y-111046000D01*
X104408797Y-111131017D01*
X104229000Y-111565085D01*
X104229000Y-112034915D01*
X104408797Y-112468983D01*
X104741017Y-112801203D01*
X105175085Y-112981000D01*
X105644915Y-112981000D01*
X106078983Y-112801203D01*
X106411203Y-112468983D01*
X106591000Y-112034915D01*
X106591000Y-111565085D01*
X106411203Y-111131017D01*
X106326186Y-111046000D01*
X130579698Y-111046000D01*
X131108130Y-111574433D01*
X131139147Y-111620853D01*
X131185567Y-111651870D01*
X131185568Y-111651871D01*
X131202200Y-111662984D01*
X131323060Y-111743740D01*
X131485242Y-111776000D01*
X131485247Y-111776000D01*
X131540000Y-111786891D01*
X131594753Y-111776000D01*
X131953000Y-111776000D01*
X131953000Y-114656698D01*
X131491000Y-114194698D01*
X131491000Y-114164541D01*
X131387324Y-113914244D01*
X131195756Y-113722676D01*
X130945459Y-113619000D01*
X130674541Y-113619000D01*
X130424244Y-113722676D01*
X130232676Y-113914244D01*
X130129000Y-114164541D01*
X130129000Y-114435459D01*
X130232676Y-114685756D01*
X130424244Y-114877324D01*
X130674541Y-114981000D01*
X130704698Y-114981000D01*
X131298128Y-115574430D01*
X131329147Y-115620853D01*
X131513060Y-115743740D01*
X131675242Y-115776000D01*
X131675246Y-115776000D01*
X131729999Y-115786891D01*
X131784752Y-115776000D01*
X131953000Y-115776000D01*
X131953000Y-118664000D01*
X131024753Y-118664000D01*
X130970000Y-118653109D01*
X130915247Y-118664000D01*
X130915242Y-118664000D01*
X130753060Y-118696260D01*
X130753058Y-118696261D01*
X130753059Y-118696261D01*
X130615568Y-118788129D01*
X130615567Y-118788130D01*
X130569147Y-118819147D01*
X130538130Y-118865567D01*
X126769698Y-122634000D01*
X94034752Y-122634000D01*
X93979999Y-122623109D01*
X93925246Y-122634000D01*
X93925242Y-122634000D01*
X93763060Y-122666260D01*
X93579147Y-122789147D01*
X93548129Y-122835569D01*
X91209698Y-125174000D01*
X84227080Y-125174000D01*
X84205756Y-125152676D01*
X83955459Y-125049000D01*
X83684541Y-125049000D01*
X83434244Y-125152676D01*
X83412920Y-125174000D01*
X79849003Y-125174000D01*
X79627501Y-124842499D01*
X79220312Y-124570424D01*
X78861239Y-124499000D01*
X78618761Y-124499000D01*
X78259688Y-124570424D01*
X77852499Y-124842499D01*
X77580424Y-125249688D01*
X77484884Y-125730000D01*
X77580424Y-126210312D01*
X77852499Y-126617501D01*
X78259688Y-126889576D01*
X78618761Y-126961000D01*
X78861239Y-126961000D01*
X79220312Y-126889576D01*
X79627501Y-126617501D01*
X79849003Y-126286000D01*
X83412920Y-126286000D01*
X83434244Y-126307324D01*
X83684541Y-126411000D01*
X83955459Y-126411000D01*
X84205756Y-126307324D01*
X84227080Y-126286000D01*
X91385247Y-126286000D01*
X91440000Y-126296891D01*
X91494753Y-126286000D01*
X91494758Y-126286000D01*
X91656940Y-126253740D01*
X91840853Y-126130853D01*
X91871872Y-126084430D01*
X91941496Y-126014806D01*
X93611617Y-126014806D01*
X93845322Y-126620108D01*
X93890100Y-126687123D01*
X94132770Y-126811875D01*
X95214645Y-125730000D01*
X95285355Y-125730000D01*
X96367230Y-126811875D01*
X96609900Y-126687123D01*
X96872659Y-126093856D01*
X96881479Y-125730000D01*
X113958027Y-125730000D01*
X114080731Y-126346875D01*
X114430163Y-126869837D01*
X114439000Y-126875742D01*
X114439001Y-130934258D01*
X114430163Y-130940163D01*
X114080731Y-131463125D01*
X113958027Y-132080000D01*
X114080731Y-132696875D01*
X114430163Y-133219837D01*
X114953125Y-133569269D01*
X115414288Y-133661000D01*
X115725712Y-133661000D01*
X116186875Y-133569269D01*
X116709837Y-133219837D01*
X117059269Y-132696875D01*
X117181973Y-132080000D01*
X117059269Y-131463125D01*
X116709837Y-130940163D01*
X116701000Y-130934258D01*
X116701000Y-126875742D01*
X116709837Y-126869837D01*
X117059269Y-126346875D01*
X117181973Y-125730000D01*
X117059269Y-125113125D01*
X116709837Y-124590163D01*
X116186875Y-124240731D01*
X115725712Y-124149000D01*
X115414288Y-124149000D01*
X114953125Y-124240731D01*
X114430163Y-124590163D01*
X114080731Y-125113125D01*
X113958027Y-125730000D01*
X96881479Y-125730000D01*
X96888383Y-125445194D01*
X96654678Y-124839892D01*
X96609900Y-124772877D01*
X96367230Y-124648125D01*
X95285355Y-125730000D01*
X95214645Y-125730000D01*
X94132770Y-124648125D01*
X93890100Y-124772877D01*
X93627341Y-125366144D01*
X93611617Y-126014806D01*
X91941496Y-126014806D01*
X93343532Y-124612770D01*
X94168125Y-124612770D01*
X95250000Y-125694645D01*
X96331875Y-124612770D01*
X96207123Y-124370100D01*
X95613856Y-124107341D01*
X94965194Y-124091617D01*
X94359892Y-124325322D01*
X94292877Y-124370100D01*
X94168125Y-124612770D01*
X93343532Y-124612770D01*
X94210302Y-123746000D01*
X126945247Y-123746000D01*
X127000000Y-123756891D01*
X127054753Y-123746000D01*
X127054758Y-123746000D01*
X127216940Y-123713740D01*
X127400853Y-123590853D01*
X127431872Y-123544430D01*
X131200303Y-119776000D01*
X131953000Y-119776000D01*
X131953000Y-125273525D01*
X131530972Y-124851497D01*
X131251294Y-124664623D01*
X130810000Y-124576844D01*
X130368706Y-124664623D01*
X129994595Y-124914595D01*
X129744623Y-125288706D01*
X129656844Y-125730000D01*
X129744623Y-126171294D01*
X129907552Y-126415136D01*
X129675459Y-126319000D01*
X129404541Y-126319000D01*
X129154244Y-126422676D01*
X128962676Y-126614244D01*
X128859000Y-126864541D01*
X128859000Y-127135459D01*
X128962676Y-127385756D01*
X128984001Y-127407081D01*
X128984000Y-133295247D01*
X128973109Y-133350000D01*
X128984000Y-133404753D01*
X128984000Y-133404757D01*
X129016260Y-133566939D01*
X129139147Y-133750853D01*
X129185570Y-133781872D01*
X130978128Y-135574430D01*
X131009147Y-135620853D01*
X131193060Y-135743740D01*
X131355242Y-135776000D01*
X131355246Y-135776000D01*
X131409999Y-135786891D01*
X131464752Y-135776000D01*
X131953000Y-135776000D01*
X131953000Y-136069000D01*
X72211000Y-136069000D01*
X72211000Y-133350000D01*
X74944884Y-133350000D01*
X75040424Y-133830312D01*
X75312499Y-134237501D01*
X75719688Y-134509576D01*
X76078761Y-134581000D01*
X76321239Y-134581000D01*
X76680312Y-134509576D01*
X77087501Y-134237501D01*
X77359576Y-133830312D01*
X77455116Y-133350000D01*
X77484884Y-133350000D01*
X77580424Y-133830312D01*
X77852499Y-134237501D01*
X78259688Y-134509576D01*
X78618761Y-134581000D01*
X78861239Y-134581000D01*
X79220312Y-134509576D01*
X79627501Y-134237501D01*
X79899576Y-133830312D01*
X79995116Y-133350000D01*
X79964729Y-133197230D01*
X94168125Y-133197230D01*
X94292877Y-133439900D01*
X94886144Y-133702659D01*
X95534806Y-133718383D01*
X96140108Y-133484678D01*
X96207123Y-133439900D01*
X96331875Y-133197230D01*
X95250000Y-132115355D01*
X94168125Y-133197230D01*
X79964729Y-133197230D01*
X79899576Y-132869688D01*
X79627501Y-132462499D01*
X79481294Y-132364806D01*
X93611617Y-132364806D01*
X93845322Y-132970108D01*
X93890100Y-133037123D01*
X94132770Y-133161875D01*
X95214645Y-132080000D01*
X95285355Y-132080000D01*
X96367230Y-133161875D01*
X96609900Y-133037123D01*
X96872659Y-132443856D01*
X96888383Y-131795194D01*
X96654678Y-131189892D01*
X96609900Y-131122877D01*
X96367230Y-130998125D01*
X95285355Y-132080000D01*
X95214645Y-132080000D01*
X94132770Y-130998125D01*
X93890100Y-131122877D01*
X93627341Y-131716144D01*
X93611617Y-132364806D01*
X79481294Y-132364806D01*
X79220312Y-132190424D01*
X78861239Y-132119000D01*
X78618761Y-132119000D01*
X78259688Y-132190424D01*
X77852499Y-132462499D01*
X77580424Y-132869688D01*
X77484884Y-133350000D01*
X77455116Y-133350000D01*
X77359576Y-132869688D01*
X77087501Y-132462499D01*
X76680312Y-132190424D01*
X76321239Y-132119000D01*
X76078761Y-132119000D01*
X75719688Y-132190424D01*
X75312499Y-132462499D01*
X75040424Y-132869688D01*
X74944884Y-133350000D01*
X72211000Y-133350000D01*
X72211000Y-130810000D01*
X74944884Y-130810000D01*
X75040424Y-131290312D01*
X75312499Y-131697501D01*
X75719688Y-131969576D01*
X76078761Y-132041000D01*
X76321239Y-132041000D01*
X76680312Y-131969576D01*
X77087501Y-131697501D01*
X77359576Y-131290312D01*
X77455116Y-130810000D01*
X77484884Y-130810000D01*
X77580424Y-131290312D01*
X77852499Y-131697501D01*
X78259688Y-131969576D01*
X78618761Y-132041000D01*
X78861239Y-132041000D01*
X79220312Y-131969576D01*
X79627501Y-131697501D01*
X79899576Y-131290312D01*
X79964728Y-130962770D01*
X94168125Y-130962770D01*
X95250000Y-132044645D01*
X96331875Y-130962770D01*
X96207123Y-130720100D01*
X95613856Y-130457341D01*
X94965194Y-130441617D01*
X94359892Y-130675322D01*
X94292877Y-130720100D01*
X94168125Y-130962770D01*
X79964728Y-130962770D01*
X79995116Y-130810000D01*
X79899576Y-130329688D01*
X79627501Y-129922499D01*
X79220312Y-129650424D01*
X78861239Y-129579000D01*
X78618761Y-129579000D01*
X78259688Y-129650424D01*
X77852499Y-129922499D01*
X77580424Y-130329688D01*
X77484884Y-130810000D01*
X77455116Y-130810000D01*
X77359576Y-130329688D01*
X77087501Y-129922499D01*
X76680312Y-129650424D01*
X76321239Y-129579000D01*
X76078761Y-129579000D01*
X75719688Y-129650424D01*
X75312499Y-129922499D01*
X75040424Y-130329688D01*
X74944884Y-130810000D01*
X72211000Y-130810000D01*
X72211000Y-128495047D01*
X74938923Y-128495047D01*
X74948794Y-128544678D01*
X75149151Y-129002585D01*
X75509490Y-129348963D01*
X75974953Y-129531079D01*
X76175000Y-129443008D01*
X76175000Y-128295000D01*
X76225000Y-128295000D01*
X76225000Y-129443008D01*
X76425047Y-129531079D01*
X76890510Y-129348963D01*
X77250849Y-129002585D01*
X77451206Y-128544678D01*
X77461077Y-128495047D01*
X77372984Y-128295000D01*
X76225000Y-128295000D01*
X76175000Y-128295000D01*
X75027016Y-128295000D01*
X74938923Y-128495047D01*
X72211000Y-128495047D01*
X72211000Y-128270000D01*
X77484884Y-128270000D01*
X77580424Y-128750312D01*
X77852499Y-129157501D01*
X78259688Y-129429576D01*
X78618761Y-129501000D01*
X78861239Y-129501000D01*
X79220312Y-129429576D01*
X79627501Y-129157501D01*
X79849003Y-128826000D01*
X85035247Y-128826000D01*
X85090000Y-128836891D01*
X85144753Y-128826000D01*
X85144758Y-128826000D01*
X85306940Y-128793740D01*
X85490853Y-128670853D01*
X85521872Y-128624430D01*
X86590302Y-127556000D01*
X92479698Y-127556000D01*
X93548128Y-128624430D01*
X93579147Y-128670853D01*
X93763060Y-128793740D01*
X93925242Y-128826000D01*
X93925246Y-128826000D01*
X93979999Y-128836891D01*
X94034752Y-128826000D01*
X103732920Y-128826000D01*
X103754244Y-128847324D01*
X104004541Y-128951000D01*
X104275459Y-128951000D01*
X104525756Y-128847324D01*
X104717324Y-128655756D01*
X104821000Y-128405459D01*
X104821000Y-128134541D01*
X104717324Y-127884244D01*
X104525756Y-127692676D01*
X104275459Y-127589000D01*
X104004541Y-127589000D01*
X103754244Y-127692676D01*
X103732920Y-127714000D01*
X94210302Y-127714000D01*
X93343532Y-126847230D01*
X94168125Y-126847230D01*
X94292877Y-127089900D01*
X94886144Y-127352659D01*
X95534806Y-127368383D01*
X96140108Y-127134678D01*
X96207123Y-127089900D01*
X96331875Y-126847230D01*
X95250000Y-125765355D01*
X94168125Y-126847230D01*
X93343532Y-126847230D01*
X93141872Y-126645570D01*
X93110853Y-126599147D01*
X92926940Y-126476260D01*
X92764758Y-126444000D01*
X92764753Y-126444000D01*
X92710000Y-126433109D01*
X92655247Y-126444000D01*
X86414752Y-126444000D01*
X86359999Y-126433109D01*
X86305246Y-126444000D01*
X86305242Y-126444000D01*
X86143060Y-126476260D01*
X85959147Y-126599147D01*
X85928128Y-126645570D01*
X84859698Y-127714000D01*
X79849003Y-127714000D01*
X79627501Y-127382499D01*
X79220312Y-127110424D01*
X78861239Y-127039000D01*
X78618761Y-127039000D01*
X78259688Y-127110424D01*
X77852499Y-127382499D01*
X77580424Y-127789688D01*
X77484884Y-128270000D01*
X72211000Y-128270000D01*
X72211000Y-128044953D01*
X74938923Y-128044953D01*
X75027016Y-128245000D01*
X76175000Y-128245000D01*
X76175000Y-127096992D01*
X76225000Y-127096992D01*
X76225000Y-128245000D01*
X77372984Y-128245000D01*
X77461077Y-128044953D01*
X77451206Y-127995322D01*
X77250849Y-127537415D01*
X76890510Y-127191037D01*
X76425047Y-127008921D01*
X76225000Y-127096992D01*
X76175000Y-127096992D01*
X75974953Y-127008921D01*
X75509490Y-127191037D01*
X75149151Y-127537415D01*
X74948794Y-127995322D01*
X74938923Y-128044953D01*
X72211000Y-128044953D01*
X72211000Y-110354541D01*
X72979000Y-110354541D01*
X72979000Y-110625459D01*
X73082676Y-110875756D01*
X73104001Y-110897081D01*
X73104000Y-124405247D01*
X73093109Y-124460000D01*
X73104000Y-124514753D01*
X73104000Y-124514757D01*
X73136260Y-124676939D01*
X73259147Y-124860853D01*
X73305570Y-124891872D01*
X74498128Y-126084430D01*
X74529147Y-126130853D01*
X74713060Y-126253740D01*
X74875242Y-126286000D01*
X74875246Y-126286000D01*
X74929999Y-126296891D01*
X74961536Y-126290618D01*
X74961536Y-126580000D01*
X74991106Y-126728659D01*
X75075314Y-126854686D01*
X75201341Y-126938894D01*
X75350000Y-126968464D01*
X77050000Y-126968464D01*
X77198659Y-126938894D01*
X77324686Y-126854686D01*
X77408894Y-126728659D01*
X77438464Y-126580000D01*
X77438464Y-124880000D01*
X77408894Y-124731341D01*
X77324686Y-124605314D01*
X77198659Y-124521106D01*
X77050000Y-124491536D01*
X75350000Y-124491536D01*
X75201341Y-124521106D01*
X75075314Y-124605314D01*
X74991106Y-124731341D01*
X74961536Y-124880000D01*
X74961536Y-124975234D01*
X74216000Y-124229698D01*
X74216000Y-123415047D01*
X74938923Y-123415047D01*
X74948794Y-123464678D01*
X75149151Y-123922585D01*
X75509490Y-124268963D01*
X75974953Y-124451079D01*
X76175000Y-124363008D01*
X76175000Y-123215000D01*
X76225000Y-123215000D01*
X76225000Y-124363008D01*
X76425047Y-124451079D01*
X76890510Y-124268963D01*
X77250849Y-123922585D01*
X77451206Y-123464678D01*
X77461077Y-123415047D01*
X77478923Y-123415047D01*
X77488794Y-123464678D01*
X77689151Y-123922585D01*
X78049490Y-124268963D01*
X78514953Y-124451079D01*
X78715000Y-124363008D01*
X78715000Y-123215000D01*
X78765000Y-123215000D01*
X78765000Y-124363008D01*
X78965047Y-124451079D01*
X79430510Y-124268963D01*
X79790849Y-123922585D01*
X79991206Y-123464678D01*
X80001077Y-123415047D01*
X79912984Y-123215000D01*
X78765000Y-123215000D01*
X78715000Y-123215000D01*
X77567016Y-123215000D01*
X77478923Y-123415047D01*
X77461077Y-123415047D01*
X77372984Y-123215000D01*
X76225000Y-123215000D01*
X76175000Y-123215000D01*
X75027016Y-123215000D01*
X74938923Y-123415047D01*
X74216000Y-123415047D01*
X74216000Y-122964953D01*
X74938923Y-122964953D01*
X75027016Y-123165000D01*
X76175000Y-123165000D01*
X76175000Y-122016992D01*
X76225000Y-122016992D01*
X76225000Y-123165000D01*
X77372984Y-123165000D01*
X77461077Y-122964953D01*
X77478923Y-122964953D01*
X77567016Y-123165000D01*
X78715000Y-123165000D01*
X78715000Y-122016992D01*
X78765000Y-122016992D01*
X78765000Y-123165000D01*
X79912984Y-123165000D01*
X80001077Y-122964953D01*
X79991206Y-122915322D01*
X79790849Y-122457415D01*
X79430510Y-122111037D01*
X78965047Y-121928921D01*
X78765000Y-122016992D01*
X78715000Y-122016992D01*
X78514953Y-121928921D01*
X78049490Y-122111037D01*
X77689151Y-122457415D01*
X77488794Y-122915322D01*
X77478923Y-122964953D01*
X77461077Y-122964953D01*
X77451206Y-122915322D01*
X77250849Y-122457415D01*
X76890510Y-122111037D01*
X76425047Y-121928921D01*
X76225000Y-122016992D01*
X76175000Y-122016992D01*
X75974953Y-121928921D01*
X75509490Y-122111037D01*
X75149151Y-122457415D01*
X74948794Y-122915322D01*
X74938923Y-122964953D01*
X74216000Y-122964953D01*
X74216000Y-119800000D01*
X74961536Y-119800000D01*
X74961536Y-121500000D01*
X74991106Y-121648659D01*
X75075314Y-121774686D01*
X75201341Y-121858894D01*
X75350000Y-121888464D01*
X77050000Y-121888464D01*
X77198659Y-121858894D01*
X77324686Y-121774686D01*
X77408894Y-121648659D01*
X77438464Y-121500000D01*
X77438464Y-120650000D01*
X77484884Y-120650000D01*
X77580424Y-121130312D01*
X77852499Y-121537501D01*
X78259688Y-121809576D01*
X78618761Y-121881000D01*
X78861239Y-121881000D01*
X79220312Y-121809576D01*
X79627501Y-121537501D01*
X79899576Y-121130312D01*
X79995116Y-120650000D01*
X79899576Y-120169688D01*
X79627501Y-119762499D01*
X79220312Y-119490424D01*
X78861239Y-119419000D01*
X78618761Y-119419000D01*
X78259688Y-119490424D01*
X77852499Y-119762499D01*
X77580424Y-120169688D01*
X77484884Y-120650000D01*
X77438464Y-120650000D01*
X77438464Y-119800000D01*
X77408894Y-119651341D01*
X77324686Y-119525314D01*
X77198659Y-119441106D01*
X77050000Y-119411536D01*
X75350000Y-119411536D01*
X75201341Y-119441106D01*
X75075314Y-119525314D01*
X74991106Y-119651341D01*
X74961536Y-119800000D01*
X74216000Y-119800000D01*
X74216000Y-118335047D01*
X74938921Y-118335047D01*
X75121037Y-118800510D01*
X75467415Y-119160849D01*
X75925322Y-119361206D01*
X75974953Y-119371077D01*
X76175000Y-119282984D01*
X76175000Y-118135000D01*
X76225000Y-118135000D01*
X76225000Y-119282984D01*
X76425047Y-119371077D01*
X76474678Y-119361206D01*
X76932585Y-119160849D01*
X77278963Y-118800510D01*
X77461079Y-118335047D01*
X77373008Y-118135000D01*
X76225000Y-118135000D01*
X76175000Y-118135000D01*
X75026992Y-118135000D01*
X74938921Y-118335047D01*
X74216000Y-118335047D01*
X74216000Y-117884953D01*
X74938921Y-117884953D01*
X75026992Y-118085000D01*
X76175000Y-118085000D01*
X76175000Y-116937016D01*
X76225000Y-116937016D01*
X76225000Y-118085000D01*
X77373008Y-118085000D01*
X77461079Y-117884953D01*
X77278963Y-117419490D01*
X77125653Y-117260000D01*
X77501536Y-117260000D01*
X77501536Y-118960000D01*
X77531106Y-119108659D01*
X77615314Y-119234686D01*
X77741341Y-119318894D01*
X77890000Y-119348464D01*
X79590000Y-119348464D01*
X79738659Y-119318894D01*
X79864686Y-119234686D01*
X79948894Y-119108659D01*
X79978464Y-118960000D01*
X79978464Y-118666000D01*
X82880237Y-118666000D01*
X82903572Y-118722337D01*
X83207663Y-119026428D01*
X83604976Y-119191000D01*
X84035024Y-119191000D01*
X84432337Y-119026428D01*
X84736428Y-118722337D01*
X84901000Y-118325024D01*
X84901000Y-118110000D01*
X90337822Y-118110000D01*
X90421720Y-118531785D01*
X90660642Y-118889358D01*
X91018215Y-119128280D01*
X91333531Y-119191000D01*
X91546469Y-119191000D01*
X91861785Y-119128280D01*
X92219358Y-118889358D01*
X92458280Y-118531785D01*
X92468580Y-118480000D01*
X104121536Y-118480000D01*
X104121536Y-120280000D01*
X104151106Y-120428659D01*
X104235314Y-120554686D01*
X104361341Y-120638894D01*
X104510000Y-120668464D01*
X106310000Y-120668464D01*
X106458659Y-120638894D01*
X106584686Y-120554686D01*
X106668894Y-120428659D01*
X106698464Y-120280000D01*
X106698464Y-118480000D01*
X106668894Y-118331341D01*
X106584686Y-118205314D01*
X106458659Y-118121106D01*
X106310000Y-118091536D01*
X104510000Y-118091536D01*
X104361341Y-118121106D01*
X104235314Y-118205314D01*
X104151106Y-118331341D01*
X104121536Y-118480000D01*
X92468580Y-118480000D01*
X92542178Y-118110000D01*
X92458280Y-117688215D01*
X92219358Y-117330642D01*
X91861785Y-117091720D01*
X91546469Y-117029000D01*
X91333531Y-117029000D01*
X91018215Y-117091720D01*
X90660642Y-117330642D01*
X90421720Y-117688215D01*
X90337822Y-118110000D01*
X84901000Y-118110000D01*
X84901000Y-117894976D01*
X84736428Y-117497663D01*
X84432337Y-117193572D01*
X84035024Y-117029000D01*
X83604976Y-117029000D01*
X83207663Y-117193572D01*
X82903572Y-117497663D01*
X82880237Y-117554000D01*
X79978464Y-117554000D01*
X79978464Y-117260000D01*
X79948894Y-117111341D01*
X79864686Y-116985314D01*
X79738659Y-116901106D01*
X79590000Y-116871536D01*
X77890000Y-116871536D01*
X77741341Y-116901106D01*
X77615314Y-116985314D01*
X77531106Y-117111341D01*
X77501536Y-117260000D01*
X77125653Y-117260000D01*
X76932585Y-117059151D01*
X76474678Y-116858794D01*
X76425047Y-116848923D01*
X76225000Y-116937016D01*
X76175000Y-116937016D01*
X75974953Y-116848923D01*
X75925322Y-116858794D01*
X75467415Y-117059151D01*
X75121037Y-117419490D01*
X74938921Y-117884953D01*
X74216000Y-117884953D01*
X74216000Y-113030000D01*
X74944884Y-113030000D01*
X75040424Y-113510312D01*
X75312499Y-113917501D01*
X75719688Y-114189576D01*
X76078761Y-114261000D01*
X76321239Y-114261000D01*
X76680312Y-114189576D01*
X77023298Y-113960400D01*
X76591033Y-114392665D01*
X76321239Y-114339000D01*
X76078761Y-114339000D01*
X75719688Y-114410424D01*
X75312499Y-114682499D01*
X75040424Y-115089688D01*
X74944884Y-115570000D01*
X75040424Y-116050312D01*
X75312499Y-116457501D01*
X75719688Y-116729576D01*
X76078761Y-116801000D01*
X76321239Y-116801000D01*
X76680312Y-116729576D01*
X77087501Y-116457501D01*
X77359576Y-116050312D01*
X77455116Y-115570000D01*
X77377335Y-115178967D01*
X77501536Y-115054766D01*
X77501536Y-116420000D01*
X77531106Y-116568659D01*
X77615314Y-116694686D01*
X77741341Y-116778894D01*
X77890000Y-116808464D01*
X79590000Y-116808464D01*
X79738659Y-116778894D01*
X79855236Y-116701000D01*
X93511525Y-116701000D01*
X94371497Y-117560972D01*
X94434595Y-117655405D01*
X94808706Y-117905378D01*
X95138609Y-117971000D01*
X95138613Y-117971000D01*
X95249999Y-117993156D01*
X95361385Y-117971000D01*
X112561525Y-117971000D01*
X114336751Y-119746226D01*
X114363325Y-119879821D01*
X114646451Y-120303549D01*
X115070179Y-120586675D01*
X115443834Y-120661000D01*
X115696166Y-120661000D01*
X116069821Y-120586675D01*
X116493549Y-120303549D01*
X116776675Y-119879821D01*
X116876096Y-119380000D01*
X116776675Y-118880179D01*
X116493549Y-118456451D01*
X116069821Y-118173325D01*
X115936226Y-118146751D01*
X113908502Y-116119027D01*
X113845405Y-116024595D01*
X113718800Y-115940000D01*
X124441536Y-115940000D01*
X124441536Y-117740000D01*
X124471106Y-117888659D01*
X124555314Y-118014686D01*
X124681341Y-118098894D01*
X124830000Y-118128464D01*
X126630000Y-118128464D01*
X126778659Y-118098894D01*
X126904686Y-118014686D01*
X126988894Y-117888659D01*
X127018464Y-117740000D01*
X127018464Y-115940000D01*
X126988894Y-115791341D01*
X126904686Y-115665314D01*
X126778659Y-115581106D01*
X126630000Y-115551536D01*
X124830000Y-115551536D01*
X124681341Y-115581106D01*
X124555314Y-115665314D01*
X124471106Y-115791341D01*
X124441536Y-115940000D01*
X113718800Y-115940000D01*
X113471294Y-115774622D01*
X113141391Y-115709000D01*
X113141386Y-115709000D01*
X113030000Y-115686844D01*
X112918614Y-115709000D01*
X95718475Y-115709000D01*
X94858503Y-114849028D01*
X94795405Y-114754595D01*
X94421294Y-114504622D01*
X94091391Y-114439000D01*
X94091386Y-114439000D01*
X93980000Y-114416844D01*
X93868614Y-114439000D01*
X83197302Y-114439000D01*
X83556531Y-114079771D01*
X83713531Y-114111000D01*
X83926469Y-114111000D01*
X84241785Y-114048280D01*
X84599358Y-113809358D01*
X84614510Y-113786681D01*
X90718674Y-113786681D01*
X90782575Y-113977399D01*
X91195173Y-114156868D01*
X91645043Y-114164782D01*
X91898239Y-114065085D01*
X104229000Y-114065085D01*
X104229000Y-114534915D01*
X104408797Y-114968983D01*
X104741017Y-115301203D01*
X105175085Y-115481000D01*
X105644915Y-115481000D01*
X106078983Y-115301203D01*
X106411203Y-114968983D01*
X106591000Y-114534915D01*
X106591000Y-114065085D01*
X106411203Y-113631017D01*
X106280186Y-113500000D01*
X110571536Y-113500000D01*
X110571536Y-115100000D01*
X110601106Y-115248659D01*
X110685314Y-115374686D01*
X110811341Y-115458894D01*
X110960000Y-115488464D01*
X112560000Y-115488464D01*
X112708659Y-115458894D01*
X112834686Y-115374686D01*
X112918894Y-115248659D01*
X112948464Y-115100000D01*
X112948464Y-113500000D01*
X118191536Y-113500000D01*
X118191536Y-115100000D01*
X118221106Y-115248659D01*
X118305314Y-115374686D01*
X118431341Y-115458894D01*
X118580000Y-115488464D01*
X120180000Y-115488464D01*
X120328659Y-115458894D01*
X120454686Y-115374686D01*
X120538894Y-115248659D01*
X120568464Y-115100000D01*
X120568464Y-113500000D01*
X120538894Y-113351341D01*
X120454686Y-113225314D01*
X120328659Y-113141106D01*
X120228919Y-113121267D01*
X120381203Y-112968983D01*
X120561000Y-112534915D01*
X120561000Y-112065085D01*
X120381203Y-111631017D01*
X120048983Y-111298797D01*
X119614915Y-111119000D01*
X119145085Y-111119000D01*
X118711017Y-111298797D01*
X118378797Y-111631017D01*
X118199000Y-112065085D01*
X118199000Y-112534915D01*
X118378797Y-112968983D01*
X118531081Y-113121267D01*
X118431341Y-113141106D01*
X118305314Y-113225314D01*
X118221106Y-113351341D01*
X118191536Y-113500000D01*
X112948464Y-113500000D01*
X112918894Y-113351341D01*
X112834686Y-113225314D01*
X112708659Y-113141106D01*
X112608919Y-113121267D01*
X112761203Y-112968983D01*
X112941000Y-112534915D01*
X112941000Y-112065085D01*
X112761203Y-111631017D01*
X112428983Y-111298797D01*
X111994915Y-111119000D01*
X111525085Y-111119000D01*
X111091017Y-111298797D01*
X110758797Y-111631017D01*
X110579000Y-112065085D01*
X110579000Y-112534915D01*
X110758797Y-112968983D01*
X110911081Y-113121267D01*
X110811341Y-113141106D01*
X110685314Y-113225314D01*
X110601106Y-113351341D01*
X110571536Y-113500000D01*
X106280186Y-113500000D01*
X106078983Y-113298797D01*
X105644915Y-113119000D01*
X105175085Y-113119000D01*
X104741017Y-113298797D01*
X104408797Y-113631017D01*
X104229000Y-114065085D01*
X91898239Y-114065085D01*
X92063696Y-113999936D01*
X92097425Y-113977399D01*
X92161326Y-113786681D01*
X91440000Y-113065355D01*
X90718674Y-113786681D01*
X84614510Y-113786681D01*
X84838280Y-113451785D01*
X84922178Y-113030000D01*
X84838280Y-112608215D01*
X84599358Y-112250642D01*
X84241785Y-112011720D01*
X83926469Y-111949000D01*
X83713531Y-111949000D01*
X83398215Y-112011720D01*
X83040642Y-112250642D01*
X82801720Y-112608215D01*
X82717822Y-113030000D01*
X82770229Y-113293469D01*
X82319698Y-113744000D01*
X79978464Y-113744000D01*
X79978464Y-113590618D01*
X80010000Y-113596891D01*
X80064753Y-113586000D01*
X80064758Y-113586000D01*
X80226940Y-113553740D01*
X80410853Y-113430853D01*
X80441872Y-113384430D01*
X82780302Y-111046000D01*
X82891399Y-111046000D01*
X83040642Y-111269358D01*
X83398215Y-111508280D01*
X83713531Y-111571000D01*
X83926469Y-111571000D01*
X84241785Y-111508280D01*
X84599358Y-111269358D01*
X84838280Y-110911785D01*
X84922178Y-110490000D01*
X84838280Y-110068215D01*
X84599358Y-109710642D01*
X84241785Y-109471720D01*
X83926469Y-109409000D01*
X83713531Y-109409000D01*
X83398215Y-109471720D01*
X83040642Y-109710642D01*
X82891399Y-109934000D01*
X82604752Y-109934000D01*
X82549999Y-109923109D01*
X82495246Y-109934000D01*
X82495242Y-109934000D01*
X82333060Y-109966260D01*
X82149147Y-110089147D01*
X82118129Y-110135569D01*
X79978464Y-112275234D01*
X79978464Y-112180000D01*
X79948894Y-112031341D01*
X79864686Y-111905314D01*
X79738659Y-111821106D01*
X79590000Y-111791536D01*
X77890000Y-111791536D01*
X77741341Y-111821106D01*
X77615314Y-111905314D01*
X77531106Y-112031341D01*
X77501536Y-112180000D01*
X77501536Y-113739382D01*
X77469999Y-113733109D01*
X77415246Y-113744000D01*
X77415242Y-113744000D01*
X77253060Y-113776260D01*
X77124460Y-113862188D01*
X77359576Y-113510312D01*
X77455116Y-113030000D01*
X77359576Y-112549688D01*
X77087501Y-112142499D01*
X76680312Y-111870424D01*
X76321239Y-111799000D01*
X76078761Y-111799000D01*
X75719688Y-111870424D01*
X75312499Y-112142499D01*
X75040424Y-112549688D01*
X74944884Y-113030000D01*
X74216000Y-113030000D01*
X74216000Y-110897080D01*
X74237324Y-110875756D01*
X74303891Y-110715047D01*
X74938921Y-110715047D01*
X75121037Y-111180510D01*
X75467415Y-111540849D01*
X75925322Y-111741206D01*
X75974953Y-111751077D01*
X76175000Y-111662984D01*
X76175000Y-110515000D01*
X76225000Y-110515000D01*
X76225000Y-111662984D01*
X76425047Y-111751077D01*
X76474678Y-111741206D01*
X76932585Y-111540849D01*
X77278963Y-111180510D01*
X77461079Y-110715047D01*
X77373008Y-110515000D01*
X76225000Y-110515000D01*
X76175000Y-110515000D01*
X75026992Y-110515000D01*
X74938921Y-110715047D01*
X74303891Y-110715047D01*
X74341000Y-110625459D01*
X74341000Y-110354541D01*
X74237324Y-110104244D01*
X74045756Y-109912676D01*
X73795459Y-109809000D01*
X73524541Y-109809000D01*
X73274244Y-109912676D01*
X73082676Y-110104244D01*
X72979000Y-110354541D01*
X72211000Y-110354541D01*
X72211000Y-93980000D01*
X73093109Y-93980000D01*
X73104000Y-94034753D01*
X73104001Y-107895242D01*
X73093109Y-107950000D01*
X73136261Y-108166940D01*
X73228129Y-108304431D01*
X73228130Y-108304432D01*
X73259148Y-108350853D01*
X73305568Y-108381870D01*
X74498128Y-109574430D01*
X74529147Y-109620853D01*
X74713060Y-109743740D01*
X74875242Y-109776000D01*
X74875246Y-109776000D01*
X74929999Y-109786891D01*
X74984752Y-109776000D01*
X75143617Y-109776000D01*
X75121037Y-109799490D01*
X74938921Y-110264953D01*
X75026992Y-110465000D01*
X76175000Y-110465000D01*
X76175000Y-110445000D01*
X76225000Y-110445000D01*
X76225000Y-110465000D01*
X77373008Y-110465000D01*
X77461079Y-110264953D01*
X77289102Y-109825404D01*
X77501536Y-110037838D01*
X77501536Y-111340000D01*
X77531106Y-111488659D01*
X77615314Y-111614686D01*
X77741341Y-111698894D01*
X77890000Y-111728464D01*
X79590000Y-111728464D01*
X79738659Y-111698894D01*
X79864686Y-111614686D01*
X79948894Y-111488659D01*
X79978464Y-111340000D01*
X79978464Y-111050618D01*
X80010000Y-111056891D01*
X80064753Y-111046000D01*
X80064758Y-111046000D01*
X80226940Y-111013740D01*
X80410853Y-110890853D01*
X80441872Y-110844430D01*
X82780302Y-108506000D01*
X82880237Y-108506000D01*
X82903572Y-108562337D01*
X83207663Y-108866428D01*
X83604976Y-109031000D01*
X84035024Y-109031000D01*
X84432337Y-108866428D01*
X84736428Y-108562337D01*
X84901000Y-108165024D01*
X84901000Y-107734976D01*
X84736428Y-107337663D01*
X84432337Y-107033572D01*
X84035024Y-106869000D01*
X83604976Y-106869000D01*
X83207663Y-107033572D01*
X82903572Y-107337663D01*
X82880237Y-107394000D01*
X82604752Y-107394000D01*
X82549999Y-107383109D01*
X82495246Y-107394000D01*
X82495242Y-107394000D01*
X82333060Y-107426260D01*
X82149147Y-107549147D01*
X82118129Y-107595569D01*
X79978464Y-109735234D01*
X79978464Y-109640000D01*
X79948894Y-109491341D01*
X79864686Y-109365314D01*
X79738659Y-109281106D01*
X79590000Y-109251536D01*
X78287838Y-109251536D01*
X78224766Y-109188464D01*
X79590000Y-109188464D01*
X79738659Y-109158894D01*
X79864686Y-109074686D01*
X79948894Y-108948659D01*
X79978464Y-108800000D01*
X79978464Y-108510618D01*
X80010000Y-108516891D01*
X80064753Y-108506000D01*
X80064758Y-108506000D01*
X80226940Y-108473740D01*
X80410853Y-108350853D01*
X80441872Y-108304430D01*
X82780302Y-105966000D01*
X82880237Y-105966000D01*
X82903572Y-106022337D01*
X83207663Y-106326428D01*
X83604976Y-106491000D01*
X84035024Y-106491000D01*
X84432337Y-106326428D01*
X84736428Y-106022337D01*
X84901000Y-105625024D01*
X84901000Y-105194976D01*
X84736428Y-104797663D01*
X84432337Y-104493572D01*
X84035024Y-104329000D01*
X83604976Y-104329000D01*
X83207663Y-104493572D01*
X82903572Y-104797663D01*
X82880237Y-104854000D01*
X82604752Y-104854000D01*
X82549999Y-104843109D01*
X82495246Y-104854000D01*
X82495242Y-104854000D01*
X82333060Y-104886260D01*
X82149147Y-105009147D01*
X82118129Y-105055569D01*
X79978464Y-107195234D01*
X79978464Y-107100000D01*
X79948894Y-106951341D01*
X79864686Y-106825314D01*
X79738659Y-106741106D01*
X79590000Y-106711536D01*
X77890000Y-106711536D01*
X77741341Y-106741106D01*
X77615314Y-106825314D01*
X77531106Y-106951341D01*
X77501536Y-107100000D01*
X77501536Y-108659382D01*
X77470000Y-108653109D01*
X77415247Y-108664000D01*
X77256383Y-108664000D01*
X77278963Y-108640510D01*
X77461079Y-108175047D01*
X77373008Y-107975000D01*
X76225000Y-107975000D01*
X76225000Y-107995000D01*
X76175000Y-107995000D01*
X76175000Y-107975000D01*
X75026992Y-107975000D01*
X74938921Y-108175047D01*
X75110898Y-108614596D01*
X74221255Y-107724953D01*
X74938921Y-107724953D01*
X75026992Y-107925000D01*
X76175000Y-107925000D01*
X76175000Y-106777016D01*
X76225000Y-106777016D01*
X76225000Y-107925000D01*
X77373008Y-107925000D01*
X77461079Y-107724953D01*
X77278963Y-107259490D01*
X76932585Y-106899151D01*
X76474678Y-106698794D01*
X76425047Y-106688923D01*
X76225000Y-106777016D01*
X76175000Y-106777016D01*
X75974953Y-106688923D01*
X75925322Y-106698794D01*
X75467415Y-106899151D01*
X75121037Y-107259490D01*
X74938921Y-107724953D01*
X74221255Y-107724953D01*
X74216000Y-107719698D01*
X74216000Y-105410000D01*
X74944884Y-105410000D01*
X75040424Y-105890312D01*
X75312499Y-106297501D01*
X75719688Y-106569576D01*
X76078761Y-106641000D01*
X76321239Y-106641000D01*
X76680312Y-106569576D01*
X77087501Y-106297501D01*
X77359576Y-105890312D01*
X77455116Y-105410000D01*
X77359576Y-104929688D01*
X77112559Y-104560000D01*
X77501536Y-104560000D01*
X77501536Y-106260000D01*
X77531106Y-106408659D01*
X77615314Y-106534686D01*
X77741341Y-106618894D01*
X77890000Y-106648464D01*
X79590000Y-106648464D01*
X79738659Y-106618894D01*
X79864686Y-106534686D01*
X79948894Y-106408659D01*
X79978464Y-106260000D01*
X79978464Y-105970618D01*
X80010000Y-105976891D01*
X80064753Y-105966000D01*
X80064758Y-105966000D01*
X80226940Y-105933740D01*
X80410853Y-105810853D01*
X80441872Y-105764430D01*
X82780302Y-103426000D01*
X84859698Y-103426000D01*
X85804000Y-104370302D01*
X85804001Y-112622919D01*
X85782676Y-112644244D01*
X85679000Y-112894541D01*
X85679000Y-113165459D01*
X85782676Y-113415756D01*
X85974244Y-113607324D01*
X86224541Y-113711000D01*
X86495459Y-113711000D01*
X86745756Y-113607324D01*
X86937324Y-113415756D01*
X87012177Y-113235043D01*
X90305218Y-113235043D01*
X90470064Y-113653696D01*
X90492601Y-113687425D01*
X90683319Y-113751326D01*
X91404645Y-113030000D01*
X91475355Y-113030000D01*
X92196681Y-113751326D01*
X92387399Y-113687425D01*
X92566868Y-113274827D01*
X92574782Y-112824957D01*
X92409936Y-112406304D01*
X92387399Y-112372575D01*
X92196681Y-112308674D01*
X91475355Y-113030000D01*
X91404645Y-113030000D01*
X90683319Y-112308674D01*
X90492601Y-112372575D01*
X90313132Y-112785173D01*
X90305218Y-113235043D01*
X87012177Y-113235043D01*
X87041000Y-113165459D01*
X87041000Y-112894541D01*
X86937324Y-112644244D01*
X86916000Y-112622920D01*
X86916000Y-112273319D01*
X90718674Y-112273319D01*
X91440000Y-112994645D01*
X92161326Y-112273319D01*
X92097425Y-112082601D01*
X91684827Y-111903132D01*
X91234957Y-111895218D01*
X90816304Y-112060064D01*
X90782575Y-112082601D01*
X90718674Y-112273319D01*
X86916000Y-112273319D01*
X86916000Y-110274976D01*
X90359000Y-110274976D01*
X90359000Y-110705024D01*
X90523572Y-111102337D01*
X90827663Y-111406428D01*
X91224976Y-111571000D01*
X91655024Y-111571000D01*
X92052337Y-111406428D01*
X92356428Y-111102337D01*
X92521000Y-110705024D01*
X92521000Y-110274976D01*
X92356428Y-109877663D01*
X92052337Y-109573572D01*
X91655024Y-109409000D01*
X91224976Y-109409000D01*
X90827663Y-109573572D01*
X90523572Y-109877663D01*
X90359000Y-110274976D01*
X86916000Y-110274976D01*
X86916000Y-107950000D01*
X90337822Y-107950000D01*
X90421720Y-108371785D01*
X90660642Y-108729358D01*
X91018215Y-108968280D01*
X91333531Y-109031000D01*
X91546469Y-109031000D01*
X91861785Y-108968280D01*
X92219358Y-108729358D01*
X92458280Y-108371785D01*
X92542178Y-107950000D01*
X92458280Y-107528215D01*
X92219358Y-107170642D01*
X91861785Y-106931720D01*
X91546469Y-106869000D01*
X91333531Y-106869000D01*
X91018215Y-106931720D01*
X90660642Y-107170642D01*
X90421720Y-107528215D01*
X90337822Y-107950000D01*
X86916000Y-107950000D01*
X86916000Y-104194752D01*
X86926891Y-104139999D01*
X86916000Y-104085246D01*
X86916000Y-104085242D01*
X86883740Y-103923060D01*
X86760853Y-103739147D01*
X86714431Y-103708129D01*
X85521872Y-102515570D01*
X85490853Y-102469147D01*
X85306940Y-102346260D01*
X85144758Y-102314000D01*
X85144753Y-102314000D01*
X85090000Y-102303109D01*
X85035247Y-102314000D01*
X82604752Y-102314000D01*
X82549999Y-102303109D01*
X82495246Y-102314000D01*
X82495242Y-102314000D01*
X82333060Y-102346260D01*
X82149147Y-102469147D01*
X82118128Y-102515570D01*
X79978464Y-104655234D01*
X79978464Y-104560000D01*
X79948894Y-104411341D01*
X79864686Y-104285314D01*
X79738659Y-104201106D01*
X79590000Y-104171536D01*
X77890000Y-104171536D01*
X77741341Y-104201106D01*
X77615314Y-104285314D01*
X77531106Y-104411341D01*
X77501536Y-104560000D01*
X77112559Y-104560000D01*
X77087501Y-104522499D01*
X76680312Y-104250424D01*
X76321239Y-104179000D01*
X76078761Y-104179000D01*
X75719688Y-104250424D01*
X75312499Y-104522499D01*
X75040424Y-104929688D01*
X74944884Y-105410000D01*
X74216000Y-105410000D01*
X74216000Y-102870000D01*
X74944884Y-102870000D01*
X75040424Y-103350312D01*
X75312499Y-103757501D01*
X75719688Y-104029576D01*
X76078761Y-104101000D01*
X76321239Y-104101000D01*
X76680312Y-104029576D01*
X77087501Y-103757501D01*
X77359576Y-103350312D01*
X77455116Y-102870000D01*
X77359576Y-102389688D01*
X77112559Y-102020000D01*
X77501536Y-102020000D01*
X77501536Y-103720000D01*
X77531106Y-103868659D01*
X77615314Y-103994686D01*
X77741341Y-104078894D01*
X77890000Y-104108464D01*
X79590000Y-104108464D01*
X79738659Y-104078894D01*
X79864686Y-103994686D01*
X79948894Y-103868659D01*
X79978464Y-103720000D01*
X79978464Y-102020000D01*
X79948894Y-101871341D01*
X79864686Y-101745314D01*
X79738659Y-101661106D01*
X79590000Y-101631536D01*
X77890000Y-101631536D01*
X77741341Y-101661106D01*
X77615314Y-101745314D01*
X77531106Y-101871341D01*
X77501536Y-102020000D01*
X77112559Y-102020000D01*
X77087501Y-101982499D01*
X76680312Y-101710424D01*
X76321239Y-101639000D01*
X76078761Y-101639000D01*
X75719688Y-101710424D01*
X75312499Y-101982499D01*
X75040424Y-102389688D01*
X74944884Y-102870000D01*
X74216000Y-102870000D01*
X74216000Y-95250000D01*
X74944884Y-95250000D01*
X75040424Y-95730312D01*
X75312499Y-96137501D01*
X75719688Y-96409576D01*
X76078761Y-96481000D01*
X76321239Y-96481000D01*
X76680312Y-96409576D01*
X77087501Y-96137501D01*
X77359576Y-95730312D01*
X77455116Y-95250000D01*
X77484884Y-95250000D01*
X77580424Y-95730312D01*
X77852499Y-96137501D01*
X78259688Y-96409576D01*
X78618761Y-96481000D01*
X78861239Y-96481000D01*
X79220312Y-96409576D01*
X79627501Y-96137501D01*
X79899576Y-95730312D01*
X79995116Y-95250000D01*
X79899576Y-94769688D01*
X79627501Y-94362499D01*
X79220312Y-94090424D01*
X78861239Y-94019000D01*
X78618761Y-94019000D01*
X78259688Y-94090424D01*
X77852499Y-94362499D01*
X77580424Y-94769688D01*
X77484884Y-95250000D01*
X77455116Y-95250000D01*
X77359576Y-94769688D01*
X77087501Y-94362499D01*
X76680312Y-94090424D01*
X76321239Y-94019000D01*
X76078761Y-94019000D01*
X75719688Y-94090424D01*
X75312499Y-94362499D01*
X75040424Y-94769688D01*
X74944884Y-95250000D01*
X74216000Y-95250000D01*
X74216000Y-94210302D01*
X75118757Y-93307545D01*
X75312499Y-93597501D01*
X75719688Y-93869576D01*
X76078761Y-93941000D01*
X76321239Y-93941000D01*
X76680312Y-93869576D01*
X77087501Y-93597501D01*
X77359576Y-93190312D01*
X77455116Y-92710000D01*
X77359576Y-92229688D01*
X77087501Y-91822499D01*
X76680312Y-91550424D01*
X76321239Y-91479000D01*
X76078761Y-91479000D01*
X75719688Y-91550424D01*
X75312499Y-91822499D01*
X75090997Y-92154000D01*
X74984752Y-92154000D01*
X74929999Y-92143109D01*
X74875246Y-92154000D01*
X74875242Y-92154000D01*
X74713060Y-92186260D01*
X74529147Y-92309147D01*
X74498129Y-92355569D01*
X73305570Y-93548128D01*
X73259147Y-93579147D01*
X73136260Y-93763061D01*
X73104000Y-93925243D01*
X73104000Y-93925247D01*
X73093109Y-93980000D01*
X72211000Y-93980000D01*
X72211000Y-90395047D01*
X74938923Y-90395047D01*
X74948794Y-90444678D01*
X75149151Y-90902585D01*
X75509490Y-91248963D01*
X75974953Y-91431079D01*
X76175000Y-91343008D01*
X76175000Y-90195000D01*
X76225000Y-90195000D01*
X76225000Y-91343008D01*
X76425047Y-91431079D01*
X76890510Y-91248963D01*
X77250849Y-90902585D01*
X77451206Y-90444678D01*
X77461077Y-90395047D01*
X77372984Y-90195000D01*
X76225000Y-90195000D01*
X76175000Y-90195000D01*
X75027016Y-90195000D01*
X74938923Y-90395047D01*
X72211000Y-90395047D01*
X72211000Y-90170000D01*
X77484884Y-90170000D01*
X77580424Y-90650312D01*
X77852499Y-91057501D01*
X78259688Y-91329576D01*
X78618761Y-91401000D01*
X78861239Y-91401000D01*
X79220312Y-91329576D01*
X79627501Y-91057501D01*
X79899576Y-90650312D01*
X79995116Y-90170000D01*
X79899576Y-89689688D01*
X79627501Y-89282499D01*
X79220312Y-89010424D01*
X78861239Y-88939000D01*
X78618761Y-88939000D01*
X78259688Y-89010424D01*
X77852499Y-89282499D01*
X77580424Y-89689688D01*
X77484884Y-90170000D01*
X72211000Y-90170000D01*
X72211000Y-89944953D01*
X74938923Y-89944953D01*
X75027016Y-90145000D01*
X76175000Y-90145000D01*
X76175000Y-88996992D01*
X76225000Y-88996992D01*
X76225000Y-90145000D01*
X77372984Y-90145000D01*
X77461077Y-89944953D01*
X77451206Y-89895322D01*
X77250849Y-89437415D01*
X76890510Y-89091037D01*
X76425047Y-88908921D01*
X76225000Y-88996992D01*
X76175000Y-88996992D01*
X75974953Y-88908921D01*
X75509490Y-89091037D01*
X75149151Y-89437415D01*
X74948794Y-89895322D01*
X74938923Y-89944953D01*
X72211000Y-89944953D01*
X72211000Y-87630000D01*
X74944884Y-87630000D01*
X75040424Y-88110312D01*
X75312499Y-88517501D01*
X75719688Y-88789576D01*
X76078761Y-88861000D01*
X76321239Y-88861000D01*
X76680312Y-88789576D01*
X77087501Y-88517501D01*
X77359576Y-88110312D01*
X77410351Y-87855047D01*
X77478923Y-87855047D01*
X77488794Y-87904678D01*
X77689151Y-88362585D01*
X78049490Y-88708963D01*
X78514953Y-88891079D01*
X78715000Y-88803008D01*
X78715000Y-87655000D01*
X78765000Y-87655000D01*
X78765000Y-88803008D01*
X78965047Y-88891079D01*
X79430510Y-88708963D01*
X79790849Y-88362585D01*
X79991206Y-87904678D01*
X80001077Y-87855047D01*
X79912984Y-87655000D01*
X78765000Y-87655000D01*
X78715000Y-87655000D01*
X77567016Y-87655000D01*
X77478923Y-87855047D01*
X77410351Y-87855047D01*
X77455116Y-87630000D01*
X77410352Y-87404953D01*
X77478923Y-87404953D01*
X77567016Y-87605000D01*
X78715000Y-87605000D01*
X78715000Y-86456992D01*
X78765000Y-86456992D01*
X78765000Y-87605000D01*
X79912984Y-87605000D01*
X79968029Y-87480000D01*
X101967252Y-87480000D01*
X102132643Y-88311475D01*
X102603635Y-89016365D01*
X103308525Y-89487357D01*
X103930119Y-89611000D01*
X104349881Y-89611000D01*
X104971475Y-89487357D01*
X105676365Y-89016365D01*
X106147357Y-88311475D01*
X106312748Y-87480000D01*
X106147357Y-86648525D01*
X105676365Y-85943635D01*
X104971475Y-85472643D01*
X104349881Y-85349000D01*
X103930119Y-85349000D01*
X103308525Y-85472643D01*
X102603635Y-85943635D01*
X102132643Y-86648525D01*
X101967252Y-87480000D01*
X79968029Y-87480000D01*
X80001077Y-87404953D01*
X79991206Y-87355322D01*
X79790849Y-86897415D01*
X79430510Y-86551037D01*
X78965047Y-86368921D01*
X78765000Y-86456992D01*
X78715000Y-86456992D01*
X78514953Y-86368921D01*
X78049490Y-86551037D01*
X77689151Y-86897415D01*
X77488794Y-87355322D01*
X77478923Y-87404953D01*
X77410352Y-87404953D01*
X77359576Y-87149688D01*
X77087501Y-86742499D01*
X76680312Y-86470424D01*
X76321239Y-86399000D01*
X76078761Y-86399000D01*
X75719688Y-86470424D01*
X75312499Y-86742499D01*
X75040424Y-87149688D01*
X74944884Y-87630000D01*
X72211000Y-87630000D01*
X72211000Y-84240000D01*
X74961536Y-84240000D01*
X74961536Y-85940000D01*
X74991106Y-86088659D01*
X75075314Y-86214686D01*
X75201341Y-86298894D01*
X75350000Y-86328464D01*
X77050000Y-86328464D01*
X77198659Y-86298894D01*
X77324686Y-86214686D01*
X77408894Y-86088659D01*
X77438464Y-85940000D01*
X77438464Y-84240000D01*
X77501536Y-84240000D01*
X77501536Y-85940000D01*
X77531106Y-86088659D01*
X77615314Y-86214686D01*
X77741341Y-86298894D01*
X77890000Y-86328464D01*
X79590000Y-86328464D01*
X79738659Y-86298894D01*
X79864686Y-86214686D01*
X79948894Y-86088659D01*
X79978464Y-85940000D01*
X79978464Y-84240000D01*
X79948894Y-84091341D01*
X79864686Y-83965314D01*
X79738659Y-83881106D01*
X79590000Y-83851536D01*
X77890000Y-83851536D01*
X77741341Y-83881106D01*
X77615314Y-83965314D01*
X77531106Y-84091341D01*
X77501536Y-84240000D01*
X77438464Y-84240000D01*
X77408894Y-84091341D01*
X77324686Y-83965314D01*
X77198659Y-83881106D01*
X77050000Y-83851536D01*
X75350000Y-83851536D01*
X75201341Y-83881106D01*
X75075314Y-83965314D01*
X74991106Y-84091341D01*
X74961536Y-84240000D01*
X72211000Y-84240000D01*
X72211000Y-82371000D01*
X131953000Y-82371000D01*
X131953000Y-82664000D01*
X131953000Y-82664000D01*
G37*
X131953000Y-82664000D02*
X131464752Y-82664000D01*
X131409999Y-82653109D01*
X131355246Y-82664000D01*
X131355242Y-82664000D01*
X131193060Y-82696260D01*
X131009147Y-82819147D01*
X130978128Y-82865570D01*
X129185568Y-84658130D01*
X129139148Y-84689147D01*
X129108131Y-84735567D01*
X129108129Y-84735569D01*
X129016261Y-84873060D01*
X128973109Y-85090000D01*
X128984001Y-85144758D01*
X128984000Y-88669698D01*
X126769698Y-90884000D01*
X94034754Y-90884000D01*
X93980000Y-90873109D01*
X93925246Y-90884000D01*
X93925242Y-90884000D01*
X93797847Y-90909340D01*
X93763059Y-90916260D01*
X93625568Y-91008129D01*
X93625567Y-91008130D01*
X93579147Y-91039147D01*
X93548130Y-91085567D01*
X93372886Y-91260811D01*
X93287324Y-91054244D01*
X93095756Y-90862676D01*
X92845459Y-90759000D01*
X92574541Y-90759000D01*
X92324244Y-90862676D01*
X92132676Y-91054244D01*
X92029000Y-91304541D01*
X92029000Y-91334697D01*
X88794698Y-94569000D01*
X88764541Y-94569000D01*
X88514244Y-94672676D01*
X88322676Y-94864244D01*
X88219000Y-95114541D01*
X88219000Y-95385459D01*
X88322676Y-95635756D01*
X88514244Y-95827324D01*
X88764541Y-95931000D01*
X89035459Y-95931000D01*
X89285756Y-95827324D01*
X89477324Y-95635756D01*
X89535000Y-95496513D01*
X89592676Y-95635756D01*
X89784244Y-95827324D01*
X90034541Y-95931000D01*
X90305459Y-95931000D01*
X90555756Y-95827324D01*
X90747324Y-95635756D01*
X90851000Y-95385459D01*
X90851000Y-95355302D01*
X91857302Y-94349000D01*
X95101143Y-94349000D01*
X95101143Y-97661000D01*
X114448857Y-97661000D01*
X114448857Y-94349000D01*
X95101143Y-94349000D01*
X91857302Y-94349000D01*
X94210303Y-91996000D01*
X126945247Y-91996000D01*
X127000000Y-92006891D01*
X127054753Y-91996000D01*
X127054758Y-91996000D01*
X127216940Y-91963740D01*
X127400853Y-91840853D01*
X127431872Y-91794430D01*
X129894431Y-89331871D01*
X129940853Y-89300853D01*
X130063740Y-89116940D01*
X130096000Y-88954758D01*
X130096000Y-88954754D01*
X130106891Y-88900001D01*
X130096000Y-88845248D01*
X130096000Y-85320302D01*
X131640302Y-83776000D01*
X131953000Y-83776000D01*
X131953000Y-86664000D01*
X131274758Y-86664000D01*
X131220000Y-86653108D01*
X131003059Y-86696260D01*
X130865568Y-86788129D01*
X130865567Y-86788130D01*
X130819147Y-86819147D01*
X130788130Y-86865567D01*
X130704697Y-86949000D01*
X130674541Y-86949000D01*
X130424244Y-87052676D01*
X130232676Y-87244244D01*
X130129000Y-87494541D01*
X130129000Y-87765459D01*
X130232676Y-88015756D01*
X130424244Y-88207324D01*
X130674541Y-88311000D01*
X130945459Y-88311000D01*
X131195756Y-88207324D01*
X131387324Y-88015756D01*
X131486634Y-87776000D01*
X131953000Y-87776000D01*
X131953000Y-90664000D01*
X129814752Y-90664000D01*
X129759999Y-90653109D01*
X129705246Y-90664000D01*
X129705242Y-90664000D01*
X129543060Y-90696260D01*
X129359147Y-90819147D01*
X129328128Y-90865570D01*
X128164698Y-92029000D01*
X128134541Y-92029000D01*
X127884244Y-92132676D01*
X127692676Y-92324244D01*
X127589000Y-92574541D01*
X127589000Y-92845459D01*
X127692676Y-93095756D01*
X127884244Y-93287324D01*
X128134541Y-93391000D01*
X128405459Y-93391000D01*
X128655756Y-93287324D01*
X128847324Y-93095756D01*
X128951000Y-92845459D01*
X128951000Y-92815302D01*
X129990302Y-91776000D01*
X131953000Y-91776000D01*
X131953000Y-94105634D01*
X125840189Y-94118761D01*
X125730000Y-94096843D01*
X125617406Y-94119239D01*
X125616181Y-94119242D01*
X125508376Y-94140927D01*
X125288706Y-94184622D01*
X125287654Y-94185325D01*
X125286420Y-94185573D01*
X125101023Y-94310028D01*
X125009027Y-94371497D01*
X125008157Y-94372367D01*
X124912846Y-94436348D01*
X124850632Y-94529892D01*
X121451525Y-97929000D01*
X98948609Y-97929000D01*
X98618706Y-97994622D01*
X98244595Y-98244595D01*
X97994622Y-98618706D01*
X97906843Y-99060000D01*
X97994622Y-99501294D01*
X98244595Y-99875405D01*
X98618706Y-100125378D01*
X98948609Y-100191000D01*
X118388814Y-100191000D01*
X118378797Y-100201017D01*
X118199000Y-100635085D01*
X118199000Y-101104915D01*
X118378797Y-101538983D01*
X118531081Y-101691267D01*
X118431341Y-101711106D01*
X118305314Y-101795314D01*
X118221106Y-101921341D01*
X118191536Y-102070000D01*
X118191536Y-103670000D01*
X118221106Y-103818659D01*
X118305314Y-103944686D01*
X118431341Y-104028894D01*
X118580000Y-104058464D01*
X120180000Y-104058464D01*
X120328659Y-104028894D01*
X120454686Y-103944686D01*
X120538894Y-103818659D01*
X120568464Y-103670000D01*
X120568464Y-102070000D01*
X120538894Y-101921341D01*
X120454686Y-101795314D01*
X120328659Y-101711106D01*
X120228919Y-101691267D01*
X120381203Y-101538983D01*
X120561000Y-101104915D01*
X120561000Y-100635085D01*
X120381203Y-100201017D01*
X120371186Y-100191000D01*
X121808614Y-100191000D01*
X121920000Y-100213156D01*
X122031386Y-100191000D01*
X122031391Y-100191000D01*
X122361294Y-100125378D01*
X122735405Y-99875405D01*
X122798503Y-99780972D01*
X126199482Y-96379994D01*
X131953000Y-96367639D01*
X131953000Y-98664000D01*
X131214096Y-98664000D01*
X131210853Y-98659147D01*
X131026940Y-98536260D01*
X130864758Y-98504000D01*
X130864753Y-98504000D01*
X130810000Y-98493109D01*
X130755247Y-98504000D01*
X127054752Y-98504000D01*
X126999999Y-98493109D01*
X126945246Y-98504000D01*
X126945242Y-98504000D01*
X126783060Y-98536260D01*
X126599147Y-98659147D01*
X126568128Y-98705570D01*
X119149698Y-106124000D01*
X96927080Y-106124000D01*
X96905756Y-106102676D01*
X96655459Y-105999000D01*
X96384541Y-105999000D01*
X96134244Y-106102676D01*
X95942676Y-106294244D01*
X95839000Y-106544541D01*
X95839000Y-106815459D01*
X95942676Y-107065756D01*
X96134244Y-107257324D01*
X96384541Y-107361000D01*
X96655459Y-107361000D01*
X96905756Y-107257324D01*
X96927080Y-107236000D01*
X101539000Y-107236000D01*
X101539000Y-107817250D01*
X101646750Y-107925000D01*
X102845000Y-107925000D01*
X102845000Y-107905000D01*
X102895000Y-107905000D01*
X102895000Y-107925000D01*
X104093250Y-107925000D01*
X104201000Y-107817250D01*
X104201000Y-107236000D01*
X111966435Y-107236000D01*
X111823325Y-107450179D01*
X111723904Y-107950000D01*
X111823325Y-108449821D01*
X112106451Y-108873549D01*
X112530179Y-109156675D01*
X112903834Y-109231000D01*
X113156166Y-109231000D01*
X113529821Y-109156675D01*
X113953549Y-108873549D01*
X114236675Y-108449821D01*
X114336096Y-107950000D01*
X114236675Y-107450179D01*
X114093565Y-107236000D01*
X119325247Y-107236000D01*
X119380000Y-107246891D01*
X119434753Y-107236000D01*
X119434758Y-107236000D01*
X119596940Y-107203740D01*
X119780853Y-107080853D01*
X119811872Y-107034430D01*
X119933432Y-106912870D01*
X124419528Y-106912870D01*
X124608397Y-107396640D01*
X124968020Y-107771308D01*
X125443648Y-107979834D01*
X125497130Y-107990470D01*
X125705000Y-107902995D01*
X125705000Y-106705000D01*
X125755000Y-106705000D01*
X125755000Y-107902995D01*
X125962870Y-107990470D01*
X126016352Y-107979834D01*
X126491980Y-107771308D01*
X126851603Y-107396640D01*
X127040472Y-106912870D01*
X126953017Y-106705000D01*
X125755000Y-106705000D01*
X125705000Y-106705000D01*
X124506983Y-106705000D01*
X124419528Y-106912870D01*
X119933432Y-106912870D01*
X120399172Y-106447130D01*
X124419528Y-106447130D01*
X124506983Y-106655000D01*
X125705000Y-106655000D01*
X125705000Y-105457005D01*
X125755000Y-105457005D01*
X125755000Y-106655000D01*
X126953017Y-106655000D01*
X127040472Y-106447130D01*
X126851603Y-105963360D01*
X126491980Y-105588692D01*
X126016352Y-105380166D01*
X125962870Y-105369530D01*
X125755000Y-105457005D01*
X125705000Y-105457005D01*
X125497130Y-105369530D01*
X125443648Y-105380166D01*
X124968020Y-105588692D01*
X124608397Y-105963360D01*
X124419528Y-106447130D01*
X120399172Y-106447130D01*
X127230302Y-99616000D01*
X130565904Y-99616000D01*
X130569147Y-99620853D01*
X130753060Y-99743740D01*
X130915242Y-99776000D01*
X130915246Y-99776000D01*
X130969999Y-99786891D01*
X131024752Y-99776000D01*
X131953000Y-99776000D01*
X131953000Y-102664000D01*
X130191781Y-102664000D01*
X130117324Y-102484244D01*
X129925756Y-102292676D01*
X129675459Y-102189000D01*
X129404541Y-102189000D01*
X129154244Y-102292676D01*
X128962676Y-102484244D01*
X128859000Y-102734541D01*
X128859000Y-103005459D01*
X128962676Y-103255756D01*
X129154244Y-103447324D01*
X129404541Y-103551000D01*
X129434698Y-103551000D01*
X129458128Y-103574430D01*
X129489147Y-103620853D01*
X129535569Y-103651871D01*
X129673059Y-103743740D01*
X129707847Y-103750660D01*
X129835242Y-103776000D01*
X129835246Y-103776000D01*
X129890000Y-103786891D01*
X129944754Y-103776000D01*
X131953000Y-103776000D01*
X131953000Y-110664000D01*
X131770303Y-110664000D01*
X131241872Y-110135569D01*
X131210853Y-110089147D01*
X131026940Y-109966260D01*
X130864758Y-109934000D01*
X130864753Y-109934000D01*
X130810000Y-109923109D01*
X130755247Y-109934000D01*
X99245334Y-109934000D01*
X96777000Y-108082750D01*
X101539000Y-108082750D01*
X101539000Y-108935731D01*
X101604616Y-109094142D01*
X101725858Y-109215384D01*
X101884269Y-109281000D01*
X102737250Y-109281000D01*
X102845000Y-109173250D01*
X102845000Y-107975000D01*
X102895000Y-107975000D01*
X102895000Y-109173250D01*
X103002750Y-109281000D01*
X103855731Y-109281000D01*
X104014142Y-109215384D01*
X104135384Y-109094142D01*
X104201000Y-108935731D01*
X104201000Y-108082750D01*
X104093250Y-107975000D01*
X102895000Y-107975000D01*
X102845000Y-107975000D01*
X101646750Y-107975000D01*
X101539000Y-108082750D01*
X96777000Y-108082750D01*
X94631683Y-106473763D01*
X94557324Y-106294244D01*
X94536000Y-106272920D01*
X94536000Y-101654752D01*
X94546891Y-101599999D01*
X94536000Y-101545246D01*
X94536000Y-101545242D01*
X94503740Y-101383060D01*
X94380853Y-101199147D01*
X94334430Y-101168128D01*
X93141872Y-99975570D01*
X93110853Y-99929147D01*
X92926940Y-99806260D01*
X92764758Y-99774000D01*
X92764753Y-99774000D01*
X92710000Y-99763109D01*
X92655247Y-99774000D01*
X79978464Y-99774000D01*
X79978464Y-99480000D01*
X79948894Y-99331341D01*
X79864686Y-99205314D01*
X79738659Y-99121106D01*
X79590000Y-99091536D01*
X78684386Y-99091536D01*
X78754922Y-99021000D01*
X78861239Y-99021000D01*
X79220312Y-98949576D01*
X79627501Y-98677501D01*
X79631845Y-98671000D01*
X92345079Y-98671000D01*
X95835685Y-102161607D01*
X95884835Y-102235165D01*
X96051102Y-102346261D01*
X96176251Y-102429883D01*
X96520000Y-102498259D01*
X96606767Y-102481000D01*
X105045079Y-102481000D01*
X105770885Y-103206807D01*
X105756451Y-103216451D01*
X105473325Y-103640179D01*
X105410000Y-103958534D01*
X105346675Y-103640179D01*
X105063549Y-103216451D01*
X104639821Y-102933325D01*
X104266166Y-102859000D01*
X104013834Y-102859000D01*
X103640179Y-102933325D01*
X103216451Y-103216451D01*
X102933325Y-103640179D01*
X102888464Y-103865710D01*
X102888464Y-103240000D01*
X102858894Y-103091341D01*
X102774686Y-102965314D01*
X102648659Y-102881106D01*
X102500000Y-102851536D01*
X100700000Y-102851536D01*
X100551341Y-102881106D01*
X100425314Y-102965314D01*
X100341106Y-103091341D01*
X100311536Y-103240000D01*
X100311536Y-105040000D01*
X100341106Y-105188659D01*
X100425314Y-105314686D01*
X100551341Y-105398894D01*
X100700000Y-105428464D01*
X102500000Y-105428464D01*
X102648659Y-105398894D01*
X102774686Y-105314686D01*
X102858894Y-105188659D01*
X102888464Y-105040000D01*
X102888464Y-104414290D01*
X102933325Y-104639821D01*
X103216451Y-105063549D01*
X103640179Y-105346675D01*
X104013834Y-105421000D01*
X104266166Y-105421000D01*
X104639821Y-105346675D01*
X105063549Y-105063549D01*
X105346675Y-104639821D01*
X105410000Y-104321466D01*
X105473325Y-104639821D01*
X105756451Y-105063549D01*
X106180179Y-105346675D01*
X106553834Y-105421000D01*
X106806166Y-105421000D01*
X107179821Y-105346675D01*
X107603549Y-105063549D01*
X107886675Y-104639821D01*
X107986096Y-104140000D01*
X107886675Y-103640179D01*
X107603549Y-103216451D01*
X107561000Y-103188021D01*
X107561000Y-102956761D01*
X107578258Y-102869999D01*
X107561000Y-102783238D01*
X107561000Y-102783233D01*
X107509883Y-102526251D01*
X107315165Y-102234835D01*
X107241607Y-102185685D01*
X106094317Y-101038395D01*
X106045165Y-100964835D01*
X105753749Y-100770117D01*
X105496767Y-100719000D01*
X105496763Y-100719000D01*
X105410000Y-100701742D01*
X105323237Y-100719000D01*
X96884922Y-100719000D01*
X93394317Y-97228396D01*
X93345165Y-97154835D01*
X93053749Y-96960117D01*
X92796767Y-96909000D01*
X92796763Y-96909000D01*
X92710000Y-96891742D01*
X92623237Y-96909000D01*
X92014080Y-96909000D01*
X92017324Y-96905756D01*
X92121000Y-96655459D01*
X92121000Y-96384541D01*
X92017324Y-96134244D01*
X91825756Y-95942676D01*
X91575459Y-95839000D01*
X91304541Y-95839000D01*
X91054244Y-95942676D01*
X91032920Y-95964000D01*
X84050303Y-95964000D01*
X80441871Y-92355569D01*
X80410853Y-92309147D01*
X80226940Y-92186260D01*
X80064758Y-92154000D01*
X80064753Y-92154000D01*
X80010000Y-92143109D01*
X79978464Y-92149382D01*
X79978464Y-91860000D01*
X79948894Y-91711341D01*
X79864686Y-91585314D01*
X79738659Y-91501106D01*
X79590000Y-91471536D01*
X77890000Y-91471536D01*
X77741341Y-91501106D01*
X77615314Y-91585314D01*
X77531106Y-91711341D01*
X77501536Y-91860000D01*
X77501536Y-93560000D01*
X77531106Y-93708659D01*
X77615314Y-93834686D01*
X77741341Y-93918894D01*
X77890000Y-93948464D01*
X79590000Y-93948464D01*
X79738659Y-93918894D01*
X79864686Y-93834686D01*
X79948894Y-93708659D01*
X79978464Y-93560000D01*
X79978464Y-93464766D01*
X83388130Y-96874433D01*
X83411227Y-96909000D01*
X79631845Y-96909000D01*
X79627501Y-96902499D01*
X79220312Y-96630424D01*
X78861239Y-96559000D01*
X78618761Y-96559000D01*
X78259688Y-96630424D01*
X77852499Y-96902499D01*
X77580424Y-97309688D01*
X77484884Y-97790000D01*
X77486409Y-97797669D01*
X77445442Y-97838637D01*
X77455116Y-97790000D01*
X77359576Y-97309688D01*
X77087501Y-96902499D01*
X76680312Y-96630424D01*
X76321239Y-96559000D01*
X76078761Y-96559000D01*
X75719688Y-96630424D01*
X75312499Y-96902499D01*
X75040424Y-97309688D01*
X74944884Y-97790000D01*
X75040424Y-98270312D01*
X75312499Y-98677501D01*
X75719688Y-98949576D01*
X76078761Y-99021000D01*
X76263079Y-99021000D01*
X76185079Y-99099000D01*
X76078761Y-99099000D01*
X75719688Y-99170424D01*
X75312499Y-99442499D01*
X75040424Y-99849688D01*
X74944884Y-100330000D01*
X75040424Y-100810312D01*
X75312499Y-101217501D01*
X75719688Y-101489576D01*
X76078761Y-101561000D01*
X76321239Y-101561000D01*
X76680312Y-101489576D01*
X77087501Y-101217501D01*
X77359576Y-100810312D01*
X77455116Y-100330000D01*
X77453590Y-100322331D01*
X77501536Y-100274385D01*
X77501536Y-101180000D01*
X77531106Y-101328659D01*
X77615314Y-101454686D01*
X77741341Y-101538894D01*
X77890000Y-101568464D01*
X79590000Y-101568464D01*
X79738659Y-101538894D01*
X79864686Y-101454686D01*
X79948894Y-101328659D01*
X79978464Y-101180000D01*
X79978464Y-100886000D01*
X91215220Y-100886000D01*
X91054244Y-100952678D01*
X90862676Y-101144246D01*
X90759000Y-101394543D01*
X90759000Y-101665461D01*
X90862676Y-101915758D01*
X90884000Y-101937082D01*
X90884001Y-104481399D01*
X90660642Y-104630642D01*
X90421720Y-104988215D01*
X90337822Y-105410000D01*
X90421720Y-105831785D01*
X90660642Y-106189358D01*
X91018215Y-106428280D01*
X91333531Y-106491000D01*
X91546469Y-106491000D01*
X91861785Y-106428280D01*
X92219358Y-106189358D01*
X92458280Y-105831785D01*
X92542178Y-105410000D01*
X92458280Y-104988215D01*
X92219358Y-104630642D01*
X91996000Y-104481399D01*
X91996000Y-101937082D01*
X92017324Y-101915758D01*
X92121000Y-101665461D01*
X92121000Y-101394543D01*
X92017324Y-101144246D01*
X91825756Y-100952678D01*
X91664780Y-100886000D01*
X92479698Y-100886000D01*
X93424001Y-101830303D01*
X93424000Y-106272920D01*
X93402676Y-106294244D01*
X93299000Y-106544541D01*
X93299000Y-106815459D01*
X93402676Y-107065756D01*
X93594244Y-107257324D01*
X93844541Y-107361000D01*
X93961334Y-107361000D01*
X98650450Y-110877837D01*
X98659147Y-110890853D01*
X98738507Y-110943880D01*
X98770206Y-110967654D01*
X98783956Y-110974248D01*
X98843060Y-111013740D01*
X98882787Y-111021642D01*
X98919308Y-111039156D01*
X98990283Y-111043024D01*
X99005242Y-111046000D01*
X99044875Y-111046000D01*
X99140170Y-111051194D01*
X99154936Y-111046000D01*
X104493814Y-111046000D01*
X104408797Y-111131017D01*
X104229000Y-111565085D01*
X104229000Y-112034915D01*
X104408797Y-112468983D01*
X104741017Y-112801203D01*
X105175085Y-112981000D01*
X105644915Y-112981000D01*
X106078983Y-112801203D01*
X106411203Y-112468983D01*
X106591000Y-112034915D01*
X106591000Y-111565085D01*
X106411203Y-111131017D01*
X106326186Y-111046000D01*
X130579698Y-111046000D01*
X131108130Y-111574433D01*
X131139147Y-111620853D01*
X131185567Y-111651870D01*
X131185568Y-111651871D01*
X131202200Y-111662984D01*
X131323060Y-111743740D01*
X131485242Y-111776000D01*
X131485247Y-111776000D01*
X131540000Y-111786891D01*
X131594753Y-111776000D01*
X131953000Y-111776000D01*
X131953000Y-114656698D01*
X131491000Y-114194698D01*
X131491000Y-114164541D01*
X131387324Y-113914244D01*
X131195756Y-113722676D01*
X130945459Y-113619000D01*
X130674541Y-113619000D01*
X130424244Y-113722676D01*
X130232676Y-113914244D01*
X130129000Y-114164541D01*
X130129000Y-114435459D01*
X130232676Y-114685756D01*
X130424244Y-114877324D01*
X130674541Y-114981000D01*
X130704698Y-114981000D01*
X131298128Y-115574430D01*
X131329147Y-115620853D01*
X131513060Y-115743740D01*
X131675242Y-115776000D01*
X131675246Y-115776000D01*
X131729999Y-115786891D01*
X131784752Y-115776000D01*
X131953000Y-115776000D01*
X131953000Y-118664000D01*
X131024753Y-118664000D01*
X130970000Y-118653109D01*
X130915247Y-118664000D01*
X130915242Y-118664000D01*
X130753060Y-118696260D01*
X130753058Y-118696261D01*
X130753059Y-118696261D01*
X130615568Y-118788129D01*
X130615567Y-118788130D01*
X130569147Y-118819147D01*
X130538130Y-118865567D01*
X126769698Y-122634000D01*
X94034752Y-122634000D01*
X93979999Y-122623109D01*
X93925246Y-122634000D01*
X93925242Y-122634000D01*
X93763060Y-122666260D01*
X93579147Y-122789147D01*
X93548129Y-122835569D01*
X91209698Y-125174000D01*
X84227080Y-125174000D01*
X84205756Y-125152676D01*
X83955459Y-125049000D01*
X83684541Y-125049000D01*
X83434244Y-125152676D01*
X83412920Y-125174000D01*
X79849003Y-125174000D01*
X79627501Y-124842499D01*
X79220312Y-124570424D01*
X78861239Y-124499000D01*
X78618761Y-124499000D01*
X78259688Y-124570424D01*
X77852499Y-124842499D01*
X77580424Y-125249688D01*
X77484884Y-125730000D01*
X77580424Y-126210312D01*
X77852499Y-126617501D01*
X78259688Y-126889576D01*
X78618761Y-126961000D01*
X78861239Y-126961000D01*
X79220312Y-126889576D01*
X79627501Y-126617501D01*
X79849003Y-126286000D01*
X83412920Y-126286000D01*
X83434244Y-126307324D01*
X83684541Y-126411000D01*
X83955459Y-126411000D01*
X84205756Y-126307324D01*
X84227080Y-126286000D01*
X91385247Y-126286000D01*
X91440000Y-126296891D01*
X91494753Y-126286000D01*
X91494758Y-126286000D01*
X91656940Y-126253740D01*
X91840853Y-126130853D01*
X91871872Y-126084430D01*
X91941496Y-126014806D01*
X93611617Y-126014806D01*
X93845322Y-126620108D01*
X93890100Y-126687123D01*
X94132770Y-126811875D01*
X95214645Y-125730000D01*
X95285355Y-125730000D01*
X96367230Y-126811875D01*
X96609900Y-126687123D01*
X96872659Y-126093856D01*
X96881479Y-125730000D01*
X113958027Y-125730000D01*
X114080731Y-126346875D01*
X114430163Y-126869837D01*
X114439000Y-126875742D01*
X114439001Y-130934258D01*
X114430163Y-130940163D01*
X114080731Y-131463125D01*
X113958027Y-132080000D01*
X114080731Y-132696875D01*
X114430163Y-133219837D01*
X114953125Y-133569269D01*
X115414288Y-133661000D01*
X115725712Y-133661000D01*
X116186875Y-133569269D01*
X116709837Y-133219837D01*
X117059269Y-132696875D01*
X117181973Y-132080000D01*
X117059269Y-131463125D01*
X116709837Y-130940163D01*
X116701000Y-130934258D01*
X116701000Y-126875742D01*
X116709837Y-126869837D01*
X117059269Y-126346875D01*
X117181973Y-125730000D01*
X117059269Y-125113125D01*
X116709837Y-124590163D01*
X116186875Y-124240731D01*
X115725712Y-124149000D01*
X115414288Y-124149000D01*
X114953125Y-124240731D01*
X114430163Y-124590163D01*
X114080731Y-125113125D01*
X113958027Y-125730000D01*
X96881479Y-125730000D01*
X96888383Y-125445194D01*
X96654678Y-124839892D01*
X96609900Y-124772877D01*
X96367230Y-124648125D01*
X95285355Y-125730000D01*
X95214645Y-125730000D01*
X94132770Y-124648125D01*
X93890100Y-124772877D01*
X93627341Y-125366144D01*
X93611617Y-126014806D01*
X91941496Y-126014806D01*
X93343532Y-124612770D01*
X94168125Y-124612770D01*
X95250000Y-125694645D01*
X96331875Y-124612770D01*
X96207123Y-124370100D01*
X95613856Y-124107341D01*
X94965194Y-124091617D01*
X94359892Y-124325322D01*
X94292877Y-124370100D01*
X94168125Y-124612770D01*
X93343532Y-124612770D01*
X94210302Y-123746000D01*
X126945247Y-123746000D01*
X127000000Y-123756891D01*
X127054753Y-123746000D01*
X127054758Y-123746000D01*
X127216940Y-123713740D01*
X127400853Y-123590853D01*
X127431872Y-123544430D01*
X131200303Y-119776000D01*
X131953000Y-119776000D01*
X131953000Y-125273525D01*
X131530972Y-124851497D01*
X131251294Y-124664623D01*
X130810000Y-124576844D01*
X130368706Y-124664623D01*
X129994595Y-124914595D01*
X129744623Y-125288706D01*
X129656844Y-125730000D01*
X129744623Y-126171294D01*
X129907552Y-126415136D01*
X129675459Y-126319000D01*
X129404541Y-126319000D01*
X129154244Y-126422676D01*
X128962676Y-126614244D01*
X128859000Y-126864541D01*
X128859000Y-127135459D01*
X128962676Y-127385756D01*
X128984001Y-127407081D01*
X128984000Y-133295247D01*
X128973109Y-133350000D01*
X128984000Y-133404753D01*
X128984000Y-133404757D01*
X129016260Y-133566939D01*
X129139147Y-133750853D01*
X129185570Y-133781872D01*
X130978128Y-135574430D01*
X131009147Y-135620853D01*
X131193060Y-135743740D01*
X131355242Y-135776000D01*
X131355246Y-135776000D01*
X131409999Y-135786891D01*
X131464752Y-135776000D01*
X131953000Y-135776000D01*
X131953000Y-136069000D01*
X72211000Y-136069000D01*
X72211000Y-133350000D01*
X74944884Y-133350000D01*
X75040424Y-133830312D01*
X75312499Y-134237501D01*
X75719688Y-134509576D01*
X76078761Y-134581000D01*
X76321239Y-134581000D01*
X76680312Y-134509576D01*
X77087501Y-134237501D01*
X77359576Y-133830312D01*
X77455116Y-133350000D01*
X77484884Y-133350000D01*
X77580424Y-133830312D01*
X77852499Y-134237501D01*
X78259688Y-134509576D01*
X78618761Y-134581000D01*
X78861239Y-134581000D01*
X79220312Y-134509576D01*
X79627501Y-134237501D01*
X79899576Y-133830312D01*
X79995116Y-133350000D01*
X79964729Y-133197230D01*
X94168125Y-133197230D01*
X94292877Y-133439900D01*
X94886144Y-133702659D01*
X95534806Y-133718383D01*
X96140108Y-133484678D01*
X96207123Y-133439900D01*
X96331875Y-133197230D01*
X95250000Y-132115355D01*
X94168125Y-133197230D01*
X79964729Y-133197230D01*
X79899576Y-132869688D01*
X79627501Y-132462499D01*
X79481294Y-132364806D01*
X93611617Y-132364806D01*
X93845322Y-132970108D01*
X93890100Y-133037123D01*
X94132770Y-133161875D01*
X95214645Y-132080000D01*
X95285355Y-132080000D01*
X96367230Y-133161875D01*
X96609900Y-133037123D01*
X96872659Y-132443856D01*
X96888383Y-131795194D01*
X96654678Y-131189892D01*
X96609900Y-131122877D01*
X96367230Y-130998125D01*
X95285355Y-132080000D01*
X95214645Y-132080000D01*
X94132770Y-130998125D01*
X93890100Y-131122877D01*
X93627341Y-131716144D01*
X93611617Y-132364806D01*
X79481294Y-132364806D01*
X79220312Y-132190424D01*
X78861239Y-132119000D01*
X78618761Y-132119000D01*
X78259688Y-132190424D01*
X77852499Y-132462499D01*
X77580424Y-132869688D01*
X77484884Y-133350000D01*
X77455116Y-133350000D01*
X77359576Y-132869688D01*
X77087501Y-132462499D01*
X76680312Y-132190424D01*
X76321239Y-132119000D01*
X76078761Y-132119000D01*
X75719688Y-132190424D01*
X75312499Y-132462499D01*
X75040424Y-132869688D01*
X74944884Y-133350000D01*
X72211000Y-133350000D01*
X72211000Y-130810000D01*
X74944884Y-130810000D01*
X75040424Y-131290312D01*
X75312499Y-131697501D01*
X75719688Y-131969576D01*
X76078761Y-132041000D01*
X76321239Y-132041000D01*
X76680312Y-131969576D01*
X77087501Y-131697501D01*
X77359576Y-131290312D01*
X77455116Y-130810000D01*
X77484884Y-130810000D01*
X77580424Y-131290312D01*
X77852499Y-131697501D01*
X78259688Y-131969576D01*
X78618761Y-132041000D01*
X78861239Y-132041000D01*
X79220312Y-131969576D01*
X79627501Y-131697501D01*
X79899576Y-131290312D01*
X79964728Y-130962770D01*
X94168125Y-130962770D01*
X95250000Y-132044645D01*
X96331875Y-130962770D01*
X96207123Y-130720100D01*
X95613856Y-130457341D01*
X94965194Y-130441617D01*
X94359892Y-130675322D01*
X94292877Y-130720100D01*
X94168125Y-130962770D01*
X79964728Y-130962770D01*
X79995116Y-130810000D01*
X79899576Y-130329688D01*
X79627501Y-129922499D01*
X79220312Y-129650424D01*
X78861239Y-129579000D01*
X78618761Y-129579000D01*
X78259688Y-129650424D01*
X77852499Y-129922499D01*
X77580424Y-130329688D01*
X77484884Y-130810000D01*
X77455116Y-130810000D01*
X77359576Y-130329688D01*
X77087501Y-129922499D01*
X76680312Y-129650424D01*
X76321239Y-129579000D01*
X76078761Y-129579000D01*
X75719688Y-129650424D01*
X75312499Y-129922499D01*
X75040424Y-130329688D01*
X74944884Y-130810000D01*
X72211000Y-130810000D01*
X72211000Y-128495047D01*
X74938923Y-128495047D01*
X74948794Y-128544678D01*
X75149151Y-129002585D01*
X75509490Y-129348963D01*
X75974953Y-129531079D01*
X76175000Y-129443008D01*
X76175000Y-128295000D01*
X76225000Y-128295000D01*
X76225000Y-129443008D01*
X76425047Y-129531079D01*
X76890510Y-129348963D01*
X77250849Y-129002585D01*
X77451206Y-128544678D01*
X77461077Y-128495047D01*
X77372984Y-128295000D01*
X76225000Y-128295000D01*
X76175000Y-128295000D01*
X75027016Y-128295000D01*
X74938923Y-128495047D01*
X72211000Y-128495047D01*
X72211000Y-128270000D01*
X77484884Y-128270000D01*
X77580424Y-128750312D01*
X77852499Y-129157501D01*
X78259688Y-129429576D01*
X78618761Y-129501000D01*
X78861239Y-129501000D01*
X79220312Y-129429576D01*
X79627501Y-129157501D01*
X79849003Y-128826000D01*
X85035247Y-128826000D01*
X85090000Y-128836891D01*
X85144753Y-128826000D01*
X85144758Y-128826000D01*
X85306940Y-128793740D01*
X85490853Y-128670853D01*
X85521872Y-128624430D01*
X86590302Y-127556000D01*
X92479698Y-127556000D01*
X93548128Y-128624430D01*
X93579147Y-128670853D01*
X93763060Y-128793740D01*
X93925242Y-128826000D01*
X93925246Y-128826000D01*
X93979999Y-128836891D01*
X94034752Y-128826000D01*
X103732920Y-128826000D01*
X103754244Y-128847324D01*
X104004541Y-128951000D01*
X104275459Y-128951000D01*
X104525756Y-128847324D01*
X104717324Y-128655756D01*
X104821000Y-128405459D01*
X104821000Y-128134541D01*
X104717324Y-127884244D01*
X104525756Y-127692676D01*
X104275459Y-127589000D01*
X104004541Y-127589000D01*
X103754244Y-127692676D01*
X103732920Y-127714000D01*
X94210302Y-127714000D01*
X93343532Y-126847230D01*
X94168125Y-126847230D01*
X94292877Y-127089900D01*
X94886144Y-127352659D01*
X95534806Y-127368383D01*
X96140108Y-127134678D01*
X96207123Y-127089900D01*
X96331875Y-126847230D01*
X95250000Y-125765355D01*
X94168125Y-126847230D01*
X93343532Y-126847230D01*
X93141872Y-126645570D01*
X93110853Y-126599147D01*
X92926940Y-126476260D01*
X92764758Y-126444000D01*
X92764753Y-126444000D01*
X92710000Y-126433109D01*
X92655247Y-126444000D01*
X86414752Y-126444000D01*
X86359999Y-126433109D01*
X86305246Y-126444000D01*
X86305242Y-126444000D01*
X86143060Y-126476260D01*
X85959147Y-126599147D01*
X85928128Y-126645570D01*
X84859698Y-127714000D01*
X79849003Y-127714000D01*
X79627501Y-127382499D01*
X79220312Y-127110424D01*
X78861239Y-127039000D01*
X78618761Y-127039000D01*
X78259688Y-127110424D01*
X77852499Y-127382499D01*
X77580424Y-127789688D01*
X77484884Y-128270000D01*
X72211000Y-128270000D01*
X72211000Y-128044953D01*
X74938923Y-128044953D01*
X75027016Y-128245000D01*
X76175000Y-128245000D01*
X76175000Y-127096992D01*
X76225000Y-127096992D01*
X76225000Y-128245000D01*
X77372984Y-128245000D01*
X77461077Y-128044953D01*
X77451206Y-127995322D01*
X77250849Y-127537415D01*
X76890510Y-127191037D01*
X76425047Y-127008921D01*
X76225000Y-127096992D01*
X76175000Y-127096992D01*
X75974953Y-127008921D01*
X75509490Y-127191037D01*
X75149151Y-127537415D01*
X74948794Y-127995322D01*
X74938923Y-128044953D01*
X72211000Y-128044953D01*
X72211000Y-110354541D01*
X72979000Y-110354541D01*
X72979000Y-110625459D01*
X73082676Y-110875756D01*
X73104001Y-110897081D01*
X73104000Y-124405247D01*
X73093109Y-124460000D01*
X73104000Y-124514753D01*
X73104000Y-124514757D01*
X73136260Y-124676939D01*
X73259147Y-124860853D01*
X73305570Y-124891872D01*
X74498128Y-126084430D01*
X74529147Y-126130853D01*
X74713060Y-126253740D01*
X74875242Y-126286000D01*
X74875246Y-126286000D01*
X74929999Y-126296891D01*
X74961536Y-126290618D01*
X74961536Y-126580000D01*
X74991106Y-126728659D01*
X75075314Y-126854686D01*
X75201341Y-126938894D01*
X75350000Y-126968464D01*
X77050000Y-126968464D01*
X77198659Y-126938894D01*
X77324686Y-126854686D01*
X77408894Y-126728659D01*
X77438464Y-126580000D01*
X77438464Y-124880000D01*
X77408894Y-124731341D01*
X77324686Y-124605314D01*
X77198659Y-124521106D01*
X77050000Y-124491536D01*
X75350000Y-124491536D01*
X75201341Y-124521106D01*
X75075314Y-124605314D01*
X74991106Y-124731341D01*
X74961536Y-124880000D01*
X74961536Y-124975234D01*
X74216000Y-124229698D01*
X74216000Y-123415047D01*
X74938923Y-123415047D01*
X74948794Y-123464678D01*
X75149151Y-123922585D01*
X75509490Y-124268963D01*
X75974953Y-124451079D01*
X76175000Y-124363008D01*
X76175000Y-123215000D01*
X76225000Y-123215000D01*
X76225000Y-124363008D01*
X76425047Y-124451079D01*
X76890510Y-124268963D01*
X77250849Y-123922585D01*
X77451206Y-123464678D01*
X77461077Y-123415047D01*
X77478923Y-123415047D01*
X77488794Y-123464678D01*
X77689151Y-123922585D01*
X78049490Y-124268963D01*
X78514953Y-124451079D01*
X78715000Y-124363008D01*
X78715000Y-123215000D01*
X78765000Y-123215000D01*
X78765000Y-124363008D01*
X78965047Y-124451079D01*
X79430510Y-124268963D01*
X79790849Y-123922585D01*
X79991206Y-123464678D01*
X80001077Y-123415047D01*
X79912984Y-123215000D01*
X78765000Y-123215000D01*
X78715000Y-123215000D01*
X77567016Y-123215000D01*
X77478923Y-123415047D01*
X77461077Y-123415047D01*
X77372984Y-123215000D01*
X76225000Y-123215000D01*
X76175000Y-123215000D01*
X75027016Y-123215000D01*
X74938923Y-123415047D01*
X74216000Y-123415047D01*
X74216000Y-122964953D01*
X74938923Y-122964953D01*
X75027016Y-123165000D01*
X76175000Y-123165000D01*
X76175000Y-122016992D01*
X76225000Y-122016992D01*
X76225000Y-123165000D01*
X77372984Y-123165000D01*
X77461077Y-122964953D01*
X77478923Y-122964953D01*
X77567016Y-123165000D01*
X78715000Y-123165000D01*
X78715000Y-122016992D01*
X78765000Y-122016992D01*
X78765000Y-123165000D01*
X79912984Y-123165000D01*
X80001077Y-122964953D01*
X79991206Y-122915322D01*
X79790849Y-122457415D01*
X79430510Y-122111037D01*
X78965047Y-121928921D01*
X78765000Y-122016992D01*
X78715000Y-122016992D01*
X78514953Y-121928921D01*
X78049490Y-122111037D01*
X77689151Y-122457415D01*
X77488794Y-122915322D01*
X77478923Y-122964953D01*
X77461077Y-122964953D01*
X77451206Y-122915322D01*
X77250849Y-122457415D01*
X76890510Y-122111037D01*
X76425047Y-121928921D01*
X76225000Y-122016992D01*
X76175000Y-122016992D01*
X75974953Y-121928921D01*
X75509490Y-122111037D01*
X75149151Y-122457415D01*
X74948794Y-122915322D01*
X74938923Y-122964953D01*
X74216000Y-122964953D01*
X74216000Y-119800000D01*
X74961536Y-119800000D01*
X74961536Y-121500000D01*
X74991106Y-121648659D01*
X75075314Y-121774686D01*
X75201341Y-121858894D01*
X75350000Y-121888464D01*
X77050000Y-121888464D01*
X77198659Y-121858894D01*
X77324686Y-121774686D01*
X77408894Y-121648659D01*
X77438464Y-121500000D01*
X77438464Y-120650000D01*
X77484884Y-120650000D01*
X77580424Y-121130312D01*
X77852499Y-121537501D01*
X78259688Y-121809576D01*
X78618761Y-121881000D01*
X78861239Y-121881000D01*
X79220312Y-121809576D01*
X79627501Y-121537501D01*
X79899576Y-121130312D01*
X79995116Y-120650000D01*
X79899576Y-120169688D01*
X79627501Y-119762499D01*
X79220312Y-119490424D01*
X78861239Y-119419000D01*
X78618761Y-119419000D01*
X78259688Y-119490424D01*
X77852499Y-119762499D01*
X77580424Y-120169688D01*
X77484884Y-120650000D01*
X77438464Y-120650000D01*
X77438464Y-119800000D01*
X77408894Y-119651341D01*
X77324686Y-119525314D01*
X77198659Y-119441106D01*
X77050000Y-119411536D01*
X75350000Y-119411536D01*
X75201341Y-119441106D01*
X75075314Y-119525314D01*
X74991106Y-119651341D01*
X74961536Y-119800000D01*
X74216000Y-119800000D01*
X74216000Y-118335047D01*
X74938921Y-118335047D01*
X75121037Y-118800510D01*
X75467415Y-119160849D01*
X75925322Y-119361206D01*
X75974953Y-119371077D01*
X76175000Y-119282984D01*
X76175000Y-118135000D01*
X76225000Y-118135000D01*
X76225000Y-119282984D01*
X76425047Y-119371077D01*
X76474678Y-119361206D01*
X76932585Y-119160849D01*
X77278963Y-118800510D01*
X77461079Y-118335047D01*
X77373008Y-118135000D01*
X76225000Y-118135000D01*
X76175000Y-118135000D01*
X75026992Y-118135000D01*
X74938921Y-118335047D01*
X74216000Y-118335047D01*
X74216000Y-117884953D01*
X74938921Y-117884953D01*
X75026992Y-118085000D01*
X76175000Y-118085000D01*
X76175000Y-116937016D01*
X76225000Y-116937016D01*
X76225000Y-118085000D01*
X77373008Y-118085000D01*
X77461079Y-117884953D01*
X77278963Y-117419490D01*
X77125653Y-117260000D01*
X77501536Y-117260000D01*
X77501536Y-118960000D01*
X77531106Y-119108659D01*
X77615314Y-119234686D01*
X77741341Y-119318894D01*
X77890000Y-119348464D01*
X79590000Y-119348464D01*
X79738659Y-119318894D01*
X79864686Y-119234686D01*
X79948894Y-119108659D01*
X79978464Y-118960000D01*
X79978464Y-118666000D01*
X82880237Y-118666000D01*
X82903572Y-118722337D01*
X83207663Y-119026428D01*
X83604976Y-119191000D01*
X84035024Y-119191000D01*
X84432337Y-119026428D01*
X84736428Y-118722337D01*
X84901000Y-118325024D01*
X84901000Y-118110000D01*
X90337822Y-118110000D01*
X90421720Y-118531785D01*
X90660642Y-118889358D01*
X91018215Y-119128280D01*
X91333531Y-119191000D01*
X91546469Y-119191000D01*
X91861785Y-119128280D01*
X92219358Y-118889358D01*
X92458280Y-118531785D01*
X92468580Y-118480000D01*
X104121536Y-118480000D01*
X104121536Y-120280000D01*
X104151106Y-120428659D01*
X104235314Y-120554686D01*
X104361341Y-120638894D01*
X104510000Y-120668464D01*
X106310000Y-120668464D01*
X106458659Y-120638894D01*
X106584686Y-120554686D01*
X106668894Y-120428659D01*
X106698464Y-120280000D01*
X106698464Y-118480000D01*
X106668894Y-118331341D01*
X106584686Y-118205314D01*
X106458659Y-118121106D01*
X106310000Y-118091536D01*
X104510000Y-118091536D01*
X104361341Y-118121106D01*
X104235314Y-118205314D01*
X104151106Y-118331341D01*
X104121536Y-118480000D01*
X92468580Y-118480000D01*
X92542178Y-118110000D01*
X92458280Y-117688215D01*
X92219358Y-117330642D01*
X91861785Y-117091720D01*
X91546469Y-117029000D01*
X91333531Y-117029000D01*
X91018215Y-117091720D01*
X90660642Y-117330642D01*
X90421720Y-117688215D01*
X90337822Y-118110000D01*
X84901000Y-118110000D01*
X84901000Y-117894976D01*
X84736428Y-117497663D01*
X84432337Y-117193572D01*
X84035024Y-117029000D01*
X83604976Y-117029000D01*
X83207663Y-117193572D01*
X82903572Y-117497663D01*
X82880237Y-117554000D01*
X79978464Y-117554000D01*
X79978464Y-117260000D01*
X79948894Y-117111341D01*
X79864686Y-116985314D01*
X79738659Y-116901106D01*
X79590000Y-116871536D01*
X77890000Y-116871536D01*
X77741341Y-116901106D01*
X77615314Y-116985314D01*
X77531106Y-117111341D01*
X77501536Y-117260000D01*
X77125653Y-117260000D01*
X76932585Y-117059151D01*
X76474678Y-116858794D01*
X76425047Y-116848923D01*
X76225000Y-116937016D01*
X76175000Y-116937016D01*
X75974953Y-116848923D01*
X75925322Y-116858794D01*
X75467415Y-117059151D01*
X75121037Y-117419490D01*
X74938921Y-117884953D01*
X74216000Y-117884953D01*
X74216000Y-113030000D01*
X74944884Y-113030000D01*
X75040424Y-113510312D01*
X75312499Y-113917501D01*
X75719688Y-114189576D01*
X76078761Y-114261000D01*
X76321239Y-114261000D01*
X76680312Y-114189576D01*
X77023298Y-113960400D01*
X76591033Y-114392665D01*
X76321239Y-114339000D01*
X76078761Y-114339000D01*
X75719688Y-114410424D01*
X75312499Y-114682499D01*
X75040424Y-115089688D01*
X74944884Y-115570000D01*
X75040424Y-116050312D01*
X75312499Y-116457501D01*
X75719688Y-116729576D01*
X76078761Y-116801000D01*
X76321239Y-116801000D01*
X76680312Y-116729576D01*
X77087501Y-116457501D01*
X77359576Y-116050312D01*
X77455116Y-115570000D01*
X77377335Y-115178967D01*
X77501536Y-115054766D01*
X77501536Y-116420000D01*
X77531106Y-116568659D01*
X77615314Y-116694686D01*
X77741341Y-116778894D01*
X77890000Y-116808464D01*
X79590000Y-116808464D01*
X79738659Y-116778894D01*
X79855236Y-116701000D01*
X93511525Y-116701000D01*
X94371497Y-117560972D01*
X94434595Y-117655405D01*
X94808706Y-117905378D01*
X95138609Y-117971000D01*
X95138613Y-117971000D01*
X95249999Y-117993156D01*
X95361385Y-117971000D01*
X112561525Y-117971000D01*
X114336751Y-119746226D01*
X114363325Y-119879821D01*
X114646451Y-120303549D01*
X115070179Y-120586675D01*
X115443834Y-120661000D01*
X115696166Y-120661000D01*
X116069821Y-120586675D01*
X116493549Y-120303549D01*
X116776675Y-119879821D01*
X116876096Y-119380000D01*
X116776675Y-118880179D01*
X116493549Y-118456451D01*
X116069821Y-118173325D01*
X115936226Y-118146751D01*
X113908502Y-116119027D01*
X113845405Y-116024595D01*
X113718800Y-115940000D01*
X124441536Y-115940000D01*
X124441536Y-117740000D01*
X124471106Y-117888659D01*
X124555314Y-118014686D01*
X124681341Y-118098894D01*
X124830000Y-118128464D01*
X126630000Y-118128464D01*
X126778659Y-118098894D01*
X126904686Y-118014686D01*
X126988894Y-117888659D01*
X127018464Y-117740000D01*
X127018464Y-115940000D01*
X126988894Y-115791341D01*
X126904686Y-115665314D01*
X126778659Y-115581106D01*
X126630000Y-115551536D01*
X124830000Y-115551536D01*
X124681341Y-115581106D01*
X124555314Y-115665314D01*
X124471106Y-115791341D01*
X124441536Y-115940000D01*
X113718800Y-115940000D01*
X113471294Y-115774622D01*
X113141391Y-115709000D01*
X113141386Y-115709000D01*
X113030000Y-115686844D01*
X112918614Y-115709000D01*
X95718475Y-115709000D01*
X94858503Y-114849028D01*
X94795405Y-114754595D01*
X94421294Y-114504622D01*
X94091391Y-114439000D01*
X94091386Y-114439000D01*
X93980000Y-114416844D01*
X93868614Y-114439000D01*
X83197302Y-114439000D01*
X83556531Y-114079771D01*
X83713531Y-114111000D01*
X83926469Y-114111000D01*
X84241785Y-114048280D01*
X84599358Y-113809358D01*
X84614510Y-113786681D01*
X90718674Y-113786681D01*
X90782575Y-113977399D01*
X91195173Y-114156868D01*
X91645043Y-114164782D01*
X91898239Y-114065085D01*
X104229000Y-114065085D01*
X104229000Y-114534915D01*
X104408797Y-114968983D01*
X104741017Y-115301203D01*
X105175085Y-115481000D01*
X105644915Y-115481000D01*
X106078983Y-115301203D01*
X106411203Y-114968983D01*
X106591000Y-114534915D01*
X106591000Y-114065085D01*
X106411203Y-113631017D01*
X106280186Y-113500000D01*
X110571536Y-113500000D01*
X110571536Y-115100000D01*
X110601106Y-115248659D01*
X110685314Y-115374686D01*
X110811341Y-115458894D01*
X110960000Y-115488464D01*
X112560000Y-115488464D01*
X112708659Y-115458894D01*
X112834686Y-115374686D01*
X112918894Y-115248659D01*
X112948464Y-115100000D01*
X112948464Y-113500000D01*
X118191536Y-113500000D01*
X118191536Y-115100000D01*
X118221106Y-115248659D01*
X118305314Y-115374686D01*
X118431341Y-115458894D01*
X118580000Y-115488464D01*
X120180000Y-115488464D01*
X120328659Y-115458894D01*
X120454686Y-115374686D01*
X120538894Y-115248659D01*
X120568464Y-115100000D01*
X120568464Y-113500000D01*
X120538894Y-113351341D01*
X120454686Y-113225314D01*
X120328659Y-113141106D01*
X120228919Y-113121267D01*
X120381203Y-112968983D01*
X120561000Y-112534915D01*
X120561000Y-112065085D01*
X120381203Y-111631017D01*
X120048983Y-111298797D01*
X119614915Y-111119000D01*
X119145085Y-111119000D01*
X118711017Y-111298797D01*
X118378797Y-111631017D01*
X118199000Y-112065085D01*
X118199000Y-112534915D01*
X118378797Y-112968983D01*
X118531081Y-113121267D01*
X118431341Y-113141106D01*
X118305314Y-113225314D01*
X118221106Y-113351341D01*
X118191536Y-113500000D01*
X112948464Y-113500000D01*
X112918894Y-113351341D01*
X112834686Y-113225314D01*
X112708659Y-113141106D01*
X112608919Y-113121267D01*
X112761203Y-112968983D01*
X112941000Y-112534915D01*
X112941000Y-112065085D01*
X112761203Y-111631017D01*
X112428983Y-111298797D01*
X111994915Y-111119000D01*
X111525085Y-111119000D01*
X111091017Y-111298797D01*
X110758797Y-111631017D01*
X110579000Y-112065085D01*
X110579000Y-112534915D01*
X110758797Y-112968983D01*
X110911081Y-113121267D01*
X110811341Y-113141106D01*
X110685314Y-113225314D01*
X110601106Y-113351341D01*
X110571536Y-113500000D01*
X106280186Y-113500000D01*
X106078983Y-113298797D01*
X105644915Y-113119000D01*
X105175085Y-113119000D01*
X104741017Y-113298797D01*
X104408797Y-113631017D01*
X104229000Y-114065085D01*
X91898239Y-114065085D01*
X92063696Y-113999936D01*
X92097425Y-113977399D01*
X92161326Y-113786681D01*
X91440000Y-113065355D01*
X90718674Y-113786681D01*
X84614510Y-113786681D01*
X84838280Y-113451785D01*
X84922178Y-113030000D01*
X84838280Y-112608215D01*
X84599358Y-112250642D01*
X84241785Y-112011720D01*
X83926469Y-111949000D01*
X83713531Y-111949000D01*
X83398215Y-112011720D01*
X83040642Y-112250642D01*
X82801720Y-112608215D01*
X82717822Y-113030000D01*
X82770229Y-113293469D01*
X82319698Y-113744000D01*
X79978464Y-113744000D01*
X79978464Y-113590618D01*
X80010000Y-113596891D01*
X80064753Y-113586000D01*
X80064758Y-113586000D01*
X80226940Y-113553740D01*
X80410853Y-113430853D01*
X80441872Y-113384430D01*
X82780302Y-111046000D01*
X82891399Y-111046000D01*
X83040642Y-111269358D01*
X83398215Y-111508280D01*
X83713531Y-111571000D01*
X83926469Y-111571000D01*
X84241785Y-111508280D01*
X84599358Y-111269358D01*
X84838280Y-110911785D01*
X84922178Y-110490000D01*
X84838280Y-110068215D01*
X84599358Y-109710642D01*
X84241785Y-109471720D01*
X83926469Y-109409000D01*
X83713531Y-109409000D01*
X83398215Y-109471720D01*
X83040642Y-109710642D01*
X82891399Y-109934000D01*
X82604752Y-109934000D01*
X82549999Y-109923109D01*
X82495246Y-109934000D01*
X82495242Y-109934000D01*
X82333060Y-109966260D01*
X82149147Y-110089147D01*
X82118129Y-110135569D01*
X79978464Y-112275234D01*
X79978464Y-112180000D01*
X79948894Y-112031341D01*
X79864686Y-111905314D01*
X79738659Y-111821106D01*
X79590000Y-111791536D01*
X77890000Y-111791536D01*
X77741341Y-111821106D01*
X77615314Y-111905314D01*
X77531106Y-112031341D01*
X77501536Y-112180000D01*
X77501536Y-113739382D01*
X77469999Y-113733109D01*
X77415246Y-113744000D01*
X77415242Y-113744000D01*
X77253060Y-113776260D01*
X77124460Y-113862188D01*
X77359576Y-113510312D01*
X77455116Y-113030000D01*
X77359576Y-112549688D01*
X77087501Y-112142499D01*
X76680312Y-111870424D01*
X76321239Y-111799000D01*
X76078761Y-111799000D01*
X75719688Y-111870424D01*
X75312499Y-112142499D01*
X75040424Y-112549688D01*
X74944884Y-113030000D01*
X74216000Y-113030000D01*
X74216000Y-110897080D01*
X74237324Y-110875756D01*
X74303891Y-110715047D01*
X74938921Y-110715047D01*
X75121037Y-111180510D01*
X75467415Y-111540849D01*
X75925322Y-111741206D01*
X75974953Y-111751077D01*
X76175000Y-111662984D01*
X76175000Y-110515000D01*
X76225000Y-110515000D01*
X76225000Y-111662984D01*
X76425047Y-111751077D01*
X76474678Y-111741206D01*
X76932585Y-111540849D01*
X77278963Y-111180510D01*
X77461079Y-110715047D01*
X77373008Y-110515000D01*
X76225000Y-110515000D01*
X76175000Y-110515000D01*
X75026992Y-110515000D01*
X74938921Y-110715047D01*
X74303891Y-110715047D01*
X74341000Y-110625459D01*
X74341000Y-110354541D01*
X74237324Y-110104244D01*
X74045756Y-109912676D01*
X73795459Y-109809000D01*
X73524541Y-109809000D01*
X73274244Y-109912676D01*
X73082676Y-110104244D01*
X72979000Y-110354541D01*
X72211000Y-110354541D01*
X72211000Y-93980000D01*
X73093109Y-93980000D01*
X73104000Y-94034753D01*
X73104001Y-107895242D01*
X73093109Y-107950000D01*
X73136261Y-108166940D01*
X73228129Y-108304431D01*
X73228130Y-108304432D01*
X73259148Y-108350853D01*
X73305568Y-108381870D01*
X74498128Y-109574430D01*
X74529147Y-109620853D01*
X74713060Y-109743740D01*
X74875242Y-109776000D01*
X74875246Y-109776000D01*
X74929999Y-109786891D01*
X74984752Y-109776000D01*
X75143617Y-109776000D01*
X75121037Y-109799490D01*
X74938921Y-110264953D01*
X75026992Y-110465000D01*
X76175000Y-110465000D01*
X76175000Y-110445000D01*
X76225000Y-110445000D01*
X76225000Y-110465000D01*
X77373008Y-110465000D01*
X77461079Y-110264953D01*
X77289102Y-109825404D01*
X77501536Y-110037838D01*
X77501536Y-111340000D01*
X77531106Y-111488659D01*
X77615314Y-111614686D01*
X77741341Y-111698894D01*
X77890000Y-111728464D01*
X79590000Y-111728464D01*
X79738659Y-111698894D01*
X79864686Y-111614686D01*
X79948894Y-111488659D01*
X79978464Y-111340000D01*
X79978464Y-111050618D01*
X80010000Y-111056891D01*
X80064753Y-111046000D01*
X80064758Y-111046000D01*
X80226940Y-111013740D01*
X80410853Y-110890853D01*
X80441872Y-110844430D01*
X82780302Y-108506000D01*
X82880237Y-108506000D01*
X82903572Y-108562337D01*
X83207663Y-108866428D01*
X83604976Y-109031000D01*
X84035024Y-109031000D01*
X84432337Y-108866428D01*
X84736428Y-108562337D01*
X84901000Y-108165024D01*
X84901000Y-107734976D01*
X84736428Y-107337663D01*
X84432337Y-107033572D01*
X84035024Y-106869000D01*
X83604976Y-106869000D01*
X83207663Y-107033572D01*
X82903572Y-107337663D01*
X82880237Y-107394000D01*
X82604752Y-107394000D01*
X82549999Y-107383109D01*
X82495246Y-107394000D01*
X82495242Y-107394000D01*
X82333060Y-107426260D01*
X82149147Y-107549147D01*
X82118129Y-107595569D01*
X79978464Y-109735234D01*
X79978464Y-109640000D01*
X79948894Y-109491341D01*
X79864686Y-109365314D01*
X79738659Y-109281106D01*
X79590000Y-109251536D01*
X78287838Y-109251536D01*
X78224766Y-109188464D01*
X79590000Y-109188464D01*
X79738659Y-109158894D01*
X79864686Y-109074686D01*
X79948894Y-108948659D01*
X79978464Y-108800000D01*
X79978464Y-108510618D01*
X80010000Y-108516891D01*
X80064753Y-108506000D01*
X80064758Y-108506000D01*
X80226940Y-108473740D01*
X80410853Y-108350853D01*
X80441872Y-108304430D01*
X82780302Y-105966000D01*
X82880237Y-105966000D01*
X82903572Y-106022337D01*
X83207663Y-106326428D01*
X83604976Y-106491000D01*
X84035024Y-106491000D01*
X84432337Y-106326428D01*
X84736428Y-106022337D01*
X84901000Y-105625024D01*
X84901000Y-105194976D01*
X84736428Y-104797663D01*
X84432337Y-104493572D01*
X84035024Y-104329000D01*
X83604976Y-104329000D01*
X83207663Y-104493572D01*
X82903572Y-104797663D01*
X82880237Y-104854000D01*
X82604752Y-104854000D01*
X82549999Y-104843109D01*
X82495246Y-104854000D01*
X82495242Y-104854000D01*
X82333060Y-104886260D01*
X82149147Y-105009147D01*
X82118129Y-105055569D01*
X79978464Y-107195234D01*
X79978464Y-107100000D01*
X79948894Y-106951341D01*
X79864686Y-106825314D01*
X79738659Y-106741106D01*
X79590000Y-106711536D01*
X77890000Y-106711536D01*
X77741341Y-106741106D01*
X77615314Y-106825314D01*
X77531106Y-106951341D01*
X77501536Y-107100000D01*
X77501536Y-108659382D01*
X77470000Y-108653109D01*
X77415247Y-108664000D01*
X77256383Y-108664000D01*
X77278963Y-108640510D01*
X77461079Y-108175047D01*
X77373008Y-107975000D01*
X76225000Y-107975000D01*
X76225000Y-107995000D01*
X76175000Y-107995000D01*
X76175000Y-107975000D01*
X75026992Y-107975000D01*
X74938921Y-108175047D01*
X75110898Y-108614596D01*
X74221255Y-107724953D01*
X74938921Y-107724953D01*
X75026992Y-107925000D01*
X76175000Y-107925000D01*
X76175000Y-106777016D01*
X76225000Y-106777016D01*
X76225000Y-107925000D01*
X77373008Y-107925000D01*
X77461079Y-107724953D01*
X77278963Y-107259490D01*
X76932585Y-106899151D01*
X76474678Y-106698794D01*
X76425047Y-106688923D01*
X76225000Y-106777016D01*
X76175000Y-106777016D01*
X75974953Y-106688923D01*
X75925322Y-106698794D01*
X75467415Y-106899151D01*
X75121037Y-107259490D01*
X74938921Y-107724953D01*
X74221255Y-107724953D01*
X74216000Y-107719698D01*
X74216000Y-105410000D01*
X74944884Y-105410000D01*
X75040424Y-105890312D01*
X75312499Y-106297501D01*
X75719688Y-106569576D01*
X76078761Y-106641000D01*
X76321239Y-106641000D01*
X76680312Y-106569576D01*
X77087501Y-106297501D01*
X77359576Y-105890312D01*
X77455116Y-105410000D01*
X77359576Y-104929688D01*
X77112559Y-104560000D01*
X77501536Y-104560000D01*
X77501536Y-106260000D01*
X77531106Y-106408659D01*
X77615314Y-106534686D01*
X77741341Y-106618894D01*
X77890000Y-106648464D01*
X79590000Y-106648464D01*
X79738659Y-106618894D01*
X79864686Y-106534686D01*
X79948894Y-106408659D01*
X79978464Y-106260000D01*
X79978464Y-105970618D01*
X80010000Y-105976891D01*
X80064753Y-105966000D01*
X80064758Y-105966000D01*
X80226940Y-105933740D01*
X80410853Y-105810853D01*
X80441872Y-105764430D01*
X82780302Y-103426000D01*
X84859698Y-103426000D01*
X85804000Y-104370302D01*
X85804001Y-112622919D01*
X85782676Y-112644244D01*
X85679000Y-112894541D01*
X85679000Y-113165459D01*
X85782676Y-113415756D01*
X85974244Y-113607324D01*
X86224541Y-113711000D01*
X86495459Y-113711000D01*
X86745756Y-113607324D01*
X86937324Y-113415756D01*
X87012177Y-113235043D01*
X90305218Y-113235043D01*
X90470064Y-113653696D01*
X90492601Y-113687425D01*
X90683319Y-113751326D01*
X91404645Y-113030000D01*
X91475355Y-113030000D01*
X92196681Y-113751326D01*
X92387399Y-113687425D01*
X92566868Y-113274827D01*
X92574782Y-112824957D01*
X92409936Y-112406304D01*
X92387399Y-112372575D01*
X92196681Y-112308674D01*
X91475355Y-113030000D01*
X91404645Y-113030000D01*
X90683319Y-112308674D01*
X90492601Y-112372575D01*
X90313132Y-112785173D01*
X90305218Y-113235043D01*
X87012177Y-113235043D01*
X87041000Y-113165459D01*
X87041000Y-112894541D01*
X86937324Y-112644244D01*
X86916000Y-112622920D01*
X86916000Y-112273319D01*
X90718674Y-112273319D01*
X91440000Y-112994645D01*
X92161326Y-112273319D01*
X92097425Y-112082601D01*
X91684827Y-111903132D01*
X91234957Y-111895218D01*
X90816304Y-112060064D01*
X90782575Y-112082601D01*
X90718674Y-112273319D01*
X86916000Y-112273319D01*
X86916000Y-110274976D01*
X90359000Y-110274976D01*
X90359000Y-110705024D01*
X90523572Y-111102337D01*
X90827663Y-111406428D01*
X91224976Y-111571000D01*
X91655024Y-111571000D01*
X92052337Y-111406428D01*
X92356428Y-111102337D01*
X92521000Y-110705024D01*
X92521000Y-110274976D01*
X92356428Y-109877663D01*
X92052337Y-109573572D01*
X91655024Y-109409000D01*
X91224976Y-109409000D01*
X90827663Y-109573572D01*
X90523572Y-109877663D01*
X90359000Y-110274976D01*
X86916000Y-110274976D01*
X86916000Y-107950000D01*
X90337822Y-107950000D01*
X90421720Y-108371785D01*
X90660642Y-108729358D01*
X91018215Y-108968280D01*
X91333531Y-109031000D01*
X91546469Y-109031000D01*
X91861785Y-108968280D01*
X92219358Y-108729358D01*
X92458280Y-108371785D01*
X92542178Y-107950000D01*
X92458280Y-107528215D01*
X92219358Y-107170642D01*
X91861785Y-106931720D01*
X91546469Y-106869000D01*
X91333531Y-106869000D01*
X91018215Y-106931720D01*
X90660642Y-107170642D01*
X90421720Y-107528215D01*
X90337822Y-107950000D01*
X86916000Y-107950000D01*
X86916000Y-104194752D01*
X86926891Y-104139999D01*
X86916000Y-104085246D01*
X86916000Y-104085242D01*
X86883740Y-103923060D01*
X86760853Y-103739147D01*
X86714431Y-103708129D01*
X85521872Y-102515570D01*
X85490853Y-102469147D01*
X85306940Y-102346260D01*
X85144758Y-102314000D01*
X85144753Y-102314000D01*
X85090000Y-102303109D01*
X85035247Y-102314000D01*
X82604752Y-102314000D01*
X82549999Y-102303109D01*
X82495246Y-102314000D01*
X82495242Y-102314000D01*
X82333060Y-102346260D01*
X82149147Y-102469147D01*
X82118128Y-102515570D01*
X79978464Y-104655234D01*
X79978464Y-104560000D01*
X79948894Y-104411341D01*
X79864686Y-104285314D01*
X79738659Y-104201106D01*
X79590000Y-104171536D01*
X77890000Y-104171536D01*
X77741341Y-104201106D01*
X77615314Y-104285314D01*
X77531106Y-104411341D01*
X77501536Y-104560000D01*
X77112559Y-104560000D01*
X77087501Y-104522499D01*
X76680312Y-104250424D01*
X76321239Y-104179000D01*
X76078761Y-104179000D01*
X75719688Y-104250424D01*
X75312499Y-104522499D01*
X75040424Y-104929688D01*
X74944884Y-105410000D01*
X74216000Y-105410000D01*
X74216000Y-102870000D01*
X74944884Y-102870000D01*
X75040424Y-103350312D01*
X75312499Y-103757501D01*
X75719688Y-104029576D01*
X76078761Y-104101000D01*
X76321239Y-104101000D01*
X76680312Y-104029576D01*
X77087501Y-103757501D01*
X77359576Y-103350312D01*
X77455116Y-102870000D01*
X77359576Y-102389688D01*
X77112559Y-102020000D01*
X77501536Y-102020000D01*
X77501536Y-103720000D01*
X77531106Y-103868659D01*
X77615314Y-103994686D01*
X77741341Y-104078894D01*
X77890000Y-104108464D01*
X79590000Y-104108464D01*
X79738659Y-104078894D01*
X79864686Y-103994686D01*
X79948894Y-103868659D01*
X79978464Y-103720000D01*
X79978464Y-102020000D01*
X79948894Y-101871341D01*
X79864686Y-101745314D01*
X79738659Y-101661106D01*
X79590000Y-101631536D01*
X77890000Y-101631536D01*
X77741341Y-101661106D01*
X77615314Y-101745314D01*
X77531106Y-101871341D01*
X77501536Y-102020000D01*
X77112559Y-102020000D01*
X77087501Y-101982499D01*
X76680312Y-101710424D01*
X76321239Y-101639000D01*
X76078761Y-101639000D01*
X75719688Y-101710424D01*
X75312499Y-101982499D01*
X75040424Y-102389688D01*
X74944884Y-102870000D01*
X74216000Y-102870000D01*
X74216000Y-95250000D01*
X74944884Y-95250000D01*
X75040424Y-95730312D01*
X75312499Y-96137501D01*
X75719688Y-96409576D01*
X76078761Y-96481000D01*
X76321239Y-96481000D01*
X76680312Y-96409576D01*
X77087501Y-96137501D01*
X77359576Y-95730312D01*
X77455116Y-95250000D01*
X77484884Y-95250000D01*
X77580424Y-95730312D01*
X77852499Y-96137501D01*
X78259688Y-96409576D01*
X78618761Y-96481000D01*
X78861239Y-96481000D01*
X79220312Y-96409576D01*
X79627501Y-96137501D01*
X79899576Y-95730312D01*
X79995116Y-95250000D01*
X79899576Y-94769688D01*
X79627501Y-94362499D01*
X79220312Y-94090424D01*
X78861239Y-94019000D01*
X78618761Y-94019000D01*
X78259688Y-94090424D01*
X77852499Y-94362499D01*
X77580424Y-94769688D01*
X77484884Y-95250000D01*
X77455116Y-95250000D01*
X77359576Y-94769688D01*
X77087501Y-94362499D01*
X76680312Y-94090424D01*
X76321239Y-94019000D01*
X76078761Y-94019000D01*
X75719688Y-94090424D01*
X75312499Y-94362499D01*
X75040424Y-94769688D01*
X74944884Y-95250000D01*
X74216000Y-95250000D01*
X74216000Y-94210302D01*
X75118757Y-93307545D01*
X75312499Y-93597501D01*
X75719688Y-93869576D01*
X76078761Y-93941000D01*
X76321239Y-93941000D01*
X76680312Y-93869576D01*
X77087501Y-93597501D01*
X77359576Y-93190312D01*
X77455116Y-92710000D01*
X77359576Y-92229688D01*
X77087501Y-91822499D01*
X76680312Y-91550424D01*
X76321239Y-91479000D01*
X76078761Y-91479000D01*
X75719688Y-91550424D01*
X75312499Y-91822499D01*
X75090997Y-92154000D01*
X74984752Y-92154000D01*
X74929999Y-92143109D01*
X74875246Y-92154000D01*
X74875242Y-92154000D01*
X74713060Y-92186260D01*
X74529147Y-92309147D01*
X74498129Y-92355569D01*
X73305570Y-93548128D01*
X73259147Y-93579147D01*
X73136260Y-93763061D01*
X73104000Y-93925243D01*
X73104000Y-93925247D01*
X73093109Y-93980000D01*
X72211000Y-93980000D01*
X72211000Y-90395047D01*
X74938923Y-90395047D01*
X74948794Y-90444678D01*
X75149151Y-90902585D01*
X75509490Y-91248963D01*
X75974953Y-91431079D01*
X76175000Y-91343008D01*
X76175000Y-90195000D01*
X76225000Y-90195000D01*
X76225000Y-91343008D01*
X76425047Y-91431079D01*
X76890510Y-91248963D01*
X77250849Y-90902585D01*
X77451206Y-90444678D01*
X77461077Y-90395047D01*
X77372984Y-90195000D01*
X76225000Y-90195000D01*
X76175000Y-90195000D01*
X75027016Y-90195000D01*
X74938923Y-90395047D01*
X72211000Y-90395047D01*
X72211000Y-90170000D01*
X77484884Y-90170000D01*
X77580424Y-90650312D01*
X77852499Y-91057501D01*
X78259688Y-91329576D01*
X78618761Y-91401000D01*
X78861239Y-91401000D01*
X79220312Y-91329576D01*
X79627501Y-91057501D01*
X79899576Y-90650312D01*
X79995116Y-90170000D01*
X79899576Y-89689688D01*
X79627501Y-89282499D01*
X79220312Y-89010424D01*
X78861239Y-88939000D01*
X78618761Y-88939000D01*
X78259688Y-89010424D01*
X77852499Y-89282499D01*
X77580424Y-89689688D01*
X77484884Y-90170000D01*
X72211000Y-90170000D01*
X72211000Y-89944953D01*
X74938923Y-89944953D01*
X75027016Y-90145000D01*
X76175000Y-90145000D01*
X76175000Y-88996992D01*
X76225000Y-88996992D01*
X76225000Y-90145000D01*
X77372984Y-90145000D01*
X77461077Y-89944953D01*
X77451206Y-89895322D01*
X77250849Y-89437415D01*
X76890510Y-89091037D01*
X76425047Y-88908921D01*
X76225000Y-88996992D01*
X76175000Y-88996992D01*
X75974953Y-88908921D01*
X75509490Y-89091037D01*
X75149151Y-89437415D01*
X74948794Y-89895322D01*
X74938923Y-89944953D01*
X72211000Y-89944953D01*
X72211000Y-87630000D01*
X74944884Y-87630000D01*
X75040424Y-88110312D01*
X75312499Y-88517501D01*
X75719688Y-88789576D01*
X76078761Y-88861000D01*
X76321239Y-88861000D01*
X76680312Y-88789576D01*
X77087501Y-88517501D01*
X77359576Y-88110312D01*
X77410351Y-87855047D01*
X77478923Y-87855047D01*
X77488794Y-87904678D01*
X77689151Y-88362585D01*
X78049490Y-88708963D01*
X78514953Y-88891079D01*
X78715000Y-88803008D01*
X78715000Y-87655000D01*
X78765000Y-87655000D01*
X78765000Y-88803008D01*
X78965047Y-88891079D01*
X79430510Y-88708963D01*
X79790849Y-88362585D01*
X79991206Y-87904678D01*
X80001077Y-87855047D01*
X79912984Y-87655000D01*
X78765000Y-87655000D01*
X78715000Y-87655000D01*
X77567016Y-87655000D01*
X77478923Y-87855047D01*
X77410351Y-87855047D01*
X77455116Y-87630000D01*
X77410352Y-87404953D01*
X77478923Y-87404953D01*
X77567016Y-87605000D01*
X78715000Y-87605000D01*
X78715000Y-86456992D01*
X78765000Y-86456992D01*
X78765000Y-87605000D01*
X79912984Y-87605000D01*
X79968029Y-87480000D01*
X101967252Y-87480000D01*
X102132643Y-88311475D01*
X102603635Y-89016365D01*
X103308525Y-89487357D01*
X103930119Y-89611000D01*
X104349881Y-89611000D01*
X104971475Y-89487357D01*
X105676365Y-89016365D01*
X106147357Y-88311475D01*
X106312748Y-87480000D01*
X106147357Y-86648525D01*
X105676365Y-85943635D01*
X104971475Y-85472643D01*
X104349881Y-85349000D01*
X103930119Y-85349000D01*
X103308525Y-85472643D01*
X102603635Y-85943635D01*
X102132643Y-86648525D01*
X101967252Y-87480000D01*
X79968029Y-87480000D01*
X80001077Y-87404953D01*
X79991206Y-87355322D01*
X79790849Y-86897415D01*
X79430510Y-86551037D01*
X78965047Y-86368921D01*
X78765000Y-86456992D01*
X78715000Y-86456992D01*
X78514953Y-86368921D01*
X78049490Y-86551037D01*
X77689151Y-86897415D01*
X77488794Y-87355322D01*
X77478923Y-87404953D01*
X77410352Y-87404953D01*
X77359576Y-87149688D01*
X77087501Y-86742499D01*
X76680312Y-86470424D01*
X76321239Y-86399000D01*
X76078761Y-86399000D01*
X75719688Y-86470424D01*
X75312499Y-86742499D01*
X75040424Y-87149688D01*
X74944884Y-87630000D01*
X72211000Y-87630000D01*
X72211000Y-84240000D01*
X74961536Y-84240000D01*
X74961536Y-85940000D01*
X74991106Y-86088659D01*
X75075314Y-86214686D01*
X75201341Y-86298894D01*
X75350000Y-86328464D01*
X77050000Y-86328464D01*
X77198659Y-86298894D01*
X77324686Y-86214686D01*
X77408894Y-86088659D01*
X77438464Y-85940000D01*
X77438464Y-84240000D01*
X77501536Y-84240000D01*
X77501536Y-85940000D01*
X77531106Y-86088659D01*
X77615314Y-86214686D01*
X77741341Y-86298894D01*
X77890000Y-86328464D01*
X79590000Y-86328464D01*
X79738659Y-86298894D01*
X79864686Y-86214686D01*
X79948894Y-86088659D01*
X79978464Y-85940000D01*
X79978464Y-84240000D01*
X79948894Y-84091341D01*
X79864686Y-83965314D01*
X79738659Y-83881106D01*
X79590000Y-83851536D01*
X77890000Y-83851536D01*
X77741341Y-83881106D01*
X77615314Y-83965314D01*
X77531106Y-84091341D01*
X77501536Y-84240000D01*
X77438464Y-84240000D01*
X77408894Y-84091341D01*
X77324686Y-83965314D01*
X77198659Y-83881106D01*
X77050000Y-83851536D01*
X75350000Y-83851536D01*
X75201341Y-83881106D01*
X75075314Y-83965314D01*
X74991106Y-84091341D01*
X74961536Y-84240000D01*
X72211000Y-84240000D01*
X72211000Y-82371000D01*
X131953000Y-82371000D01*
X131953000Y-82664000D01*
G04 #@! TD*
M02*
