G04 #@! TF.GenerationSoftware,KiCad,Pcbnew,(5.0.0-3-g5ebb6b6)*
G04 #@! TF.CreationDate,2018-12-30T11:26:31+01:00*
G04 #@! TF.ProjectId,Leiterfolie,4C6569746572666F6C69652E6B696361,rev?*
G04 #@! TF.SameCoordinates,Original*
G04 #@! TF.FileFunction,Copper,L2,Bot,Signal*
G04 #@! TF.FilePolarity,Positive*
%FSLAX46Y46*%
G04 Gerber Fmt 4.6, Leading zero omitted, Abs format (unit mm)*
G04 Created by KiCad (PCBNEW (5.0.0-3-g5ebb6b6)) date Sunday, 30. December 2018 um 11:26:31*
%MOMM*%
%LPD*%
G01*
G04 APERTURE LIST*
G04 #@! TA.AperFunction,NonConductor*
%ADD10C,0.375000*%
G04 #@! TD*
G04 #@! TA.AperFunction,ComponentPad*
%ADD11R,1.700000X1.700000*%
G04 #@! TD*
G04 #@! TA.AperFunction,ComponentPad*
%ADD12O,1.700000X1.700000*%
G04 #@! TD*
G04 #@! TA.AperFunction,ComponentPad*
%ADD13C,1.400000*%
G04 #@! TD*
G04 #@! TA.AperFunction,ComponentPad*
%ADD14O,1.400000X1.400000*%
G04 #@! TD*
G04 #@! TA.AperFunction,ComponentPad*
%ADD15R,1.600000X1.600000*%
G04 #@! TD*
G04 #@! TA.AperFunction,ComponentPad*
%ADD16C,1.600000*%
G04 #@! TD*
G04 #@! TA.AperFunction,ComponentPad*
%ADD17R,1.800000X1.800000*%
G04 #@! TD*
G04 #@! TA.AperFunction,ComponentPad*
%ADD18O,1.800000X1.800000*%
G04 #@! TD*
G04 #@! TA.AperFunction,ComponentPad*
%ADD19C,2.400000*%
G04 #@! TD*
G04 #@! TA.AperFunction,ComponentPad*
%ADD20O,2.400000X2.400000*%
G04 #@! TD*
G04 #@! TA.AperFunction,ViaPad*
%ADD21C,1.200000*%
G04 #@! TD*
G04 #@! TA.AperFunction,ViaPad*
%ADD22C,0.600000*%
G04 #@! TD*
G04 #@! TA.AperFunction,Conductor*
%ADD23C,1.500000*%
G04 #@! TD*
G04 #@! TA.AperFunction,Conductor*
%ADD24C,0.350000*%
G04 #@! TD*
G04 #@! TA.AperFunction,Conductor*
%ADD25C,1.000000*%
G04 #@! TD*
G04 #@! TA.AperFunction,Conductor*
%ADD26C,0.254000*%
G04 #@! TD*
G04 APERTURE END LIST*
D10*
X139799285Y-93585000D02*
X139799285Y-94537380D01*
X141465952Y-93942142D02*
X139323095Y-93942142D01*
X139085000Y-94061190D01*
X138965952Y-94299285D01*
X138965952Y-94537380D01*
X141465952Y-95370714D02*
X139799285Y-95370714D01*
X138965952Y-95370714D02*
X139085000Y-95251666D01*
X139204047Y-95370714D01*
X139085000Y-95489761D01*
X138965952Y-95370714D01*
X139204047Y-95370714D01*
X139799285Y-96323095D02*
X139799285Y-97632619D01*
X141465952Y-96323095D01*
X141465952Y-97632619D01*
X140513571Y-98585000D02*
X140513571Y-100489761D01*
X141465952Y-102037380D02*
X141346904Y-101799285D01*
X141227857Y-101680238D01*
X140989761Y-101561190D01*
X140275476Y-101561190D01*
X140037380Y-101680238D01*
X139918333Y-101799285D01*
X139799285Y-102037380D01*
X139799285Y-102394523D01*
X139918333Y-102632619D01*
X140037380Y-102751666D01*
X140275476Y-102870714D01*
X140989761Y-102870714D01*
X141227857Y-102751666D01*
X141346904Y-102632619D01*
X141465952Y-102394523D01*
X141465952Y-102037380D01*
X140513571Y-103942142D02*
X140513571Y-105846904D01*
X141465952Y-107037380D02*
X139799285Y-107037380D01*
X140037380Y-107037380D02*
X139918333Y-107156428D01*
X139799285Y-107394523D01*
X139799285Y-107751666D01*
X139918333Y-107989761D01*
X140156428Y-108108809D01*
X141465952Y-108108809D01*
X140156428Y-108108809D02*
X139918333Y-108227857D01*
X139799285Y-108465952D01*
X139799285Y-108823095D01*
X139918333Y-109061190D01*
X140156428Y-109180238D01*
X141465952Y-109180238D01*
X141465952Y-111442142D02*
X140156428Y-111442142D01*
X139918333Y-111323095D01*
X139799285Y-111085000D01*
X139799285Y-110608809D01*
X139918333Y-110370714D01*
X141346904Y-111442142D02*
X141465952Y-111204047D01*
X141465952Y-110608809D01*
X141346904Y-110370714D01*
X141108809Y-110251666D01*
X140870714Y-110251666D01*
X140632619Y-110370714D01*
X140513571Y-110608809D01*
X140513571Y-111204047D01*
X140394523Y-111442142D01*
X139799285Y-112275476D02*
X139799285Y-113227857D01*
X138965952Y-112632619D02*
X141108809Y-112632619D01*
X141346904Y-112751666D01*
X141465952Y-112989761D01*
X141465952Y-113227857D01*
X141465952Y-114061190D02*
X139799285Y-114061190D01*
X138965952Y-114061190D02*
X139085000Y-113942142D01*
X139204047Y-114061190D01*
X139085000Y-114180238D01*
X138965952Y-114061190D01*
X139204047Y-114061190D01*
X141346904Y-116323095D02*
X141465952Y-116085000D01*
X141465952Y-115608809D01*
X141346904Y-115370714D01*
X141227857Y-115251666D01*
X140989761Y-115132619D01*
X140275476Y-115132619D01*
X140037380Y-115251666D01*
X139918333Y-115370714D01*
X139799285Y-115608809D01*
X139799285Y-116085000D01*
X139918333Y-116323095D01*
X141227857Y-117394523D02*
X141346904Y-117513571D01*
X141465952Y-117394523D01*
X141346904Y-117275476D01*
X141227857Y-117394523D01*
X141465952Y-117394523D01*
X139799285Y-118585000D02*
X141465952Y-118585000D01*
X140037380Y-118585000D02*
X139918333Y-118704047D01*
X139799285Y-118942142D01*
X139799285Y-119299285D01*
X139918333Y-119537380D01*
X140156428Y-119656428D01*
X141465952Y-119656428D01*
X141346904Y-121799285D02*
X141465952Y-121561190D01*
X141465952Y-121085000D01*
X141346904Y-120846904D01*
X141108809Y-120727857D01*
X140156428Y-120727857D01*
X139918333Y-120846904D01*
X139799285Y-121085000D01*
X139799285Y-121561190D01*
X139918333Y-121799285D01*
X140156428Y-121918333D01*
X140394523Y-121918333D01*
X140632619Y-120727857D01*
X139799285Y-122632619D02*
X139799285Y-123585000D01*
X138965952Y-122989761D02*
X141108809Y-122989761D01*
X141346904Y-123108809D01*
X141465952Y-123346904D01*
X141465952Y-123585000D01*
D11*
G04 #@! TO.P,J1,1*
G04 #@! TO.N,GND*
X78740000Y-85090000D03*
D12*
G04 #@! TO.P,J1,2*
G04 #@! TO.N,+12V*
X78740000Y-87630000D03*
G04 #@! TO.P,J1,3*
G04 #@! TO.N,RPM*
X78740000Y-90170000D03*
G04 #@! TD*
D11*
G04 #@! TO.P,J2,1*
G04 #@! TO.N,/0.3BAR*
X76200000Y-85090000D03*
D12*
G04 #@! TO.P,J2,2*
G04 #@! TO.N,/1.8BAR*
X76200000Y-87630000D03*
G04 #@! TO.P,J2,3*
G04 #@! TO.N,+12V*
X76200000Y-90170000D03*
G04 #@! TO.P,J2,4*
G04 #@! TO.N,Net-(D5-Pad1)*
X76200000Y-92710000D03*
G04 #@! TO.P,J2,5*
G04 #@! TO.N,GND*
X76200000Y-95250000D03*
G04 #@! TO.P,J2,6*
G04 #@! TO.N,RPM*
X76200000Y-97790000D03*
G04 #@! TD*
D13*
G04 #@! TO.P,R6,1*
G04 #@! TO.N,+12V*
X91440000Y-113030000D03*
D14*
G04 #@! TO.P,R6,2*
G04 #@! TO.N,Net-(D2-Pad2)*
X83820000Y-113030000D03*
G04 #@! TD*
D13*
G04 #@! TO.P,R2,1*
G04 #@! TO.N,Net-(D3-Pad1)*
X83820000Y-118110000D03*
D14*
G04 #@! TO.P,R2,2*
G04 #@! TO.N,/BLINKER*
X91440000Y-118110000D03*
G04 #@! TD*
D11*
G04 #@! TO.P,D3,1*
G04 #@! TO.N,Net-(D3-Pad1)*
X78740000Y-118110000D03*
D12*
G04 #@! TO.P,D3,2*
G04 #@! TO.N,+12V*
X76200000Y-118110000D03*
G04 #@! TD*
D11*
G04 #@! TO.P,J5,1*
G04 #@! TO.N,UHR+*
X78740000Y-105410000D03*
D12*
G04 #@! TO.P,J5,2*
G04 #@! TO.N,GND*
X76200000Y-105410000D03*
G04 #@! TD*
D11*
G04 #@! TO.P,J6,1*
G04 #@! TO.N,WASSER*
X78740000Y-92710000D03*
D12*
G04 #@! TO.P,J6,2*
G04 #@! TO.N,GND*
X78740000Y-95250000D03*
G04 #@! TO.P,J6,3*
G04 #@! TO.N,VCC*
X78740000Y-97790000D03*
G04 #@! TD*
D11*
G04 #@! TO.P,D2,1*
G04 #@! TO.N,Net-(D1-Pad2)*
X78740000Y-115570000D03*
D12*
G04 #@! TO.P,D2,2*
G04 #@! TO.N,Net-(D2-Pad2)*
X76200000Y-115570000D03*
G04 #@! TD*
D11*
G04 #@! TO.P,D4,1*
G04 #@! TO.N,Net-(D4-Pad1)*
X78740000Y-113030000D03*
D12*
G04 #@! TO.P,D4,2*
G04 #@! TO.N,/FERNLICHT*
X76200000Y-113030000D03*
G04 #@! TD*
D11*
G04 #@! TO.P,D5,1*
G04 #@! TO.N,Net-(D5-Pad1)*
X78740000Y-110490000D03*
D12*
G04 #@! TO.P,D5,2*
G04 #@! TO.N,+12V*
X76200000Y-110490000D03*
G04 #@! TD*
D11*
G04 #@! TO.P,D6,1*
G04 #@! TO.N,Net-(D6-Pad1)*
X78740000Y-107950000D03*
D12*
G04 #@! TO.P,D6,2*
G04 #@! TO.N,+12V*
X76200000Y-107950000D03*
G04 #@! TD*
D11*
G04 #@! TO.P,J7,1*
G04 #@! TO.N,TANK*
X78740000Y-100330000D03*
D12*
G04 #@! TO.P,J7,2*
G04 #@! TO.N,VCC*
X76200000Y-100330000D03*
G04 #@! TD*
D11*
G04 #@! TO.P,J8,1*
G04 #@! TO.N,GND*
X76200000Y-120650000D03*
D12*
G04 #@! TO.P,J8,2*
X78740000Y-120650000D03*
G04 #@! TO.P,J8,3*
G04 #@! TO.N,+12V*
X76200000Y-123190000D03*
G04 #@! TO.P,J8,4*
X78740000Y-123190000D03*
G04 #@! TD*
D11*
G04 #@! TO.P,J4,1*
G04 #@! TO.N,INSTR.BEL*
X78740000Y-102870000D03*
D12*
G04 #@! TO.P,J4,2*
G04 #@! TO.N,GND*
X76200000Y-102870000D03*
G04 #@! TD*
D15*
G04 #@! TO.P,C1,1*
G04 #@! TO.N,Net-(C1-Pad1)*
X119380000Y-114300000D03*
D16*
G04 #@! TO.P,C1,2*
G04 #@! TO.N,GND*
X119380000Y-112300000D03*
G04 #@! TD*
D15*
G04 #@! TO.P,C2,1*
G04 #@! TO.N,VCC*
X111760000Y-114300000D03*
D16*
G04 #@! TO.P,C2,2*
G04 #@! TO.N,GND*
X111760000Y-112300000D03*
G04 #@! TD*
G04 #@! TO.P,C3,1*
G04 #@! TO.N,VCC*
X105410000Y-114300000D03*
G04 #@! TO.P,C3,2*
G04 #@! TO.N,GND*
X105410000Y-111800000D03*
G04 #@! TD*
D17*
G04 #@! TO.P,D1,1*
G04 #@! TO.N,/LADEKONTR.*
X105410000Y-119380000D03*
D18*
G04 #@! TO.P,D1,2*
G04 #@! TO.N,Net-(D1-Pad2)*
X115570000Y-119380000D03*
G04 #@! TD*
D17*
G04 #@! TO.P,D7,1*
G04 #@! TO.N,Net-(C1-Pad1)*
X125730000Y-116840000D03*
D18*
G04 #@! TO.P,D7,2*
G04 #@! TO.N,+12V*
X125730000Y-106680000D03*
G04 #@! TD*
D17*
G04 #@! TO.P,D8,1*
G04 #@! TO.N,+12V*
X102870000Y-107950000D03*
D18*
G04 #@! TO.P,D8,2*
G04 #@! TO.N,GND*
X113030000Y-107950000D03*
G04 #@! TD*
D13*
G04 #@! TO.P,R1,1*
G04 #@! TO.N,Net-(D5-Pad1)*
X83820000Y-107950000D03*
D14*
G04 #@! TO.P,R1,2*
G04 #@! TO.N,/0.3BAR*
X91440000Y-107950000D03*
G04 #@! TD*
D13*
G04 #@! TO.P,R3,1*
G04 #@! TO.N,Net-(D6-Pad1)*
X83820000Y-105410000D03*
D14*
G04 #@! TO.P,R3,2*
G04 #@! TO.N,/DIESEL*
X91440000Y-105410000D03*
G04 #@! TD*
D13*
G04 #@! TO.P,R7,1*
G04 #@! TO.N,GND*
X91440000Y-110490000D03*
D14*
G04 #@! TO.P,R7,2*
G04 #@! TO.N,Net-(D4-Pad1)*
X83820000Y-110490000D03*
G04 #@! TD*
D19*
G04 #@! TO.P,R4,1*
G04 #@! TO.N,+12V*
X95250000Y-132080000D03*
D20*
G04 #@! TO.P,R4,2*
G04 #@! TO.N,Net-(D1-Pad2)*
X115570000Y-132080000D03*
G04 #@! TD*
D19*
G04 #@! TO.P,R5,1*
G04 #@! TO.N,+12V*
X95250000Y-125730000D03*
D20*
G04 #@! TO.P,R5,2*
G04 #@! TO.N,Net-(D1-Pad2)*
X115570000Y-125730000D03*
G04 #@! TD*
D17*
G04 #@! TO.P,U1,1*
G04 #@! TO.N,Net-(C1-Pad1)*
X101600000Y-104140000D03*
D18*
G04 #@! TO.P,U1,2*
G04 #@! TO.N,GND*
X104140000Y-104140000D03*
G04 #@! TO.P,U1,3*
G04 #@! TO.N,VCC*
X106680000Y-104140000D03*
G04 #@! TD*
D11*
G04 #@! TO.P,J9,1*
G04 #@! TO.N,RPM*
X76200000Y-125730000D03*
D12*
G04 #@! TO.P,J9,2*
G04 #@! TO.N,UHR+*
X78740000Y-125730000D03*
G04 #@! TO.P,J9,3*
G04 #@! TO.N,+12V*
X76200000Y-128270000D03*
G04 #@! TO.P,J9,4*
G04 #@! TO.N,INSTR.BEL*
X78740000Y-128270000D03*
G04 #@! TO.P,J9,5*
G04 #@! TO.N,GND*
X76200000Y-130810000D03*
G04 #@! TO.P,J9,6*
G04 #@! TO.N,TANK*
X78740000Y-130810000D03*
G04 #@! TO.P,J9,7*
G04 #@! TO.N,GND*
X76200000Y-133350000D03*
G04 #@! TO.P,J9,8*
G04 #@! TO.N,WASSER*
X78740000Y-133350000D03*
G04 #@! TD*
D15*
G04 #@! TO.P,C4,1*
G04 #@! TO.N,WASSER*
X119380000Y-102870000D03*
D16*
G04 #@! TO.P,C4,2*
G04 #@! TO.N,GND*
X119380000Y-100870000D03*
G04 #@! TD*
D21*
G04 #@! TO.N,+12V*
X125730000Y-113030000D03*
X128270000Y-124460000D03*
G04 #@! TO.N,GND*
X130810000Y-125730000D03*
D22*
G04 #@! TO.N,/0.3BAR*
X92710000Y-91440000D03*
X88900000Y-95250000D03*
X130810000Y-87630000D03*
G04 #@! TO.N,/1.8BAR*
X128270000Y-92710000D03*
G04 #@! TO.N,/FERNLICHT*
X130740002Y-130810000D03*
G04 #@! TO.N,/BLINKER*
X96520000Y-106680000D03*
D21*
G04 #@! TO.N,/LADEKONTR.*
X99060000Y-99060000D03*
D22*
G04 #@! TO.N,/DIESEL*
X90170000Y-95250000D03*
X91440000Y-101530002D03*
G04 #@! TO.N,RPM*
X73660000Y-110490000D03*
X129540000Y-102870000D03*
G04 #@! TO.N,INSTR.BEL*
X129540000Y-127000000D03*
X104140000Y-128270000D03*
G04 #@! TO.N,UHR+*
X83820000Y-125730000D03*
X86360000Y-113030000D03*
G04 #@! TO.N,WASSER*
X130810000Y-114300000D03*
X91440000Y-96520000D03*
G04 #@! TO.N,TANK*
X93980000Y-106680000D03*
G04 #@! TD*
D23*
G04 #@! TO.N,+12V*
X125730000Y-113030000D02*
X128270000Y-115570000D01*
X125730000Y-106680000D02*
X125730000Y-113030000D01*
X128270000Y-115570000D02*
X128270000Y-124460000D01*
D24*
G04 #@! TO.N,/0.3BAR*
X91440000Y-107950000D02*
X90170000Y-107950000D01*
X88900000Y-106680000D02*
X88900000Y-95250000D01*
X90170000Y-107950000D02*
X88900000Y-106680000D01*
X77470000Y-86360000D02*
X76200000Y-85090000D01*
X80010000Y-86360000D02*
X77470000Y-86360000D01*
X85090000Y-91440000D02*
X80010000Y-86360000D01*
X127000000Y-91440000D02*
X92710000Y-91440000D01*
X92710000Y-91440000D02*
X85090000Y-91440000D01*
X130810000Y-87630000D02*
X127000000Y-91440000D01*
G04 #@! TO.N,/1.8BAR*
X77470000Y-88900000D02*
X76200000Y-87630000D01*
X81280000Y-88900000D02*
X77470000Y-88900000D01*
X85090000Y-92710000D02*
X81280000Y-88900000D01*
X128270000Y-92710000D02*
X85090000Y-92710000D01*
G04 #@! TO.N,/FERNLICHT*
X130740002Y-130810000D02*
X127000000Y-127069998D01*
X127000000Y-127069998D02*
X121850002Y-127069998D01*
X121850002Y-127069998D02*
X119380000Y-129540000D01*
X119380000Y-129540000D02*
X95250000Y-129540000D01*
X95250000Y-129540000D02*
X92710000Y-127000000D01*
X92710000Y-127000000D02*
X86360000Y-127000000D01*
X86360000Y-127000000D02*
X83820000Y-129540000D01*
X83820000Y-129540000D02*
X83820000Y-132715000D01*
X83820000Y-132715000D02*
X81280000Y-135255000D01*
X81280000Y-135255000D02*
X74930000Y-135255000D01*
X74930000Y-135255000D02*
X73660000Y-133985000D01*
X73660000Y-133985000D02*
X73660000Y-114300000D01*
X73660000Y-114300000D02*
X74930000Y-113030000D01*
X74930000Y-113030000D02*
X76200000Y-113030000D01*
G04 #@! TO.N,/BLINKER*
X93980000Y-118110000D02*
X91440000Y-118110000D01*
X96520000Y-115570000D02*
X96520000Y-106680000D01*
X93980000Y-118110000D02*
X96520000Y-115570000D01*
D23*
G04 #@! TO.N,/LADEKONTR.*
X102870000Y-119380000D02*
X105410000Y-119380000D01*
X99060000Y-115570000D02*
X102870000Y-119380000D01*
X99060000Y-99060000D02*
X99060000Y-115570000D01*
D24*
G04 #@! TO.N,/DIESEL*
X90170000Y-100260002D02*
X90170000Y-95250000D01*
X91440000Y-101530002D02*
X90170000Y-100260002D01*
D25*
G04 #@! TO.N,VCC*
X111760000Y-114300000D02*
X107950000Y-114300000D01*
X105410000Y-114300000D02*
X107950000Y-114300000D01*
X106680000Y-106680000D02*
X107950000Y-107950000D01*
X107950000Y-107950000D02*
X107950000Y-114300000D01*
X106680000Y-106680000D02*
X106680000Y-104140000D01*
D24*
G04 #@! TO.N,Net-(C1-Pad1)*
X119380000Y-114300000D02*
X121920000Y-114300000D01*
X124460000Y-116840000D02*
X125730000Y-116840000D01*
X121920000Y-114300000D02*
X124460000Y-116840000D01*
X101600000Y-104140000D02*
X101600000Y-102870000D01*
X116840000Y-114300000D02*
X119380000Y-114300000D01*
X115570000Y-113030000D02*
X116840000Y-114300000D01*
X115570000Y-105410000D02*
X115570000Y-113030000D01*
X111760000Y-101600000D02*
X115570000Y-105410000D01*
X102870000Y-101600000D02*
X111760000Y-101600000D01*
X101600000Y-102870000D02*
X102870000Y-101600000D01*
D23*
G04 #@! TO.N,Net-(D1-Pad2)*
X115570000Y-119380000D02*
X115570000Y-125730000D01*
D24*
G04 #@! TO.N,RPM*
X74930000Y-97790000D02*
X76200000Y-97790000D01*
X73660000Y-99060000D02*
X74930000Y-97790000D01*
X73660000Y-110490000D02*
X73660000Y-99060000D01*
X78740000Y-90170000D02*
X81280000Y-90170000D01*
X83820000Y-92710000D02*
X83820000Y-93980000D01*
X81280000Y-90170000D02*
X83820000Y-92710000D01*
X77470000Y-96520000D02*
X76200000Y-97790000D01*
X120650000Y-93980000D02*
X83820000Y-93980000D01*
X83820000Y-93980000D02*
X81280000Y-96520000D01*
X81280000Y-96520000D02*
X77470000Y-96520000D01*
X129540000Y-102870000D02*
X120650000Y-93980000D01*
G04 #@! TO.N,INSTR.BEL*
X78740000Y-128270000D02*
X80010000Y-128270000D01*
X80010000Y-128270000D02*
X81280000Y-127000000D01*
X81280000Y-127000000D02*
X81280000Y-104140000D01*
X81280000Y-104140000D02*
X80010000Y-102870000D01*
X80010000Y-102870000D02*
X78740000Y-102870000D01*
X129540000Y-127000000D02*
X128270000Y-125730000D01*
X128270000Y-125730000D02*
X120650000Y-125730000D01*
X120650000Y-125730000D02*
X118110000Y-128270000D01*
X118110000Y-128270000D02*
X104140000Y-128270000D01*
G04 #@! TO.N,UHR+*
X87630000Y-121920000D02*
X83820000Y-125730000D01*
X87630000Y-114300000D02*
X87630000Y-121920000D01*
X86360000Y-113030000D02*
X87630000Y-114300000D01*
G04 #@! TO.N,WASSER*
X119380000Y-102870000D02*
X118110000Y-102870000D01*
X115570000Y-100330000D02*
X115570000Y-96520000D01*
X118110000Y-102870000D02*
X115570000Y-100330000D01*
X78740000Y-133350000D02*
X80010000Y-133350000D01*
X97790000Y-121920000D02*
X97790000Y-96520000D01*
X96520000Y-123190000D02*
X97790000Y-121920000D01*
X88900000Y-123190000D02*
X96520000Y-123190000D01*
X82550000Y-129540000D02*
X88900000Y-123190000D01*
X82550000Y-130810000D02*
X82550000Y-129540000D01*
X80010000Y-133350000D02*
X82550000Y-130810000D01*
X130810000Y-114300000D02*
X128270000Y-111760000D01*
X128270000Y-111760000D02*
X128270000Y-104140000D01*
X128270000Y-104140000D02*
X120650000Y-96520000D01*
X97790000Y-96520000D02*
X91440000Y-96520000D01*
X120650000Y-96520000D02*
X115570000Y-96520000D01*
X115570000Y-96520000D02*
X97790000Y-96520000D01*
G04 #@! TO.N,TANK*
X78740000Y-130810000D02*
X80010000Y-130810000D01*
X80010000Y-130810000D02*
X90170000Y-120650000D01*
X90170000Y-120650000D02*
X90170000Y-116840000D01*
X90170000Y-116840000D02*
X93980000Y-113030000D01*
X93980000Y-113030000D02*
X93980000Y-106680000D01*
G04 #@! TD*
D26*
G04 #@! TO.N,GND*
G36*
X131953000Y-136069000D02*
X72211000Y-136069000D01*
X72211000Y-114300000D01*
X73093109Y-114300000D01*
X73104001Y-114354758D01*
X73104000Y-133930247D01*
X73093109Y-133985000D01*
X73104000Y-134039753D01*
X73104000Y-134039757D01*
X73136260Y-134201939D01*
X73259147Y-134385853D01*
X73305570Y-134416872D01*
X74498128Y-135609430D01*
X74529147Y-135655853D01*
X74713060Y-135778740D01*
X74875242Y-135811000D01*
X74875246Y-135811000D01*
X74929999Y-135821891D01*
X74984752Y-135811000D01*
X81225247Y-135811000D01*
X81280000Y-135821891D01*
X81334753Y-135811000D01*
X81334758Y-135811000D01*
X81496940Y-135778740D01*
X81680853Y-135655853D01*
X81711872Y-135609430D01*
X84174430Y-133146872D01*
X84220853Y-133115853D01*
X84343740Y-132931940D01*
X84376000Y-132769758D01*
X84376000Y-132769754D01*
X84386891Y-132715001D01*
X84376000Y-132660248D01*
X84376000Y-131765519D01*
X93669000Y-131765519D01*
X93669000Y-132394481D01*
X93909693Y-132975565D01*
X94354435Y-133420307D01*
X94935519Y-133661000D01*
X95564481Y-133661000D01*
X96145565Y-133420307D01*
X96590307Y-132975565D01*
X96831000Y-132394481D01*
X96831000Y-132080000D01*
X113958027Y-132080000D01*
X114080731Y-132696875D01*
X114430163Y-133219837D01*
X114953125Y-133569269D01*
X115414288Y-133661000D01*
X115725712Y-133661000D01*
X116186875Y-133569269D01*
X116709837Y-133219837D01*
X117059269Y-132696875D01*
X117181973Y-132080000D01*
X117059269Y-131463125D01*
X116709837Y-130940163D01*
X116186875Y-130590731D01*
X115725712Y-130499000D01*
X115414288Y-130499000D01*
X114953125Y-130590731D01*
X114430163Y-130940163D01*
X114080731Y-131463125D01*
X113958027Y-132080000D01*
X96831000Y-132080000D01*
X96831000Y-131765519D01*
X96590307Y-131184435D01*
X96145565Y-130739693D01*
X95564481Y-130499000D01*
X94935519Y-130499000D01*
X94354435Y-130739693D01*
X93909693Y-131184435D01*
X93669000Y-131765519D01*
X84376000Y-131765519D01*
X84376000Y-129770302D01*
X86590302Y-127556000D01*
X92479698Y-127556000D01*
X94818128Y-129894430D01*
X94849147Y-129940853D01*
X95033060Y-130063740D01*
X95195242Y-130096000D01*
X95195246Y-130096000D01*
X95249999Y-130106891D01*
X95304752Y-130096000D01*
X119325247Y-130096000D01*
X119380000Y-130106891D01*
X119434753Y-130096000D01*
X119434758Y-130096000D01*
X119596940Y-130063740D01*
X119780853Y-129940853D01*
X119811872Y-129894430D01*
X122080304Y-127625998D01*
X126769698Y-127625998D01*
X130059002Y-130915303D01*
X130059002Y-130945459D01*
X130162678Y-131195756D01*
X130354246Y-131387324D01*
X130604543Y-131491000D01*
X130875461Y-131491000D01*
X131125758Y-131387324D01*
X131317326Y-131195756D01*
X131421002Y-130945459D01*
X131421002Y-130674541D01*
X131317326Y-130424244D01*
X131125758Y-130232676D01*
X130875461Y-130129000D01*
X130845305Y-130129000D01*
X127431872Y-126715568D01*
X127400853Y-126669145D01*
X127216940Y-126546258D01*
X127054758Y-126513998D01*
X127054753Y-126513998D01*
X127000000Y-126503107D01*
X126945247Y-126513998D01*
X121904754Y-126513998D01*
X121850001Y-126503107D01*
X121795248Y-126513998D01*
X121795244Y-126513998D01*
X121633062Y-126546258D01*
X121449149Y-126669145D01*
X121418130Y-126715568D01*
X119149698Y-128984000D01*
X95480302Y-128984000D01*
X93141872Y-126645570D01*
X93110853Y-126599147D01*
X92926940Y-126476260D01*
X92764758Y-126444000D01*
X92764753Y-126444000D01*
X92710000Y-126433109D01*
X92655247Y-126444000D01*
X86432303Y-126444000D01*
X87460784Y-125415519D01*
X93669000Y-125415519D01*
X93669000Y-126044481D01*
X93909693Y-126625565D01*
X94354435Y-127070307D01*
X94935519Y-127311000D01*
X95564481Y-127311000D01*
X96145565Y-127070307D01*
X96590307Y-126625565D01*
X96831000Y-126044481D01*
X96831000Y-125730000D01*
X113958027Y-125730000D01*
X114080731Y-126346875D01*
X114430163Y-126869837D01*
X114953125Y-127219269D01*
X115414288Y-127311000D01*
X115725712Y-127311000D01*
X116186875Y-127219269D01*
X116709837Y-126869837D01*
X117059269Y-126346875D01*
X117181973Y-125730000D01*
X117059269Y-125113125D01*
X116709837Y-124590163D01*
X116701000Y-124584258D01*
X116701000Y-119993077D01*
X116776675Y-119879821D01*
X116876096Y-119380000D01*
X116776675Y-118880179D01*
X116493549Y-118456451D01*
X116069821Y-118173325D01*
X115696166Y-118099000D01*
X115443834Y-118099000D01*
X115070179Y-118173325D01*
X114646451Y-118456451D01*
X114363325Y-118880179D01*
X114263904Y-119380000D01*
X114363325Y-119879821D01*
X114439000Y-119993077D01*
X114439001Y-124584258D01*
X114430163Y-124590163D01*
X114080731Y-125113125D01*
X113958027Y-125730000D01*
X96831000Y-125730000D01*
X96831000Y-125415519D01*
X96590307Y-124834435D01*
X96145565Y-124389693D01*
X95564481Y-124149000D01*
X94935519Y-124149000D01*
X94354435Y-124389693D01*
X93909693Y-124834435D01*
X93669000Y-125415519D01*
X87460784Y-125415519D01*
X89130303Y-123746000D01*
X96465247Y-123746000D01*
X96520000Y-123756891D01*
X96574753Y-123746000D01*
X96574758Y-123746000D01*
X96736940Y-123713740D01*
X96920853Y-123590853D01*
X96951872Y-123544430D01*
X98144431Y-122351871D01*
X98190853Y-122320853D01*
X98313740Y-122136940D01*
X98346000Y-121974758D01*
X98346000Y-121974754D01*
X98356891Y-121920001D01*
X98346000Y-121865248D01*
X98346000Y-116455475D01*
X101991499Y-120100975D01*
X102054595Y-120195405D01*
X102149025Y-120258501D01*
X102149027Y-120258503D01*
X102428706Y-120445378D01*
X102870000Y-120533157D01*
X102981391Y-120511000D01*
X104206124Y-120511000D01*
X104235314Y-120554686D01*
X104361341Y-120638894D01*
X104510000Y-120668464D01*
X106310000Y-120668464D01*
X106458659Y-120638894D01*
X106584686Y-120554686D01*
X106668894Y-120428659D01*
X106698464Y-120280000D01*
X106698464Y-118480000D01*
X106668894Y-118331341D01*
X106584686Y-118205314D01*
X106458659Y-118121106D01*
X106310000Y-118091536D01*
X104510000Y-118091536D01*
X104361341Y-118121106D01*
X104235314Y-118205314D01*
X104206124Y-118249000D01*
X103338476Y-118249000D01*
X100191000Y-115101525D01*
X100191000Y-112628796D01*
X104616559Y-112628796D01*
X104692632Y-112829905D01*
X105141366Y-113026033D01*
X105630997Y-113035509D01*
X106086983Y-112856889D01*
X106127368Y-112829905D01*
X106203441Y-112628796D01*
X105410000Y-111835355D01*
X104616559Y-112628796D01*
X100191000Y-112628796D01*
X100191000Y-112020997D01*
X104174491Y-112020997D01*
X104353111Y-112476983D01*
X104380095Y-112517368D01*
X104581204Y-112593441D01*
X105374645Y-111800000D01*
X105445355Y-111800000D01*
X106238796Y-112593441D01*
X106439905Y-112517368D01*
X106636033Y-112068634D01*
X106645509Y-111579003D01*
X106466889Y-111123017D01*
X106439905Y-111082632D01*
X106238796Y-111006559D01*
X105445355Y-111800000D01*
X105374645Y-111800000D01*
X104581204Y-111006559D01*
X104380095Y-111082632D01*
X104183967Y-111531366D01*
X104174491Y-112020997D01*
X100191000Y-112020997D01*
X100191000Y-110971204D01*
X104616559Y-110971204D01*
X105410000Y-111764645D01*
X106203441Y-110971204D01*
X106127368Y-110770095D01*
X105678634Y-110573967D01*
X105189003Y-110564491D01*
X104733017Y-110743111D01*
X104692632Y-110770095D01*
X104616559Y-110971204D01*
X100191000Y-110971204D01*
X100191000Y-107050000D01*
X101581536Y-107050000D01*
X101581536Y-108850000D01*
X101611106Y-108998659D01*
X101695314Y-109124686D01*
X101821341Y-109208894D01*
X101970000Y-109238464D01*
X103770000Y-109238464D01*
X103918659Y-109208894D01*
X104044686Y-109124686D01*
X104128894Y-108998659D01*
X104158464Y-108850000D01*
X104158464Y-107050000D01*
X104128894Y-106901341D01*
X104044686Y-106775314D01*
X103918659Y-106691106D01*
X103770000Y-106661536D01*
X101970000Y-106661536D01*
X101821341Y-106691106D01*
X101695314Y-106775314D01*
X101611106Y-106901341D01*
X101581536Y-107050000D01*
X100191000Y-107050000D01*
X100191000Y-103240000D01*
X100311536Y-103240000D01*
X100311536Y-105040000D01*
X100341106Y-105188659D01*
X100425314Y-105314686D01*
X100551341Y-105398894D01*
X100700000Y-105428464D01*
X102500000Y-105428464D01*
X102648659Y-105398894D01*
X102774686Y-105314686D01*
X102858894Y-105188659D01*
X102888464Y-105040000D01*
X102888464Y-104536515D01*
X103048692Y-104901980D01*
X103423360Y-105261603D01*
X103907130Y-105450472D01*
X104115000Y-105363017D01*
X104115000Y-104165000D01*
X104095000Y-104165000D01*
X104095000Y-104115000D01*
X104115000Y-104115000D01*
X104115000Y-102916983D01*
X104165000Y-102916983D01*
X104165000Y-104115000D01*
X104185000Y-104115000D01*
X104185000Y-104165000D01*
X104165000Y-104165000D01*
X104165000Y-105363017D01*
X104372870Y-105450472D01*
X104856640Y-105261603D01*
X105231308Y-104901980D01*
X105433663Y-104440427D01*
X105473325Y-104639821D01*
X105756451Y-105063549D01*
X105799001Y-105091980D01*
X105799000Y-106593237D01*
X105781742Y-106680000D01*
X105799000Y-106766763D01*
X105799000Y-106766766D01*
X105850117Y-107023748D01*
X106044835Y-107315165D01*
X106118395Y-107364317D01*
X107069000Y-108314922D01*
X107069001Y-113419000D01*
X106199186Y-113419000D01*
X106078983Y-113298797D01*
X105644915Y-113119000D01*
X105175085Y-113119000D01*
X104741017Y-113298797D01*
X104408797Y-113631017D01*
X104229000Y-114065085D01*
X104229000Y-114534915D01*
X104408797Y-114968983D01*
X104741017Y-115301203D01*
X105175085Y-115481000D01*
X105644915Y-115481000D01*
X106078983Y-115301203D01*
X106199186Y-115181000D01*
X107863233Y-115181000D01*
X107950000Y-115198259D01*
X108036767Y-115181000D01*
X110587648Y-115181000D01*
X110601106Y-115248659D01*
X110685314Y-115374686D01*
X110811341Y-115458894D01*
X110960000Y-115488464D01*
X112560000Y-115488464D01*
X112708659Y-115458894D01*
X112834686Y-115374686D01*
X112918894Y-115248659D01*
X112948464Y-115100000D01*
X112948464Y-113500000D01*
X112918894Y-113351341D01*
X112834686Y-113225314D01*
X112708659Y-113141106D01*
X112618539Y-113123180D01*
X112588799Y-113093440D01*
X112789905Y-113017368D01*
X112986033Y-112568634D01*
X112995509Y-112079003D01*
X112816889Y-111623017D01*
X112789905Y-111582632D01*
X112588796Y-111506559D01*
X111795355Y-112300000D01*
X111809498Y-112314143D01*
X111774143Y-112349498D01*
X111760000Y-112335355D01*
X111745858Y-112349498D01*
X111710503Y-112314143D01*
X111724645Y-112300000D01*
X110931204Y-111506559D01*
X110730095Y-111582632D01*
X110533967Y-112031366D01*
X110524491Y-112520997D01*
X110703111Y-112976983D01*
X110730095Y-113017368D01*
X110931201Y-113093440D01*
X110901461Y-113123180D01*
X110811341Y-113141106D01*
X110685314Y-113225314D01*
X110601106Y-113351341D01*
X110587648Y-113419000D01*
X108831000Y-113419000D01*
X108831000Y-111471204D01*
X110966559Y-111471204D01*
X111760000Y-112264645D01*
X112553441Y-111471204D01*
X112477368Y-111270095D01*
X112028634Y-111073967D01*
X111539003Y-111064491D01*
X111083017Y-111243111D01*
X111042632Y-111270095D01*
X110966559Y-111471204D01*
X108831000Y-111471204D01*
X108831000Y-108182870D01*
X111719530Y-108182870D01*
X111730166Y-108236352D01*
X111938692Y-108711980D01*
X112313360Y-109071603D01*
X112797130Y-109260472D01*
X113005000Y-109173017D01*
X113005000Y-107975000D01*
X113055000Y-107975000D01*
X113055000Y-109173017D01*
X113262870Y-109260472D01*
X113746640Y-109071603D01*
X114121308Y-108711980D01*
X114329834Y-108236352D01*
X114340470Y-108182870D01*
X114252995Y-107975000D01*
X113055000Y-107975000D01*
X113005000Y-107975000D01*
X111807005Y-107975000D01*
X111719530Y-108182870D01*
X108831000Y-108182870D01*
X108831000Y-108036761D01*
X108848258Y-107949999D01*
X108831000Y-107863238D01*
X108831000Y-107863233D01*
X108801939Y-107717130D01*
X111719530Y-107717130D01*
X111807005Y-107925000D01*
X113005000Y-107925000D01*
X113005000Y-106726983D01*
X113055000Y-106726983D01*
X113055000Y-107925000D01*
X114252995Y-107925000D01*
X114340470Y-107717130D01*
X114329834Y-107663648D01*
X114121308Y-107188020D01*
X113746640Y-106828397D01*
X113262870Y-106639528D01*
X113055000Y-106726983D01*
X113005000Y-106726983D01*
X112797130Y-106639528D01*
X112313360Y-106828397D01*
X111938692Y-107188020D01*
X111730166Y-107663648D01*
X111719530Y-107717130D01*
X108801939Y-107717130D01*
X108779883Y-107606251D01*
X108585165Y-107314835D01*
X108511608Y-107265686D01*
X107561000Y-106315079D01*
X107561000Y-105091979D01*
X107603549Y-105063549D01*
X107886675Y-104639821D01*
X107986096Y-104140000D01*
X107886675Y-103640179D01*
X107603549Y-103216451D01*
X107179821Y-102933325D01*
X106806166Y-102859000D01*
X106553834Y-102859000D01*
X106180179Y-102933325D01*
X105756451Y-103216451D01*
X105473325Y-103640179D01*
X105433663Y-103839573D01*
X105231308Y-103378020D01*
X104856640Y-103018397D01*
X104372870Y-102829528D01*
X104165000Y-102916983D01*
X104115000Y-102916983D01*
X103907130Y-102829528D01*
X103423360Y-103018397D01*
X103048692Y-103378020D01*
X102888464Y-103743485D01*
X102888464Y-103240000D01*
X102858894Y-103091341D01*
X102774686Y-102965314D01*
X102648659Y-102881106D01*
X102500000Y-102851536D01*
X102404766Y-102851536D01*
X103100302Y-102156000D01*
X111529698Y-102156000D01*
X115014000Y-105640303D01*
X115014001Y-112975242D01*
X115003109Y-113030000D01*
X115014001Y-113084757D01*
X115014001Y-113084758D01*
X115020812Y-113119000D01*
X115046261Y-113246940D01*
X115138129Y-113384431D01*
X115138130Y-113384432D01*
X115169148Y-113430853D01*
X115215568Y-113461870D01*
X116408128Y-114654430D01*
X116439147Y-114700853D01*
X116623060Y-114823740D01*
X116785242Y-114856000D01*
X116785246Y-114856000D01*
X116839999Y-114866891D01*
X116894752Y-114856000D01*
X118191536Y-114856000D01*
X118191536Y-115100000D01*
X118221106Y-115248659D01*
X118305314Y-115374686D01*
X118431341Y-115458894D01*
X118580000Y-115488464D01*
X120180000Y-115488464D01*
X120328659Y-115458894D01*
X120454686Y-115374686D01*
X120538894Y-115248659D01*
X120568464Y-115100000D01*
X120568464Y-114856000D01*
X121689698Y-114856000D01*
X124028128Y-117194430D01*
X124059147Y-117240853D01*
X124243060Y-117363740D01*
X124405242Y-117396000D01*
X124405246Y-117396000D01*
X124441536Y-117403218D01*
X124441536Y-117740000D01*
X124471106Y-117888659D01*
X124555314Y-118014686D01*
X124681341Y-118098894D01*
X124830000Y-118128464D01*
X126630000Y-118128464D01*
X126778659Y-118098894D01*
X126904686Y-118014686D01*
X126988894Y-117888659D01*
X127018464Y-117740000D01*
X127018464Y-115940000D01*
X127012986Y-115912461D01*
X127139000Y-116038475D01*
X127139001Y-124571391D01*
X127204623Y-124901294D01*
X127386839Y-125174000D01*
X120704752Y-125174000D01*
X120649999Y-125163109D01*
X120595246Y-125174000D01*
X120595242Y-125174000D01*
X120433060Y-125206260D01*
X120249147Y-125329147D01*
X120218129Y-125375569D01*
X117879698Y-127714000D01*
X104547080Y-127714000D01*
X104525756Y-127692676D01*
X104275459Y-127589000D01*
X104004541Y-127589000D01*
X103754244Y-127692676D01*
X103562676Y-127884244D01*
X103459000Y-128134541D01*
X103459000Y-128405459D01*
X103562676Y-128655756D01*
X103754244Y-128847324D01*
X104004541Y-128951000D01*
X104275459Y-128951000D01*
X104525756Y-128847324D01*
X104547080Y-128826000D01*
X118055247Y-128826000D01*
X118110000Y-128836891D01*
X118164753Y-128826000D01*
X118164758Y-128826000D01*
X118326940Y-128793740D01*
X118510853Y-128670853D01*
X118541872Y-128624430D01*
X120880302Y-126286000D01*
X128039698Y-126286000D01*
X128859000Y-127105302D01*
X128859000Y-127135459D01*
X128962676Y-127385756D01*
X129154244Y-127577324D01*
X129404541Y-127681000D01*
X129675459Y-127681000D01*
X129925756Y-127577324D01*
X130117324Y-127385756D01*
X130221000Y-127135459D01*
X130221000Y-126864541D01*
X130117324Y-126614244D01*
X129925756Y-126422676D01*
X129675459Y-126319000D01*
X129645302Y-126319000D01*
X128795449Y-125469147D01*
X129085405Y-125275405D01*
X129335378Y-124901294D01*
X129401000Y-124571391D01*
X129401000Y-115681385D01*
X129423156Y-115569999D01*
X129401000Y-115458613D01*
X129401000Y-115458609D01*
X129335378Y-115128706D01*
X129085405Y-114754595D01*
X128990972Y-114691497D01*
X126861000Y-112561525D01*
X126861000Y-107293077D01*
X126936675Y-107179821D01*
X127036096Y-106680000D01*
X126936675Y-106180179D01*
X126653549Y-105756451D01*
X126229821Y-105473325D01*
X125856166Y-105399000D01*
X125603834Y-105399000D01*
X125230179Y-105473325D01*
X124806451Y-105756451D01*
X124523325Y-106180179D01*
X124423904Y-106680000D01*
X124523325Y-107179821D01*
X124599000Y-107293077D01*
X124599001Y-112918610D01*
X124576844Y-113030000D01*
X124599001Y-113141391D01*
X124615658Y-113225133D01*
X124664623Y-113471294D01*
X124851497Y-113750972D01*
X124851500Y-113750975D01*
X124914596Y-113845405D01*
X125009026Y-113908501D01*
X126657539Y-115557014D01*
X126630000Y-115551536D01*
X124830000Y-115551536D01*
X124681341Y-115581106D01*
X124555314Y-115665314D01*
X124471106Y-115791341D01*
X124441536Y-115940000D01*
X124441536Y-116035234D01*
X122351871Y-113945569D01*
X122320853Y-113899147D01*
X122136940Y-113776260D01*
X121974758Y-113744000D01*
X121974753Y-113744000D01*
X121920000Y-113733109D01*
X121865247Y-113744000D01*
X120568464Y-113744000D01*
X120568464Y-113500000D01*
X120538894Y-113351341D01*
X120454686Y-113225314D01*
X120328659Y-113141106D01*
X120238539Y-113123180D01*
X120208799Y-113093440D01*
X120409905Y-113017368D01*
X120606033Y-112568634D01*
X120615509Y-112079003D01*
X120436889Y-111623017D01*
X120409905Y-111582632D01*
X120208796Y-111506559D01*
X119415355Y-112300000D01*
X119429498Y-112314143D01*
X119394143Y-112349498D01*
X119380000Y-112335355D01*
X119365858Y-112349498D01*
X119330503Y-112314143D01*
X119344645Y-112300000D01*
X118551204Y-111506559D01*
X118350095Y-111582632D01*
X118153967Y-112031366D01*
X118144491Y-112520997D01*
X118323111Y-112976983D01*
X118350095Y-113017368D01*
X118551201Y-113093440D01*
X118521461Y-113123180D01*
X118431341Y-113141106D01*
X118305314Y-113225314D01*
X118221106Y-113351341D01*
X118191536Y-113500000D01*
X118191536Y-113744000D01*
X117070302Y-113744000D01*
X116126000Y-112799698D01*
X116126000Y-111471204D01*
X118586559Y-111471204D01*
X119380000Y-112264645D01*
X120173441Y-111471204D01*
X120097368Y-111270095D01*
X119648634Y-111073967D01*
X119159003Y-111064491D01*
X118703017Y-111243111D01*
X118662632Y-111270095D01*
X118586559Y-111471204D01*
X116126000Y-111471204D01*
X116126000Y-105464754D01*
X116136891Y-105410000D01*
X116126000Y-105355246D01*
X116126000Y-105355242D01*
X116093740Y-105193060D01*
X116093740Y-105193059D01*
X116001871Y-105055568D01*
X116001870Y-105055567D01*
X115970853Y-105009147D01*
X115924434Y-104978131D01*
X112191872Y-101245570D01*
X112160853Y-101199147D01*
X111976940Y-101076260D01*
X111814758Y-101044000D01*
X111814753Y-101044000D01*
X111760000Y-101033109D01*
X111705247Y-101044000D01*
X102924752Y-101044000D01*
X102869999Y-101033109D01*
X102815246Y-101044000D01*
X102815242Y-101044000D01*
X102653060Y-101076260D01*
X102469147Y-101199147D01*
X102438128Y-101245570D01*
X101245568Y-102438130D01*
X101199148Y-102469147D01*
X101168131Y-102515567D01*
X101168129Y-102515569D01*
X101076261Y-102653060D01*
X101036782Y-102851536D01*
X100700000Y-102851536D01*
X100551341Y-102881106D01*
X100425314Y-102965314D01*
X100341106Y-103091341D01*
X100311536Y-103240000D01*
X100191000Y-103240000D01*
X100191000Y-98948609D01*
X100125378Y-98618706D01*
X99875405Y-98244595D01*
X99501293Y-97994622D01*
X99060000Y-97906843D01*
X98618706Y-97994622D01*
X98346000Y-98176838D01*
X98346000Y-97076000D01*
X115014001Y-97076000D01*
X115014000Y-100275247D01*
X115003109Y-100330000D01*
X115014000Y-100384753D01*
X115014000Y-100384757D01*
X115046260Y-100546939D01*
X115169147Y-100730853D01*
X115215570Y-100761872D01*
X117678128Y-103224430D01*
X117709147Y-103270853D01*
X117893060Y-103393740D01*
X118055242Y-103426000D01*
X118055246Y-103426000D01*
X118109999Y-103436891D01*
X118164752Y-103426000D01*
X118191536Y-103426000D01*
X118191536Y-103670000D01*
X118221106Y-103818659D01*
X118305314Y-103944686D01*
X118431341Y-104028894D01*
X118580000Y-104058464D01*
X120180000Y-104058464D01*
X120328659Y-104028894D01*
X120454686Y-103944686D01*
X120538894Y-103818659D01*
X120568464Y-103670000D01*
X120568464Y-102070000D01*
X120538894Y-101921341D01*
X120454686Y-101795314D01*
X120328659Y-101711106D01*
X120238539Y-101693180D01*
X120208799Y-101663440D01*
X120409905Y-101587368D01*
X120606033Y-101138634D01*
X120615509Y-100649003D01*
X120436889Y-100193017D01*
X120409905Y-100152632D01*
X120208796Y-100076559D01*
X119415355Y-100870000D01*
X119429498Y-100884143D01*
X119394143Y-100919498D01*
X119380000Y-100905355D01*
X119365858Y-100919498D01*
X119330503Y-100884143D01*
X119344645Y-100870000D01*
X118551204Y-100076559D01*
X118350095Y-100152632D01*
X118153967Y-100601366D01*
X118144491Y-101090997D01*
X118323111Y-101546983D01*
X118350095Y-101587368D01*
X118551201Y-101663440D01*
X118521461Y-101693180D01*
X118431341Y-101711106D01*
X118305314Y-101795314D01*
X118221106Y-101921341D01*
X118191536Y-102070000D01*
X118191536Y-102165234D01*
X116126000Y-100099698D01*
X116126000Y-100041204D01*
X118586559Y-100041204D01*
X119380000Y-100834645D01*
X120173441Y-100041204D01*
X120097368Y-99840095D01*
X119648634Y-99643967D01*
X119159003Y-99634491D01*
X118703017Y-99813111D01*
X118662632Y-99840095D01*
X118586559Y-100041204D01*
X116126000Y-100041204D01*
X116126000Y-97076000D01*
X120419698Y-97076000D01*
X127714001Y-104370303D01*
X127714000Y-111705247D01*
X127703109Y-111760000D01*
X127714000Y-111814753D01*
X127714000Y-111814757D01*
X127746260Y-111976939D01*
X127869147Y-112160853D01*
X127915570Y-112191872D01*
X130129000Y-114405302D01*
X130129000Y-114435459D01*
X130232676Y-114685756D01*
X130424244Y-114877324D01*
X130674541Y-114981000D01*
X130945459Y-114981000D01*
X131195756Y-114877324D01*
X131387324Y-114685756D01*
X131491000Y-114435459D01*
X131491000Y-114164541D01*
X131387324Y-113914244D01*
X131195756Y-113722676D01*
X130945459Y-113619000D01*
X130915302Y-113619000D01*
X128826000Y-111529698D01*
X128826000Y-104194752D01*
X128836891Y-104139999D01*
X128826000Y-104085246D01*
X128826000Y-104085242D01*
X128793740Y-103923060D01*
X128670853Y-103739147D01*
X128624430Y-103708128D01*
X121081871Y-96165569D01*
X121050853Y-96119147D01*
X120866940Y-95996260D01*
X120704758Y-95964000D01*
X120704753Y-95964000D01*
X120650000Y-95953109D01*
X120595247Y-95964000D01*
X115624758Y-95964000D01*
X115570000Y-95953108D01*
X115515242Y-95964000D01*
X97844758Y-95964000D01*
X97790000Y-95953108D01*
X97735242Y-95964000D01*
X91847080Y-95964000D01*
X91825756Y-95942676D01*
X91575459Y-95839000D01*
X91304541Y-95839000D01*
X91054244Y-95942676D01*
X90862676Y-96134244D01*
X90759000Y-96384541D01*
X90759000Y-96655459D01*
X90862676Y-96905756D01*
X91054244Y-97097324D01*
X91304541Y-97201000D01*
X91575459Y-97201000D01*
X91825756Y-97097324D01*
X91847080Y-97076000D01*
X97234001Y-97076000D01*
X97234000Y-121689698D01*
X96289698Y-122634000D01*
X88972303Y-122634000D01*
X90524434Y-121081869D01*
X90570853Y-121050853D01*
X90693740Y-120866940D01*
X90726000Y-120704758D01*
X90726000Y-120704753D01*
X90736891Y-120650000D01*
X90726000Y-120595247D01*
X90726000Y-118933029D01*
X91018215Y-119128280D01*
X91333531Y-119191000D01*
X91546469Y-119191000D01*
X91861785Y-119128280D01*
X92219358Y-118889358D01*
X92368601Y-118666000D01*
X93925247Y-118666000D01*
X93980000Y-118676891D01*
X94034753Y-118666000D01*
X94034758Y-118666000D01*
X94196940Y-118633740D01*
X94380853Y-118510853D01*
X94411872Y-118464430D01*
X96874431Y-116001871D01*
X96920853Y-115970853D01*
X97043740Y-115786940D01*
X97076000Y-115624758D01*
X97076000Y-115624754D01*
X97086891Y-115570001D01*
X97076000Y-115515248D01*
X97076000Y-107087080D01*
X97097324Y-107065756D01*
X97201000Y-106815459D01*
X97201000Y-106544541D01*
X97097324Y-106294244D01*
X96905756Y-106102676D01*
X96655459Y-105999000D01*
X96384541Y-105999000D01*
X96134244Y-106102676D01*
X95942676Y-106294244D01*
X95839000Y-106544541D01*
X95839000Y-106815459D01*
X95942676Y-107065756D01*
X95964001Y-107087081D01*
X95964000Y-115339698D01*
X93749698Y-117554000D01*
X92368601Y-117554000D01*
X92219358Y-117330642D01*
X91861785Y-117091720D01*
X91546469Y-117029000D01*
X91333531Y-117029000D01*
X91018215Y-117091720D01*
X90726000Y-117286971D01*
X90726000Y-117070302D01*
X94334434Y-113461869D01*
X94380853Y-113430853D01*
X94411871Y-113384432D01*
X94503740Y-113246941D01*
X94510660Y-113212153D01*
X94536000Y-113084758D01*
X94536000Y-113084754D01*
X94546891Y-113030000D01*
X94536000Y-112975246D01*
X94536000Y-107087080D01*
X94557324Y-107065756D01*
X94661000Y-106815459D01*
X94661000Y-106544541D01*
X94557324Y-106294244D01*
X94365756Y-106102676D01*
X94115459Y-105999000D01*
X93844541Y-105999000D01*
X93594244Y-106102676D01*
X93402676Y-106294244D01*
X93299000Y-106544541D01*
X93299000Y-106815459D01*
X93402676Y-107065756D01*
X93424001Y-107087081D01*
X93424000Y-112799697D01*
X89815568Y-116408130D01*
X89769148Y-116439147D01*
X89738131Y-116485567D01*
X89738129Y-116485569D01*
X89646261Y-116623060D01*
X89603109Y-116840000D01*
X89614001Y-116894758D01*
X89614000Y-120419697D01*
X88186000Y-121847697D01*
X88186000Y-114354752D01*
X88196891Y-114299999D01*
X88186000Y-114245246D01*
X88186000Y-114245242D01*
X88153740Y-114083060D01*
X88030853Y-113899147D01*
X87984431Y-113868129D01*
X87041000Y-112924698D01*
X87041000Y-112894541D01*
X87008044Y-112814976D01*
X90359000Y-112814976D01*
X90359000Y-113245024D01*
X90523572Y-113642337D01*
X90827663Y-113946428D01*
X91224976Y-114111000D01*
X91655024Y-114111000D01*
X92052337Y-113946428D01*
X92356428Y-113642337D01*
X92521000Y-113245024D01*
X92521000Y-112814976D01*
X92356428Y-112417663D01*
X92052337Y-112113572D01*
X91655024Y-111949000D01*
X91224976Y-111949000D01*
X90827663Y-112113572D01*
X90523572Y-112417663D01*
X90359000Y-112814976D01*
X87008044Y-112814976D01*
X86937324Y-112644244D01*
X86745756Y-112452676D01*
X86495459Y-112349000D01*
X86224541Y-112349000D01*
X85974244Y-112452676D01*
X85782676Y-112644244D01*
X85679000Y-112894541D01*
X85679000Y-113165459D01*
X85782676Y-113415756D01*
X85974244Y-113607324D01*
X86224541Y-113711000D01*
X86254698Y-113711000D01*
X87074000Y-114530302D01*
X87074001Y-121689696D01*
X83714698Y-125049000D01*
X83684541Y-125049000D01*
X83434244Y-125152676D01*
X83242676Y-125344244D01*
X83139000Y-125594541D01*
X83139000Y-125865459D01*
X83242676Y-126115756D01*
X83434244Y-126307324D01*
X83640811Y-126392887D01*
X79821243Y-130212455D01*
X79627501Y-129922499D01*
X79220312Y-129650424D01*
X78861239Y-129579000D01*
X78618761Y-129579000D01*
X78259688Y-129650424D01*
X77852499Y-129922499D01*
X77580424Y-130329688D01*
X77484884Y-130810000D01*
X77580424Y-131290312D01*
X77852499Y-131697501D01*
X78259688Y-131969576D01*
X78618761Y-132041000D01*
X78861239Y-132041000D01*
X79220312Y-131969576D01*
X79627501Y-131697501D01*
X79849003Y-131366000D01*
X79955247Y-131366000D01*
X80010000Y-131376891D01*
X80064753Y-131366000D01*
X80064758Y-131366000D01*
X80226940Y-131333740D01*
X80410853Y-131210853D01*
X80441872Y-131164430D01*
X81994001Y-129612301D01*
X81994000Y-130579698D01*
X79821243Y-132752455D01*
X79627501Y-132462499D01*
X79220312Y-132190424D01*
X78861239Y-132119000D01*
X78618761Y-132119000D01*
X78259688Y-132190424D01*
X77852499Y-132462499D01*
X77580424Y-132869688D01*
X77484884Y-133350000D01*
X77580424Y-133830312D01*
X77852499Y-134237501D01*
X78259688Y-134509576D01*
X78618761Y-134581000D01*
X78861239Y-134581000D01*
X79220312Y-134509576D01*
X79627501Y-134237501D01*
X79849003Y-133906000D01*
X79955247Y-133906000D01*
X80010000Y-133916891D01*
X80064753Y-133906000D01*
X80064758Y-133906000D01*
X80226940Y-133873740D01*
X80410853Y-133750853D01*
X80441872Y-133704430D01*
X82904431Y-131241871D01*
X82950853Y-131210853D01*
X83073740Y-131026940D01*
X83106000Y-130864758D01*
X83106000Y-130864754D01*
X83116891Y-130810001D01*
X83106000Y-130755248D01*
X83106000Y-129770302D01*
X83264000Y-129612302D01*
X83264001Y-132484697D01*
X81049698Y-134699000D01*
X75160302Y-134699000D01*
X74216000Y-133754698D01*
X74216000Y-133575047D01*
X74938923Y-133575047D01*
X74948794Y-133624678D01*
X75149151Y-134082585D01*
X75509490Y-134428963D01*
X75974953Y-134611079D01*
X76175000Y-134523008D01*
X76175000Y-133375000D01*
X76225000Y-133375000D01*
X76225000Y-134523008D01*
X76425047Y-134611079D01*
X76890510Y-134428963D01*
X77250849Y-134082585D01*
X77451206Y-133624678D01*
X77461077Y-133575047D01*
X77372984Y-133375000D01*
X76225000Y-133375000D01*
X76175000Y-133375000D01*
X75027016Y-133375000D01*
X74938923Y-133575047D01*
X74216000Y-133575047D01*
X74216000Y-133124953D01*
X74938923Y-133124953D01*
X75027016Y-133325000D01*
X76175000Y-133325000D01*
X76175000Y-132176992D01*
X76225000Y-132176992D01*
X76225000Y-133325000D01*
X77372984Y-133325000D01*
X77461077Y-133124953D01*
X77451206Y-133075322D01*
X77250849Y-132617415D01*
X76890510Y-132271037D01*
X76425047Y-132088921D01*
X76225000Y-132176992D01*
X76175000Y-132176992D01*
X75974953Y-132088921D01*
X75509490Y-132271037D01*
X75149151Y-132617415D01*
X74948794Y-133075322D01*
X74938923Y-133124953D01*
X74216000Y-133124953D01*
X74216000Y-131035047D01*
X74938923Y-131035047D01*
X74948794Y-131084678D01*
X75149151Y-131542585D01*
X75509490Y-131888963D01*
X75974953Y-132071079D01*
X76175000Y-131983008D01*
X76175000Y-130835000D01*
X76225000Y-130835000D01*
X76225000Y-131983008D01*
X76425047Y-132071079D01*
X76890510Y-131888963D01*
X77250849Y-131542585D01*
X77451206Y-131084678D01*
X77461077Y-131035047D01*
X77372984Y-130835000D01*
X76225000Y-130835000D01*
X76175000Y-130835000D01*
X75027016Y-130835000D01*
X74938923Y-131035047D01*
X74216000Y-131035047D01*
X74216000Y-130584953D01*
X74938923Y-130584953D01*
X75027016Y-130785000D01*
X76175000Y-130785000D01*
X76175000Y-129636992D01*
X76225000Y-129636992D01*
X76225000Y-130785000D01*
X77372984Y-130785000D01*
X77461077Y-130584953D01*
X77451206Y-130535322D01*
X77250849Y-130077415D01*
X76890510Y-129731037D01*
X76425047Y-129548921D01*
X76225000Y-129636992D01*
X76175000Y-129636992D01*
X75974953Y-129548921D01*
X75509490Y-129731037D01*
X75149151Y-130077415D01*
X74948794Y-130535322D01*
X74938923Y-130584953D01*
X74216000Y-130584953D01*
X74216000Y-128270000D01*
X74944884Y-128270000D01*
X75040424Y-128750312D01*
X75312499Y-129157501D01*
X75719688Y-129429576D01*
X76078761Y-129501000D01*
X76321239Y-129501000D01*
X76680312Y-129429576D01*
X77087501Y-129157501D01*
X77359576Y-128750312D01*
X77455116Y-128270000D01*
X77484884Y-128270000D01*
X77580424Y-128750312D01*
X77852499Y-129157501D01*
X78259688Y-129429576D01*
X78618761Y-129501000D01*
X78861239Y-129501000D01*
X79220312Y-129429576D01*
X79627501Y-129157501D01*
X79849003Y-128826000D01*
X79955247Y-128826000D01*
X80010000Y-128836891D01*
X80064753Y-128826000D01*
X80064758Y-128826000D01*
X80226940Y-128793740D01*
X80410853Y-128670853D01*
X80441872Y-128624430D01*
X81634431Y-127431871D01*
X81680853Y-127400853D01*
X81803740Y-127216940D01*
X81836000Y-127054758D01*
X81836000Y-127054754D01*
X81846891Y-127000001D01*
X81836000Y-126945248D01*
X81836000Y-117894976D01*
X82739000Y-117894976D01*
X82739000Y-118325024D01*
X82903572Y-118722337D01*
X83207663Y-119026428D01*
X83604976Y-119191000D01*
X84035024Y-119191000D01*
X84432337Y-119026428D01*
X84736428Y-118722337D01*
X84901000Y-118325024D01*
X84901000Y-117894976D01*
X84736428Y-117497663D01*
X84432337Y-117193572D01*
X84035024Y-117029000D01*
X83604976Y-117029000D01*
X83207663Y-117193572D01*
X82903572Y-117497663D01*
X82739000Y-117894976D01*
X81836000Y-117894976D01*
X81836000Y-113030000D01*
X82717822Y-113030000D01*
X82801720Y-113451785D01*
X83040642Y-113809358D01*
X83398215Y-114048280D01*
X83713531Y-114111000D01*
X83926469Y-114111000D01*
X84241785Y-114048280D01*
X84599358Y-113809358D01*
X84838280Y-113451785D01*
X84922178Y-113030000D01*
X84838280Y-112608215D01*
X84599358Y-112250642D01*
X84241785Y-112011720D01*
X83926469Y-111949000D01*
X83713531Y-111949000D01*
X83398215Y-112011720D01*
X83040642Y-112250642D01*
X82801720Y-112608215D01*
X82717822Y-113030000D01*
X81836000Y-113030000D01*
X81836000Y-110490000D01*
X82717822Y-110490000D01*
X82801720Y-110911785D01*
X83040642Y-111269358D01*
X83398215Y-111508280D01*
X83713531Y-111571000D01*
X83926469Y-111571000D01*
X84241785Y-111508280D01*
X84599358Y-111269358D01*
X84614510Y-111246681D01*
X90718674Y-111246681D01*
X90782575Y-111437399D01*
X91195173Y-111616868D01*
X91645043Y-111624782D01*
X92063696Y-111459936D01*
X92097425Y-111437399D01*
X92161326Y-111246681D01*
X91440000Y-110525355D01*
X90718674Y-111246681D01*
X84614510Y-111246681D01*
X84838280Y-110911785D01*
X84881392Y-110695043D01*
X90305218Y-110695043D01*
X90470064Y-111113696D01*
X90492601Y-111147425D01*
X90683319Y-111211326D01*
X91404645Y-110490000D01*
X91475355Y-110490000D01*
X92196681Y-111211326D01*
X92387399Y-111147425D01*
X92566868Y-110734827D01*
X92574782Y-110284957D01*
X92409936Y-109866304D01*
X92387399Y-109832575D01*
X92196681Y-109768674D01*
X91475355Y-110490000D01*
X91404645Y-110490000D01*
X90683319Y-109768674D01*
X90492601Y-109832575D01*
X90313132Y-110245173D01*
X90305218Y-110695043D01*
X84881392Y-110695043D01*
X84922178Y-110490000D01*
X84838280Y-110068215D01*
X84614511Y-109733319D01*
X90718674Y-109733319D01*
X91440000Y-110454645D01*
X92161326Y-109733319D01*
X92097425Y-109542601D01*
X91684827Y-109363132D01*
X91234957Y-109355218D01*
X90816304Y-109520064D01*
X90782575Y-109542601D01*
X90718674Y-109733319D01*
X84614511Y-109733319D01*
X84599358Y-109710642D01*
X84241785Y-109471720D01*
X83926469Y-109409000D01*
X83713531Y-109409000D01*
X83398215Y-109471720D01*
X83040642Y-109710642D01*
X82801720Y-110068215D01*
X82717822Y-110490000D01*
X81836000Y-110490000D01*
X81836000Y-107734976D01*
X82739000Y-107734976D01*
X82739000Y-108165024D01*
X82903572Y-108562337D01*
X83207663Y-108866428D01*
X83604976Y-109031000D01*
X84035024Y-109031000D01*
X84432337Y-108866428D01*
X84736428Y-108562337D01*
X84901000Y-108165024D01*
X84901000Y-107734976D01*
X84736428Y-107337663D01*
X84432337Y-107033572D01*
X84035024Y-106869000D01*
X83604976Y-106869000D01*
X83207663Y-107033572D01*
X82903572Y-107337663D01*
X82739000Y-107734976D01*
X81836000Y-107734976D01*
X81836000Y-105194976D01*
X82739000Y-105194976D01*
X82739000Y-105625024D01*
X82903572Y-106022337D01*
X83207663Y-106326428D01*
X83604976Y-106491000D01*
X84035024Y-106491000D01*
X84432337Y-106326428D01*
X84736428Y-106022337D01*
X84901000Y-105625024D01*
X84901000Y-105194976D01*
X84736428Y-104797663D01*
X84432337Y-104493572D01*
X84035024Y-104329000D01*
X83604976Y-104329000D01*
X83207663Y-104493572D01*
X82903572Y-104797663D01*
X82739000Y-105194976D01*
X81836000Y-105194976D01*
X81836000Y-104194752D01*
X81846891Y-104139999D01*
X81836000Y-104085246D01*
X81836000Y-104085242D01*
X81803740Y-103923060D01*
X81680853Y-103739147D01*
X81634430Y-103708128D01*
X80441871Y-102515569D01*
X80410853Y-102469147D01*
X80226940Y-102346260D01*
X80064758Y-102314000D01*
X80064753Y-102314000D01*
X80010000Y-102303109D01*
X79978464Y-102309382D01*
X79978464Y-102020000D01*
X79948894Y-101871341D01*
X79864686Y-101745314D01*
X79738659Y-101661106D01*
X79590000Y-101631536D01*
X77890000Y-101631536D01*
X77741341Y-101661106D01*
X77615314Y-101745314D01*
X77531106Y-101871341D01*
X77501536Y-102020000D01*
X77501536Y-103720000D01*
X77531106Y-103868659D01*
X77615314Y-103994686D01*
X77741341Y-104078894D01*
X77890000Y-104108464D01*
X79590000Y-104108464D01*
X79738659Y-104078894D01*
X79864686Y-103994686D01*
X79948894Y-103868659D01*
X79978464Y-103720000D01*
X79978464Y-103624766D01*
X80724001Y-104370303D01*
X80724000Y-126769698D01*
X79821243Y-127672455D01*
X79627501Y-127382499D01*
X79220312Y-127110424D01*
X78861239Y-127039000D01*
X78618761Y-127039000D01*
X78259688Y-127110424D01*
X77852499Y-127382499D01*
X77580424Y-127789688D01*
X77484884Y-128270000D01*
X77455116Y-128270000D01*
X77359576Y-127789688D01*
X77087501Y-127382499D01*
X76680312Y-127110424D01*
X76321239Y-127039000D01*
X76078761Y-127039000D01*
X75719688Y-127110424D01*
X75312499Y-127382499D01*
X75040424Y-127789688D01*
X74944884Y-128270000D01*
X74216000Y-128270000D01*
X74216000Y-124880000D01*
X74961536Y-124880000D01*
X74961536Y-126580000D01*
X74991106Y-126728659D01*
X75075314Y-126854686D01*
X75201341Y-126938894D01*
X75350000Y-126968464D01*
X77050000Y-126968464D01*
X77198659Y-126938894D01*
X77324686Y-126854686D01*
X77408894Y-126728659D01*
X77438464Y-126580000D01*
X77438464Y-125730000D01*
X77484884Y-125730000D01*
X77580424Y-126210312D01*
X77852499Y-126617501D01*
X78259688Y-126889576D01*
X78618761Y-126961000D01*
X78861239Y-126961000D01*
X79220312Y-126889576D01*
X79627501Y-126617501D01*
X79899576Y-126210312D01*
X79995116Y-125730000D01*
X79899576Y-125249688D01*
X79627501Y-124842499D01*
X79220312Y-124570424D01*
X78861239Y-124499000D01*
X78618761Y-124499000D01*
X78259688Y-124570424D01*
X77852499Y-124842499D01*
X77580424Y-125249688D01*
X77484884Y-125730000D01*
X77438464Y-125730000D01*
X77438464Y-124880000D01*
X77408894Y-124731341D01*
X77324686Y-124605314D01*
X77198659Y-124521106D01*
X77050000Y-124491536D01*
X75350000Y-124491536D01*
X75201341Y-124521106D01*
X75075314Y-124605314D01*
X74991106Y-124731341D01*
X74961536Y-124880000D01*
X74216000Y-124880000D01*
X74216000Y-123190000D01*
X74944884Y-123190000D01*
X75040424Y-123670312D01*
X75312499Y-124077501D01*
X75719688Y-124349576D01*
X76078761Y-124421000D01*
X76321239Y-124421000D01*
X76680312Y-124349576D01*
X77087501Y-124077501D01*
X77359576Y-123670312D01*
X77455116Y-123190000D01*
X77484884Y-123190000D01*
X77580424Y-123670312D01*
X77852499Y-124077501D01*
X78259688Y-124349576D01*
X78618761Y-124421000D01*
X78861239Y-124421000D01*
X79220312Y-124349576D01*
X79627501Y-124077501D01*
X79899576Y-123670312D01*
X79995116Y-123190000D01*
X79899576Y-122709688D01*
X79627501Y-122302499D01*
X79220312Y-122030424D01*
X78861239Y-121959000D01*
X78618761Y-121959000D01*
X78259688Y-122030424D01*
X77852499Y-122302499D01*
X77580424Y-122709688D01*
X77484884Y-123190000D01*
X77455116Y-123190000D01*
X77359576Y-122709688D01*
X77087501Y-122302499D01*
X76680312Y-122030424D01*
X76321239Y-121959000D01*
X76078761Y-121959000D01*
X75719688Y-122030424D01*
X75312499Y-122302499D01*
X75040424Y-122709688D01*
X74944884Y-123190000D01*
X74216000Y-123190000D01*
X74216000Y-120782750D01*
X74919000Y-120782750D01*
X74919000Y-121585731D01*
X74984616Y-121744142D01*
X75105858Y-121865384D01*
X75264269Y-121931000D01*
X76067250Y-121931000D01*
X76175000Y-121823250D01*
X76175000Y-120675000D01*
X76225000Y-120675000D01*
X76225000Y-121823250D01*
X76332750Y-121931000D01*
X77135731Y-121931000D01*
X77294142Y-121865384D01*
X77415384Y-121744142D01*
X77481000Y-121585731D01*
X77481000Y-120885490D01*
X77488794Y-120924678D01*
X77689151Y-121382585D01*
X78049490Y-121728963D01*
X78514953Y-121911079D01*
X78715000Y-121823008D01*
X78715000Y-120675000D01*
X78765000Y-120675000D01*
X78765000Y-121823008D01*
X78965047Y-121911079D01*
X79430510Y-121728963D01*
X79790849Y-121382585D01*
X79991206Y-120924678D01*
X80001077Y-120875047D01*
X79912984Y-120675000D01*
X78765000Y-120675000D01*
X78715000Y-120675000D01*
X77567016Y-120675000D01*
X77481000Y-120870330D01*
X77481000Y-120782750D01*
X77373250Y-120675000D01*
X76225000Y-120675000D01*
X76175000Y-120675000D01*
X75026750Y-120675000D01*
X74919000Y-120782750D01*
X74216000Y-120782750D01*
X74216000Y-119714269D01*
X74919000Y-119714269D01*
X74919000Y-120517250D01*
X75026750Y-120625000D01*
X76175000Y-120625000D01*
X76175000Y-119476750D01*
X76225000Y-119476750D01*
X76225000Y-120625000D01*
X77373250Y-120625000D01*
X77481000Y-120517250D01*
X77481000Y-120429670D01*
X77567016Y-120625000D01*
X78715000Y-120625000D01*
X78715000Y-119476992D01*
X78765000Y-119476992D01*
X78765000Y-120625000D01*
X79912984Y-120625000D01*
X80001077Y-120424953D01*
X79991206Y-120375322D01*
X79790849Y-119917415D01*
X79430510Y-119571037D01*
X78965047Y-119388921D01*
X78765000Y-119476992D01*
X78715000Y-119476992D01*
X78514953Y-119388921D01*
X78049490Y-119571037D01*
X77689151Y-119917415D01*
X77488794Y-120375322D01*
X77481000Y-120414510D01*
X77481000Y-119714269D01*
X77415384Y-119555858D01*
X77294142Y-119434616D01*
X77135731Y-119369000D01*
X76332750Y-119369000D01*
X76225000Y-119476750D01*
X76175000Y-119476750D01*
X76067250Y-119369000D01*
X75264269Y-119369000D01*
X75105858Y-119434616D01*
X74984616Y-119555858D01*
X74919000Y-119714269D01*
X74216000Y-119714269D01*
X74216000Y-118110000D01*
X74944884Y-118110000D01*
X75040424Y-118590312D01*
X75312499Y-118997501D01*
X75719688Y-119269576D01*
X76078761Y-119341000D01*
X76321239Y-119341000D01*
X76680312Y-119269576D01*
X77087501Y-118997501D01*
X77359576Y-118590312D01*
X77455116Y-118110000D01*
X77359576Y-117629688D01*
X77112559Y-117260000D01*
X77501536Y-117260000D01*
X77501536Y-118960000D01*
X77531106Y-119108659D01*
X77615314Y-119234686D01*
X77741341Y-119318894D01*
X77890000Y-119348464D01*
X79590000Y-119348464D01*
X79738659Y-119318894D01*
X79864686Y-119234686D01*
X79948894Y-119108659D01*
X79978464Y-118960000D01*
X79978464Y-117260000D01*
X79948894Y-117111341D01*
X79864686Y-116985314D01*
X79738659Y-116901106D01*
X79590000Y-116871536D01*
X77890000Y-116871536D01*
X77741341Y-116901106D01*
X77615314Y-116985314D01*
X77531106Y-117111341D01*
X77501536Y-117260000D01*
X77112559Y-117260000D01*
X77087501Y-117222499D01*
X76680312Y-116950424D01*
X76321239Y-116879000D01*
X76078761Y-116879000D01*
X75719688Y-116950424D01*
X75312499Y-117222499D01*
X75040424Y-117629688D01*
X74944884Y-118110000D01*
X74216000Y-118110000D01*
X74216000Y-115570000D01*
X74944884Y-115570000D01*
X75040424Y-116050312D01*
X75312499Y-116457501D01*
X75719688Y-116729576D01*
X76078761Y-116801000D01*
X76321239Y-116801000D01*
X76680312Y-116729576D01*
X77087501Y-116457501D01*
X77359576Y-116050312D01*
X77455116Y-115570000D01*
X77359576Y-115089688D01*
X77112559Y-114720000D01*
X77501536Y-114720000D01*
X77501536Y-116420000D01*
X77531106Y-116568659D01*
X77615314Y-116694686D01*
X77741341Y-116778894D01*
X77890000Y-116808464D01*
X79590000Y-116808464D01*
X79738659Y-116778894D01*
X79864686Y-116694686D01*
X79948894Y-116568659D01*
X79978464Y-116420000D01*
X79978464Y-114720000D01*
X79948894Y-114571341D01*
X79864686Y-114445314D01*
X79738659Y-114361106D01*
X79590000Y-114331536D01*
X77890000Y-114331536D01*
X77741341Y-114361106D01*
X77615314Y-114445314D01*
X77531106Y-114571341D01*
X77501536Y-114720000D01*
X77112559Y-114720000D01*
X77087501Y-114682499D01*
X76680312Y-114410424D01*
X76321239Y-114339000D01*
X76078761Y-114339000D01*
X75719688Y-114410424D01*
X75312499Y-114682499D01*
X75040424Y-115089688D01*
X74944884Y-115570000D01*
X74216000Y-115570000D01*
X74216000Y-114530302D01*
X75118757Y-113627545D01*
X75312499Y-113917501D01*
X75719688Y-114189576D01*
X76078761Y-114261000D01*
X76321239Y-114261000D01*
X76680312Y-114189576D01*
X77087501Y-113917501D01*
X77359576Y-113510312D01*
X77455116Y-113030000D01*
X77359576Y-112549688D01*
X77112559Y-112180000D01*
X77501536Y-112180000D01*
X77501536Y-113880000D01*
X77531106Y-114028659D01*
X77615314Y-114154686D01*
X77741341Y-114238894D01*
X77890000Y-114268464D01*
X79590000Y-114268464D01*
X79738659Y-114238894D01*
X79864686Y-114154686D01*
X79948894Y-114028659D01*
X79978464Y-113880000D01*
X79978464Y-112180000D01*
X79948894Y-112031341D01*
X79864686Y-111905314D01*
X79738659Y-111821106D01*
X79590000Y-111791536D01*
X77890000Y-111791536D01*
X77741341Y-111821106D01*
X77615314Y-111905314D01*
X77531106Y-112031341D01*
X77501536Y-112180000D01*
X77112559Y-112180000D01*
X77087501Y-112142499D01*
X76680312Y-111870424D01*
X76321239Y-111799000D01*
X76078761Y-111799000D01*
X75719688Y-111870424D01*
X75312499Y-112142499D01*
X75090997Y-112474000D01*
X74984752Y-112474000D01*
X74929999Y-112463109D01*
X74875246Y-112474000D01*
X74875242Y-112474000D01*
X74713060Y-112506260D01*
X74529147Y-112629147D01*
X74498128Y-112675570D01*
X73305568Y-113868130D01*
X73259148Y-113899147D01*
X73228131Y-113945567D01*
X73228129Y-113945569D01*
X73136261Y-114083060D01*
X73093109Y-114300000D01*
X72211000Y-114300000D01*
X72211000Y-110354541D01*
X72979000Y-110354541D01*
X72979000Y-110625459D01*
X73082676Y-110875756D01*
X73274244Y-111067324D01*
X73524541Y-111171000D01*
X73795459Y-111171000D01*
X74045756Y-111067324D01*
X74237324Y-110875756D01*
X74341000Y-110625459D01*
X74341000Y-110490000D01*
X74944884Y-110490000D01*
X75040424Y-110970312D01*
X75312499Y-111377501D01*
X75719688Y-111649576D01*
X76078761Y-111721000D01*
X76321239Y-111721000D01*
X76680312Y-111649576D01*
X77087501Y-111377501D01*
X77359576Y-110970312D01*
X77455116Y-110490000D01*
X77359576Y-110009688D01*
X77112559Y-109640000D01*
X77501536Y-109640000D01*
X77501536Y-111340000D01*
X77531106Y-111488659D01*
X77615314Y-111614686D01*
X77741341Y-111698894D01*
X77890000Y-111728464D01*
X79590000Y-111728464D01*
X79738659Y-111698894D01*
X79864686Y-111614686D01*
X79948894Y-111488659D01*
X79978464Y-111340000D01*
X79978464Y-109640000D01*
X79948894Y-109491341D01*
X79864686Y-109365314D01*
X79738659Y-109281106D01*
X79590000Y-109251536D01*
X77890000Y-109251536D01*
X77741341Y-109281106D01*
X77615314Y-109365314D01*
X77531106Y-109491341D01*
X77501536Y-109640000D01*
X77112559Y-109640000D01*
X77087501Y-109602499D01*
X76680312Y-109330424D01*
X76321239Y-109259000D01*
X76078761Y-109259000D01*
X75719688Y-109330424D01*
X75312499Y-109602499D01*
X75040424Y-110009688D01*
X74944884Y-110490000D01*
X74341000Y-110490000D01*
X74341000Y-110354541D01*
X74237324Y-110104244D01*
X74216000Y-110082920D01*
X74216000Y-107950000D01*
X74944884Y-107950000D01*
X75040424Y-108430312D01*
X75312499Y-108837501D01*
X75719688Y-109109576D01*
X76078761Y-109181000D01*
X76321239Y-109181000D01*
X76680312Y-109109576D01*
X77087501Y-108837501D01*
X77359576Y-108430312D01*
X77455116Y-107950000D01*
X77359576Y-107469688D01*
X77112559Y-107100000D01*
X77501536Y-107100000D01*
X77501536Y-108800000D01*
X77531106Y-108948659D01*
X77615314Y-109074686D01*
X77741341Y-109158894D01*
X77890000Y-109188464D01*
X79590000Y-109188464D01*
X79738659Y-109158894D01*
X79864686Y-109074686D01*
X79948894Y-108948659D01*
X79978464Y-108800000D01*
X79978464Y-107100000D01*
X79948894Y-106951341D01*
X79864686Y-106825314D01*
X79738659Y-106741106D01*
X79590000Y-106711536D01*
X77890000Y-106711536D01*
X77741341Y-106741106D01*
X77615314Y-106825314D01*
X77531106Y-106951341D01*
X77501536Y-107100000D01*
X77112559Y-107100000D01*
X77087501Y-107062499D01*
X76680312Y-106790424D01*
X76321239Y-106719000D01*
X76078761Y-106719000D01*
X75719688Y-106790424D01*
X75312499Y-107062499D01*
X75040424Y-107469688D01*
X74944884Y-107950000D01*
X74216000Y-107950000D01*
X74216000Y-105635047D01*
X74938921Y-105635047D01*
X75121037Y-106100510D01*
X75467415Y-106460849D01*
X75925322Y-106661206D01*
X75974953Y-106671077D01*
X76175000Y-106582984D01*
X76175000Y-105435000D01*
X76225000Y-105435000D01*
X76225000Y-106582984D01*
X76425047Y-106671077D01*
X76474678Y-106661206D01*
X76932585Y-106460849D01*
X77278963Y-106100510D01*
X77461079Y-105635047D01*
X77373008Y-105435000D01*
X76225000Y-105435000D01*
X76175000Y-105435000D01*
X75026992Y-105435000D01*
X74938921Y-105635047D01*
X74216000Y-105635047D01*
X74216000Y-105184953D01*
X74938921Y-105184953D01*
X75026992Y-105385000D01*
X76175000Y-105385000D01*
X76175000Y-104237016D01*
X76225000Y-104237016D01*
X76225000Y-105385000D01*
X77373008Y-105385000D01*
X77461079Y-105184953D01*
X77278963Y-104719490D01*
X77125653Y-104560000D01*
X77501536Y-104560000D01*
X77501536Y-106260000D01*
X77531106Y-106408659D01*
X77615314Y-106534686D01*
X77741341Y-106618894D01*
X77890000Y-106648464D01*
X79590000Y-106648464D01*
X79738659Y-106618894D01*
X79864686Y-106534686D01*
X79948894Y-106408659D01*
X79978464Y-106260000D01*
X79978464Y-104560000D01*
X79948894Y-104411341D01*
X79864686Y-104285314D01*
X79738659Y-104201106D01*
X79590000Y-104171536D01*
X77890000Y-104171536D01*
X77741341Y-104201106D01*
X77615314Y-104285314D01*
X77531106Y-104411341D01*
X77501536Y-104560000D01*
X77125653Y-104560000D01*
X76932585Y-104359151D01*
X76474678Y-104158794D01*
X76425047Y-104148923D01*
X76225000Y-104237016D01*
X76175000Y-104237016D01*
X75974953Y-104148923D01*
X75925322Y-104158794D01*
X75467415Y-104359151D01*
X75121037Y-104719490D01*
X74938921Y-105184953D01*
X74216000Y-105184953D01*
X74216000Y-103095047D01*
X74938921Y-103095047D01*
X75121037Y-103560510D01*
X75467415Y-103920849D01*
X75925322Y-104121206D01*
X75974953Y-104131077D01*
X76175000Y-104042984D01*
X76175000Y-102895000D01*
X76225000Y-102895000D01*
X76225000Y-104042984D01*
X76425047Y-104131077D01*
X76474678Y-104121206D01*
X76932585Y-103920849D01*
X77278963Y-103560510D01*
X77461079Y-103095047D01*
X77373008Y-102895000D01*
X76225000Y-102895000D01*
X76175000Y-102895000D01*
X75026992Y-102895000D01*
X74938921Y-103095047D01*
X74216000Y-103095047D01*
X74216000Y-102644953D01*
X74938921Y-102644953D01*
X75026992Y-102845000D01*
X76175000Y-102845000D01*
X76175000Y-101697016D01*
X76225000Y-101697016D01*
X76225000Y-102845000D01*
X77373008Y-102845000D01*
X77461079Y-102644953D01*
X77278963Y-102179490D01*
X76932585Y-101819151D01*
X76474678Y-101618794D01*
X76425047Y-101608923D01*
X76225000Y-101697016D01*
X76175000Y-101697016D01*
X75974953Y-101608923D01*
X75925322Y-101618794D01*
X75467415Y-101819151D01*
X75121037Y-102179490D01*
X74938921Y-102644953D01*
X74216000Y-102644953D01*
X74216000Y-100330000D01*
X74944884Y-100330000D01*
X75040424Y-100810312D01*
X75312499Y-101217501D01*
X75719688Y-101489576D01*
X76078761Y-101561000D01*
X76321239Y-101561000D01*
X76680312Y-101489576D01*
X77087501Y-101217501D01*
X77359576Y-100810312D01*
X77455116Y-100330000D01*
X77359576Y-99849688D01*
X77112559Y-99480000D01*
X77501536Y-99480000D01*
X77501536Y-101180000D01*
X77531106Y-101328659D01*
X77615314Y-101454686D01*
X77741341Y-101538894D01*
X77890000Y-101568464D01*
X79590000Y-101568464D01*
X79738659Y-101538894D01*
X79864686Y-101454686D01*
X79948894Y-101328659D01*
X79978464Y-101180000D01*
X79978464Y-99480000D01*
X79948894Y-99331341D01*
X79864686Y-99205314D01*
X79738659Y-99121106D01*
X79590000Y-99091536D01*
X77890000Y-99091536D01*
X77741341Y-99121106D01*
X77615314Y-99205314D01*
X77531106Y-99331341D01*
X77501536Y-99480000D01*
X77112559Y-99480000D01*
X77087501Y-99442499D01*
X76680312Y-99170424D01*
X76321239Y-99099000D01*
X76078761Y-99099000D01*
X75719688Y-99170424D01*
X75312499Y-99442499D01*
X75040424Y-99849688D01*
X74944884Y-100330000D01*
X74216000Y-100330000D01*
X74216000Y-99290302D01*
X75118757Y-98387545D01*
X75312499Y-98677501D01*
X75719688Y-98949576D01*
X76078761Y-99021000D01*
X76321239Y-99021000D01*
X76680312Y-98949576D01*
X77087501Y-98677501D01*
X77359576Y-98270312D01*
X77455116Y-97790000D01*
X77377335Y-97398967D01*
X77700302Y-97076000D01*
X77736569Y-97076000D01*
X77580424Y-97309688D01*
X77484884Y-97790000D01*
X77580424Y-98270312D01*
X77852499Y-98677501D01*
X78259688Y-98949576D01*
X78618761Y-99021000D01*
X78861239Y-99021000D01*
X79220312Y-98949576D01*
X79627501Y-98677501D01*
X79899576Y-98270312D01*
X79995116Y-97790000D01*
X79899576Y-97309688D01*
X79743431Y-97076000D01*
X81225247Y-97076000D01*
X81280000Y-97086891D01*
X81334753Y-97076000D01*
X81334758Y-97076000D01*
X81496940Y-97043740D01*
X81680853Y-96920853D01*
X81711872Y-96874430D01*
X83471761Y-95114541D01*
X88219000Y-95114541D01*
X88219000Y-95385459D01*
X88322676Y-95635756D01*
X88344001Y-95657081D01*
X88344000Y-106625247D01*
X88333109Y-106680000D01*
X88344000Y-106734753D01*
X88344000Y-106734757D01*
X88376260Y-106896939D01*
X88499147Y-107080853D01*
X88545570Y-107111872D01*
X89738128Y-108304430D01*
X89769147Y-108350853D01*
X89953060Y-108473740D01*
X90115242Y-108506000D01*
X90115246Y-108506000D01*
X90169999Y-108516891D01*
X90224752Y-108506000D01*
X90511399Y-108506000D01*
X90660642Y-108729358D01*
X91018215Y-108968280D01*
X91333531Y-109031000D01*
X91546469Y-109031000D01*
X91861785Y-108968280D01*
X92219358Y-108729358D01*
X92458280Y-108371785D01*
X92542178Y-107950000D01*
X92458280Y-107528215D01*
X92219358Y-107170642D01*
X91861785Y-106931720D01*
X91546469Y-106869000D01*
X91333531Y-106869000D01*
X91018215Y-106931720D01*
X90660642Y-107170642D01*
X90511399Y-107394000D01*
X90400302Y-107394000D01*
X89456000Y-106449698D01*
X89456000Y-105410000D01*
X90337822Y-105410000D01*
X90421720Y-105831785D01*
X90660642Y-106189358D01*
X91018215Y-106428280D01*
X91333531Y-106491000D01*
X91546469Y-106491000D01*
X91861785Y-106428280D01*
X92219358Y-106189358D01*
X92458280Y-105831785D01*
X92542178Y-105410000D01*
X92458280Y-104988215D01*
X92219358Y-104630642D01*
X91861785Y-104391720D01*
X91546469Y-104329000D01*
X91333531Y-104329000D01*
X91018215Y-104391720D01*
X90660642Y-104630642D01*
X90421720Y-104988215D01*
X90337822Y-105410000D01*
X89456000Y-105410000D01*
X89456000Y-95657080D01*
X89477324Y-95635756D01*
X89535000Y-95496513D01*
X89592676Y-95635756D01*
X89614001Y-95657081D01*
X89614000Y-100205249D01*
X89603109Y-100260002D01*
X89614000Y-100314755D01*
X89614000Y-100314759D01*
X89646260Y-100476941D01*
X89769147Y-100660855D01*
X89815570Y-100691874D01*
X90759000Y-101635304D01*
X90759000Y-101665461D01*
X90862676Y-101915758D01*
X91054244Y-102107326D01*
X91304541Y-102211002D01*
X91575459Y-102211002D01*
X91825756Y-102107326D01*
X92017324Y-101915758D01*
X92121000Y-101665461D01*
X92121000Y-101394543D01*
X92017324Y-101144246D01*
X91825756Y-100952678D01*
X91575459Y-100849002D01*
X91545302Y-100849002D01*
X90726000Y-100029700D01*
X90726000Y-95657080D01*
X90747324Y-95635756D01*
X90851000Y-95385459D01*
X90851000Y-95114541D01*
X90747324Y-94864244D01*
X90555756Y-94672676D01*
X90305459Y-94569000D01*
X90034541Y-94569000D01*
X89784244Y-94672676D01*
X89592676Y-94864244D01*
X89535000Y-95003487D01*
X89477324Y-94864244D01*
X89285756Y-94672676D01*
X89035459Y-94569000D01*
X88764541Y-94569000D01*
X88514244Y-94672676D01*
X88322676Y-94864244D01*
X88219000Y-95114541D01*
X83471761Y-95114541D01*
X84050302Y-94536000D01*
X120419698Y-94536000D01*
X128859000Y-102975303D01*
X128859000Y-103005459D01*
X128962676Y-103255756D01*
X129154244Y-103447324D01*
X129404541Y-103551000D01*
X129675459Y-103551000D01*
X129925756Y-103447324D01*
X130117324Y-103255756D01*
X130221000Y-103005459D01*
X130221000Y-102734541D01*
X130117324Y-102484244D01*
X129925756Y-102292676D01*
X129675459Y-102189000D01*
X129645303Y-102189000D01*
X121081872Y-93625570D01*
X121050853Y-93579147D01*
X120866940Y-93456260D01*
X120704758Y-93424000D01*
X120704753Y-93424000D01*
X120650000Y-93413109D01*
X120595247Y-93424000D01*
X84376000Y-93424000D01*
X84376000Y-92782303D01*
X84658130Y-93064433D01*
X84689147Y-93110853D01*
X84735567Y-93141870D01*
X84735568Y-93141871D01*
X84873059Y-93233740D01*
X84907847Y-93240660D01*
X85035242Y-93266000D01*
X85035246Y-93266000D01*
X85090000Y-93276891D01*
X85144754Y-93266000D01*
X127862920Y-93266000D01*
X127884244Y-93287324D01*
X128134541Y-93391000D01*
X128405459Y-93391000D01*
X128655756Y-93287324D01*
X128847324Y-93095756D01*
X128951000Y-92845459D01*
X128951000Y-92574541D01*
X128847324Y-92324244D01*
X128655756Y-92132676D01*
X128405459Y-92029000D01*
X128134541Y-92029000D01*
X127884244Y-92132676D01*
X127862920Y-92154000D01*
X85320303Y-92154000D01*
X85162303Y-91996000D01*
X92302920Y-91996000D01*
X92324244Y-92017324D01*
X92574541Y-92121000D01*
X92845459Y-92121000D01*
X93095756Y-92017324D01*
X93117080Y-91996000D01*
X126945247Y-91996000D01*
X127000000Y-92006891D01*
X127054753Y-91996000D01*
X127054758Y-91996000D01*
X127216940Y-91963740D01*
X127400853Y-91840853D01*
X127431872Y-91794430D01*
X130915303Y-88311000D01*
X130945459Y-88311000D01*
X131195756Y-88207324D01*
X131387324Y-88015756D01*
X131491000Y-87765459D01*
X131491000Y-87494541D01*
X131387324Y-87244244D01*
X131195756Y-87052676D01*
X130945459Y-86949000D01*
X130674541Y-86949000D01*
X130424244Y-87052676D01*
X130232676Y-87244244D01*
X130129000Y-87494541D01*
X130129000Y-87524697D01*
X126769698Y-90884000D01*
X93117080Y-90884000D01*
X93095756Y-90862676D01*
X92845459Y-90759000D01*
X92574541Y-90759000D01*
X92324244Y-90862676D01*
X92302920Y-90884000D01*
X85320303Y-90884000D01*
X81916303Y-87480000D01*
X101967252Y-87480000D01*
X102132643Y-88311475D01*
X102603635Y-89016365D01*
X103308525Y-89487357D01*
X103930119Y-89611000D01*
X104349881Y-89611000D01*
X104971475Y-89487357D01*
X105676365Y-89016365D01*
X106147357Y-88311475D01*
X106312748Y-87480000D01*
X106147357Y-86648525D01*
X105676365Y-85943635D01*
X104971475Y-85472643D01*
X104349881Y-85349000D01*
X103930119Y-85349000D01*
X103308525Y-85472643D01*
X102603635Y-85943635D01*
X102132643Y-86648525D01*
X101967252Y-87480000D01*
X81916303Y-87480000D01*
X80441872Y-86005570D01*
X80410853Y-85959147D01*
X80226940Y-85836260D01*
X80064758Y-85804000D01*
X80064753Y-85804000D01*
X80021000Y-85795297D01*
X80021000Y-85222750D01*
X79913250Y-85115000D01*
X78765000Y-85115000D01*
X78765000Y-85135000D01*
X78715000Y-85135000D01*
X78715000Y-85115000D01*
X77566750Y-85115000D01*
X77459000Y-85222750D01*
X77459000Y-85562698D01*
X77438464Y-85542162D01*
X77438464Y-84240000D01*
X77421412Y-84154269D01*
X77459000Y-84154269D01*
X77459000Y-84957250D01*
X77566750Y-85065000D01*
X78715000Y-85065000D01*
X78715000Y-83916750D01*
X78765000Y-83916750D01*
X78765000Y-85065000D01*
X79913250Y-85065000D01*
X80021000Y-84957250D01*
X80021000Y-84154269D01*
X79955384Y-83995858D01*
X79834142Y-83874616D01*
X79675731Y-83809000D01*
X78872750Y-83809000D01*
X78765000Y-83916750D01*
X78715000Y-83916750D01*
X78607250Y-83809000D01*
X77804269Y-83809000D01*
X77645858Y-83874616D01*
X77524616Y-83995858D01*
X77459000Y-84154269D01*
X77421412Y-84154269D01*
X77408894Y-84091341D01*
X77324686Y-83965314D01*
X77198659Y-83881106D01*
X77050000Y-83851536D01*
X75350000Y-83851536D01*
X75201341Y-83881106D01*
X75075314Y-83965314D01*
X74991106Y-84091341D01*
X74961536Y-84240000D01*
X74961536Y-85940000D01*
X74991106Y-86088659D01*
X75075314Y-86214686D01*
X75201341Y-86298894D01*
X75350000Y-86328464D01*
X76652162Y-86328464D01*
X77023298Y-86699600D01*
X76680312Y-86470424D01*
X76321239Y-86399000D01*
X76078761Y-86399000D01*
X75719688Y-86470424D01*
X75312499Y-86742499D01*
X75040424Y-87149688D01*
X74944884Y-87630000D01*
X75040424Y-88110312D01*
X75312499Y-88517501D01*
X75719688Y-88789576D01*
X76078761Y-88861000D01*
X76321239Y-88861000D01*
X76591033Y-88807335D01*
X77023298Y-89239600D01*
X76680312Y-89010424D01*
X76321239Y-88939000D01*
X76078761Y-88939000D01*
X75719688Y-89010424D01*
X75312499Y-89282499D01*
X75040424Y-89689688D01*
X74944884Y-90170000D01*
X75040424Y-90650312D01*
X75312499Y-91057501D01*
X75719688Y-91329576D01*
X76078761Y-91401000D01*
X76321239Y-91401000D01*
X76680312Y-91329576D01*
X77087501Y-91057501D01*
X77359576Y-90650312D01*
X77455116Y-90170000D01*
X77359576Y-89689688D01*
X77124460Y-89337812D01*
X77253060Y-89423740D01*
X77415242Y-89456000D01*
X77415246Y-89456000D01*
X77469999Y-89466891D01*
X77524752Y-89456000D01*
X77736569Y-89456000D01*
X77580424Y-89689688D01*
X77484884Y-90170000D01*
X77580424Y-90650312D01*
X77852499Y-91057501D01*
X78259688Y-91329576D01*
X78618761Y-91401000D01*
X78861239Y-91401000D01*
X79220312Y-91329576D01*
X79627501Y-91057501D01*
X79849003Y-90726000D01*
X81049698Y-90726000D01*
X83264000Y-92940302D01*
X83264001Y-93749697D01*
X81049698Y-95964000D01*
X79798981Y-95964000D01*
X79991206Y-95524678D01*
X80001077Y-95475047D01*
X79912984Y-95275000D01*
X78765000Y-95275000D01*
X78765000Y-95295000D01*
X78715000Y-95295000D01*
X78715000Y-95275000D01*
X77567016Y-95275000D01*
X77478923Y-95475047D01*
X77488794Y-95524678D01*
X77681019Y-95964000D01*
X77524752Y-95964000D01*
X77469999Y-95953109D01*
X77415246Y-95964000D01*
X77415242Y-95964000D01*
X77253060Y-95996260D01*
X77199148Y-96032283D01*
X77250849Y-95982585D01*
X77451206Y-95524678D01*
X77461077Y-95475047D01*
X77372984Y-95275000D01*
X76225000Y-95275000D01*
X76225000Y-96423008D01*
X76425047Y-96511079D01*
X76864596Y-96339102D01*
X76591033Y-96612665D01*
X76321239Y-96559000D01*
X76078761Y-96559000D01*
X75719688Y-96630424D01*
X75312499Y-96902499D01*
X75090997Y-97234000D01*
X74984752Y-97234000D01*
X74929999Y-97223109D01*
X74875246Y-97234000D01*
X74875242Y-97234000D01*
X74713060Y-97266260D01*
X74529147Y-97389147D01*
X74498129Y-97435569D01*
X73305568Y-98628130D01*
X73259148Y-98659147D01*
X73228131Y-98705567D01*
X73228129Y-98705569D01*
X73136261Y-98843060D01*
X73093109Y-99060000D01*
X73104001Y-99114758D01*
X73104000Y-110082920D01*
X73082676Y-110104244D01*
X72979000Y-110354541D01*
X72211000Y-110354541D01*
X72211000Y-95475047D01*
X74938923Y-95475047D01*
X74948794Y-95524678D01*
X75149151Y-95982585D01*
X75509490Y-96328963D01*
X75974953Y-96511079D01*
X76175000Y-96423008D01*
X76175000Y-95275000D01*
X75027016Y-95275000D01*
X74938923Y-95475047D01*
X72211000Y-95475047D01*
X72211000Y-95024953D01*
X74938923Y-95024953D01*
X75027016Y-95225000D01*
X76175000Y-95225000D01*
X76175000Y-94076992D01*
X76225000Y-94076992D01*
X76225000Y-95225000D01*
X77372984Y-95225000D01*
X77461077Y-95024953D01*
X77478923Y-95024953D01*
X77567016Y-95225000D01*
X78715000Y-95225000D01*
X78715000Y-94076992D01*
X78765000Y-94076992D01*
X78765000Y-95225000D01*
X79912984Y-95225000D01*
X80001077Y-95024953D01*
X79991206Y-94975322D01*
X79790849Y-94517415D01*
X79430510Y-94171037D01*
X78965047Y-93988921D01*
X78765000Y-94076992D01*
X78715000Y-94076992D01*
X78514953Y-93988921D01*
X78049490Y-94171037D01*
X77689151Y-94517415D01*
X77488794Y-94975322D01*
X77478923Y-95024953D01*
X77461077Y-95024953D01*
X77451206Y-94975322D01*
X77250849Y-94517415D01*
X76890510Y-94171037D01*
X76425047Y-93988921D01*
X76225000Y-94076992D01*
X76175000Y-94076992D01*
X75974953Y-93988921D01*
X75509490Y-94171037D01*
X75149151Y-94517415D01*
X74948794Y-94975322D01*
X74938923Y-95024953D01*
X72211000Y-95024953D01*
X72211000Y-92710000D01*
X74944884Y-92710000D01*
X75040424Y-93190312D01*
X75312499Y-93597501D01*
X75719688Y-93869576D01*
X76078761Y-93941000D01*
X76321239Y-93941000D01*
X76680312Y-93869576D01*
X77087501Y-93597501D01*
X77359576Y-93190312D01*
X77455116Y-92710000D01*
X77359576Y-92229688D01*
X77112559Y-91860000D01*
X77501536Y-91860000D01*
X77501536Y-93560000D01*
X77531106Y-93708659D01*
X77615314Y-93834686D01*
X77741341Y-93918894D01*
X77890000Y-93948464D01*
X79590000Y-93948464D01*
X79738659Y-93918894D01*
X79864686Y-93834686D01*
X79948894Y-93708659D01*
X79978464Y-93560000D01*
X79978464Y-91860000D01*
X79948894Y-91711341D01*
X79864686Y-91585314D01*
X79738659Y-91501106D01*
X79590000Y-91471536D01*
X77890000Y-91471536D01*
X77741341Y-91501106D01*
X77615314Y-91585314D01*
X77531106Y-91711341D01*
X77501536Y-91860000D01*
X77112559Y-91860000D01*
X77087501Y-91822499D01*
X76680312Y-91550424D01*
X76321239Y-91479000D01*
X76078761Y-91479000D01*
X75719688Y-91550424D01*
X75312499Y-91822499D01*
X75040424Y-92229688D01*
X74944884Y-92710000D01*
X72211000Y-92710000D01*
X72211000Y-82371000D01*
X131953000Y-82371000D01*
X131953000Y-136069000D01*
X131953000Y-136069000D01*
G37*
X131953000Y-136069000D02*
X72211000Y-136069000D01*
X72211000Y-114300000D01*
X73093109Y-114300000D01*
X73104001Y-114354758D01*
X73104000Y-133930247D01*
X73093109Y-133985000D01*
X73104000Y-134039753D01*
X73104000Y-134039757D01*
X73136260Y-134201939D01*
X73259147Y-134385853D01*
X73305570Y-134416872D01*
X74498128Y-135609430D01*
X74529147Y-135655853D01*
X74713060Y-135778740D01*
X74875242Y-135811000D01*
X74875246Y-135811000D01*
X74929999Y-135821891D01*
X74984752Y-135811000D01*
X81225247Y-135811000D01*
X81280000Y-135821891D01*
X81334753Y-135811000D01*
X81334758Y-135811000D01*
X81496940Y-135778740D01*
X81680853Y-135655853D01*
X81711872Y-135609430D01*
X84174430Y-133146872D01*
X84220853Y-133115853D01*
X84343740Y-132931940D01*
X84376000Y-132769758D01*
X84376000Y-132769754D01*
X84386891Y-132715001D01*
X84376000Y-132660248D01*
X84376000Y-131765519D01*
X93669000Y-131765519D01*
X93669000Y-132394481D01*
X93909693Y-132975565D01*
X94354435Y-133420307D01*
X94935519Y-133661000D01*
X95564481Y-133661000D01*
X96145565Y-133420307D01*
X96590307Y-132975565D01*
X96831000Y-132394481D01*
X96831000Y-132080000D01*
X113958027Y-132080000D01*
X114080731Y-132696875D01*
X114430163Y-133219837D01*
X114953125Y-133569269D01*
X115414288Y-133661000D01*
X115725712Y-133661000D01*
X116186875Y-133569269D01*
X116709837Y-133219837D01*
X117059269Y-132696875D01*
X117181973Y-132080000D01*
X117059269Y-131463125D01*
X116709837Y-130940163D01*
X116186875Y-130590731D01*
X115725712Y-130499000D01*
X115414288Y-130499000D01*
X114953125Y-130590731D01*
X114430163Y-130940163D01*
X114080731Y-131463125D01*
X113958027Y-132080000D01*
X96831000Y-132080000D01*
X96831000Y-131765519D01*
X96590307Y-131184435D01*
X96145565Y-130739693D01*
X95564481Y-130499000D01*
X94935519Y-130499000D01*
X94354435Y-130739693D01*
X93909693Y-131184435D01*
X93669000Y-131765519D01*
X84376000Y-131765519D01*
X84376000Y-129770302D01*
X86590302Y-127556000D01*
X92479698Y-127556000D01*
X94818128Y-129894430D01*
X94849147Y-129940853D01*
X95033060Y-130063740D01*
X95195242Y-130096000D01*
X95195246Y-130096000D01*
X95249999Y-130106891D01*
X95304752Y-130096000D01*
X119325247Y-130096000D01*
X119380000Y-130106891D01*
X119434753Y-130096000D01*
X119434758Y-130096000D01*
X119596940Y-130063740D01*
X119780853Y-129940853D01*
X119811872Y-129894430D01*
X122080304Y-127625998D01*
X126769698Y-127625998D01*
X130059002Y-130915303D01*
X130059002Y-130945459D01*
X130162678Y-131195756D01*
X130354246Y-131387324D01*
X130604543Y-131491000D01*
X130875461Y-131491000D01*
X131125758Y-131387324D01*
X131317326Y-131195756D01*
X131421002Y-130945459D01*
X131421002Y-130674541D01*
X131317326Y-130424244D01*
X131125758Y-130232676D01*
X130875461Y-130129000D01*
X130845305Y-130129000D01*
X127431872Y-126715568D01*
X127400853Y-126669145D01*
X127216940Y-126546258D01*
X127054758Y-126513998D01*
X127054753Y-126513998D01*
X127000000Y-126503107D01*
X126945247Y-126513998D01*
X121904754Y-126513998D01*
X121850001Y-126503107D01*
X121795248Y-126513998D01*
X121795244Y-126513998D01*
X121633062Y-126546258D01*
X121449149Y-126669145D01*
X121418130Y-126715568D01*
X119149698Y-128984000D01*
X95480302Y-128984000D01*
X93141872Y-126645570D01*
X93110853Y-126599147D01*
X92926940Y-126476260D01*
X92764758Y-126444000D01*
X92764753Y-126444000D01*
X92710000Y-126433109D01*
X92655247Y-126444000D01*
X86432303Y-126444000D01*
X87460784Y-125415519D01*
X93669000Y-125415519D01*
X93669000Y-126044481D01*
X93909693Y-126625565D01*
X94354435Y-127070307D01*
X94935519Y-127311000D01*
X95564481Y-127311000D01*
X96145565Y-127070307D01*
X96590307Y-126625565D01*
X96831000Y-126044481D01*
X96831000Y-125730000D01*
X113958027Y-125730000D01*
X114080731Y-126346875D01*
X114430163Y-126869837D01*
X114953125Y-127219269D01*
X115414288Y-127311000D01*
X115725712Y-127311000D01*
X116186875Y-127219269D01*
X116709837Y-126869837D01*
X117059269Y-126346875D01*
X117181973Y-125730000D01*
X117059269Y-125113125D01*
X116709837Y-124590163D01*
X116701000Y-124584258D01*
X116701000Y-119993077D01*
X116776675Y-119879821D01*
X116876096Y-119380000D01*
X116776675Y-118880179D01*
X116493549Y-118456451D01*
X116069821Y-118173325D01*
X115696166Y-118099000D01*
X115443834Y-118099000D01*
X115070179Y-118173325D01*
X114646451Y-118456451D01*
X114363325Y-118880179D01*
X114263904Y-119380000D01*
X114363325Y-119879821D01*
X114439000Y-119993077D01*
X114439001Y-124584258D01*
X114430163Y-124590163D01*
X114080731Y-125113125D01*
X113958027Y-125730000D01*
X96831000Y-125730000D01*
X96831000Y-125415519D01*
X96590307Y-124834435D01*
X96145565Y-124389693D01*
X95564481Y-124149000D01*
X94935519Y-124149000D01*
X94354435Y-124389693D01*
X93909693Y-124834435D01*
X93669000Y-125415519D01*
X87460784Y-125415519D01*
X89130303Y-123746000D01*
X96465247Y-123746000D01*
X96520000Y-123756891D01*
X96574753Y-123746000D01*
X96574758Y-123746000D01*
X96736940Y-123713740D01*
X96920853Y-123590853D01*
X96951872Y-123544430D01*
X98144431Y-122351871D01*
X98190853Y-122320853D01*
X98313740Y-122136940D01*
X98346000Y-121974758D01*
X98346000Y-121974754D01*
X98356891Y-121920001D01*
X98346000Y-121865248D01*
X98346000Y-116455475D01*
X101991499Y-120100975D01*
X102054595Y-120195405D01*
X102149025Y-120258501D01*
X102149027Y-120258503D01*
X102428706Y-120445378D01*
X102870000Y-120533157D01*
X102981391Y-120511000D01*
X104206124Y-120511000D01*
X104235314Y-120554686D01*
X104361341Y-120638894D01*
X104510000Y-120668464D01*
X106310000Y-120668464D01*
X106458659Y-120638894D01*
X106584686Y-120554686D01*
X106668894Y-120428659D01*
X106698464Y-120280000D01*
X106698464Y-118480000D01*
X106668894Y-118331341D01*
X106584686Y-118205314D01*
X106458659Y-118121106D01*
X106310000Y-118091536D01*
X104510000Y-118091536D01*
X104361341Y-118121106D01*
X104235314Y-118205314D01*
X104206124Y-118249000D01*
X103338476Y-118249000D01*
X100191000Y-115101525D01*
X100191000Y-112628796D01*
X104616559Y-112628796D01*
X104692632Y-112829905D01*
X105141366Y-113026033D01*
X105630997Y-113035509D01*
X106086983Y-112856889D01*
X106127368Y-112829905D01*
X106203441Y-112628796D01*
X105410000Y-111835355D01*
X104616559Y-112628796D01*
X100191000Y-112628796D01*
X100191000Y-112020997D01*
X104174491Y-112020997D01*
X104353111Y-112476983D01*
X104380095Y-112517368D01*
X104581204Y-112593441D01*
X105374645Y-111800000D01*
X105445355Y-111800000D01*
X106238796Y-112593441D01*
X106439905Y-112517368D01*
X106636033Y-112068634D01*
X106645509Y-111579003D01*
X106466889Y-111123017D01*
X106439905Y-111082632D01*
X106238796Y-111006559D01*
X105445355Y-111800000D01*
X105374645Y-111800000D01*
X104581204Y-111006559D01*
X104380095Y-111082632D01*
X104183967Y-111531366D01*
X104174491Y-112020997D01*
X100191000Y-112020997D01*
X100191000Y-110971204D01*
X104616559Y-110971204D01*
X105410000Y-111764645D01*
X106203441Y-110971204D01*
X106127368Y-110770095D01*
X105678634Y-110573967D01*
X105189003Y-110564491D01*
X104733017Y-110743111D01*
X104692632Y-110770095D01*
X104616559Y-110971204D01*
X100191000Y-110971204D01*
X100191000Y-107050000D01*
X101581536Y-107050000D01*
X101581536Y-108850000D01*
X101611106Y-108998659D01*
X101695314Y-109124686D01*
X101821341Y-109208894D01*
X101970000Y-109238464D01*
X103770000Y-109238464D01*
X103918659Y-109208894D01*
X104044686Y-109124686D01*
X104128894Y-108998659D01*
X104158464Y-108850000D01*
X104158464Y-107050000D01*
X104128894Y-106901341D01*
X104044686Y-106775314D01*
X103918659Y-106691106D01*
X103770000Y-106661536D01*
X101970000Y-106661536D01*
X101821341Y-106691106D01*
X101695314Y-106775314D01*
X101611106Y-106901341D01*
X101581536Y-107050000D01*
X100191000Y-107050000D01*
X100191000Y-103240000D01*
X100311536Y-103240000D01*
X100311536Y-105040000D01*
X100341106Y-105188659D01*
X100425314Y-105314686D01*
X100551341Y-105398894D01*
X100700000Y-105428464D01*
X102500000Y-105428464D01*
X102648659Y-105398894D01*
X102774686Y-105314686D01*
X102858894Y-105188659D01*
X102888464Y-105040000D01*
X102888464Y-104536515D01*
X103048692Y-104901980D01*
X103423360Y-105261603D01*
X103907130Y-105450472D01*
X104115000Y-105363017D01*
X104115000Y-104165000D01*
X104095000Y-104165000D01*
X104095000Y-104115000D01*
X104115000Y-104115000D01*
X104115000Y-102916983D01*
X104165000Y-102916983D01*
X104165000Y-104115000D01*
X104185000Y-104115000D01*
X104185000Y-104165000D01*
X104165000Y-104165000D01*
X104165000Y-105363017D01*
X104372870Y-105450472D01*
X104856640Y-105261603D01*
X105231308Y-104901980D01*
X105433663Y-104440427D01*
X105473325Y-104639821D01*
X105756451Y-105063549D01*
X105799001Y-105091980D01*
X105799000Y-106593237D01*
X105781742Y-106680000D01*
X105799000Y-106766763D01*
X105799000Y-106766766D01*
X105850117Y-107023748D01*
X106044835Y-107315165D01*
X106118395Y-107364317D01*
X107069000Y-108314922D01*
X107069001Y-113419000D01*
X106199186Y-113419000D01*
X106078983Y-113298797D01*
X105644915Y-113119000D01*
X105175085Y-113119000D01*
X104741017Y-113298797D01*
X104408797Y-113631017D01*
X104229000Y-114065085D01*
X104229000Y-114534915D01*
X104408797Y-114968983D01*
X104741017Y-115301203D01*
X105175085Y-115481000D01*
X105644915Y-115481000D01*
X106078983Y-115301203D01*
X106199186Y-115181000D01*
X107863233Y-115181000D01*
X107950000Y-115198259D01*
X108036767Y-115181000D01*
X110587648Y-115181000D01*
X110601106Y-115248659D01*
X110685314Y-115374686D01*
X110811341Y-115458894D01*
X110960000Y-115488464D01*
X112560000Y-115488464D01*
X112708659Y-115458894D01*
X112834686Y-115374686D01*
X112918894Y-115248659D01*
X112948464Y-115100000D01*
X112948464Y-113500000D01*
X112918894Y-113351341D01*
X112834686Y-113225314D01*
X112708659Y-113141106D01*
X112618539Y-113123180D01*
X112588799Y-113093440D01*
X112789905Y-113017368D01*
X112986033Y-112568634D01*
X112995509Y-112079003D01*
X112816889Y-111623017D01*
X112789905Y-111582632D01*
X112588796Y-111506559D01*
X111795355Y-112300000D01*
X111809498Y-112314143D01*
X111774143Y-112349498D01*
X111760000Y-112335355D01*
X111745858Y-112349498D01*
X111710503Y-112314143D01*
X111724645Y-112300000D01*
X110931204Y-111506559D01*
X110730095Y-111582632D01*
X110533967Y-112031366D01*
X110524491Y-112520997D01*
X110703111Y-112976983D01*
X110730095Y-113017368D01*
X110931201Y-113093440D01*
X110901461Y-113123180D01*
X110811341Y-113141106D01*
X110685314Y-113225314D01*
X110601106Y-113351341D01*
X110587648Y-113419000D01*
X108831000Y-113419000D01*
X108831000Y-111471204D01*
X110966559Y-111471204D01*
X111760000Y-112264645D01*
X112553441Y-111471204D01*
X112477368Y-111270095D01*
X112028634Y-111073967D01*
X111539003Y-111064491D01*
X111083017Y-111243111D01*
X111042632Y-111270095D01*
X110966559Y-111471204D01*
X108831000Y-111471204D01*
X108831000Y-108182870D01*
X111719530Y-108182870D01*
X111730166Y-108236352D01*
X111938692Y-108711980D01*
X112313360Y-109071603D01*
X112797130Y-109260472D01*
X113005000Y-109173017D01*
X113005000Y-107975000D01*
X113055000Y-107975000D01*
X113055000Y-109173017D01*
X113262870Y-109260472D01*
X113746640Y-109071603D01*
X114121308Y-108711980D01*
X114329834Y-108236352D01*
X114340470Y-108182870D01*
X114252995Y-107975000D01*
X113055000Y-107975000D01*
X113005000Y-107975000D01*
X111807005Y-107975000D01*
X111719530Y-108182870D01*
X108831000Y-108182870D01*
X108831000Y-108036761D01*
X108848258Y-107949999D01*
X108831000Y-107863238D01*
X108831000Y-107863233D01*
X108801939Y-107717130D01*
X111719530Y-107717130D01*
X111807005Y-107925000D01*
X113005000Y-107925000D01*
X113005000Y-106726983D01*
X113055000Y-106726983D01*
X113055000Y-107925000D01*
X114252995Y-107925000D01*
X114340470Y-107717130D01*
X114329834Y-107663648D01*
X114121308Y-107188020D01*
X113746640Y-106828397D01*
X113262870Y-106639528D01*
X113055000Y-106726983D01*
X113005000Y-106726983D01*
X112797130Y-106639528D01*
X112313360Y-106828397D01*
X111938692Y-107188020D01*
X111730166Y-107663648D01*
X111719530Y-107717130D01*
X108801939Y-107717130D01*
X108779883Y-107606251D01*
X108585165Y-107314835D01*
X108511608Y-107265686D01*
X107561000Y-106315079D01*
X107561000Y-105091979D01*
X107603549Y-105063549D01*
X107886675Y-104639821D01*
X107986096Y-104140000D01*
X107886675Y-103640179D01*
X107603549Y-103216451D01*
X107179821Y-102933325D01*
X106806166Y-102859000D01*
X106553834Y-102859000D01*
X106180179Y-102933325D01*
X105756451Y-103216451D01*
X105473325Y-103640179D01*
X105433663Y-103839573D01*
X105231308Y-103378020D01*
X104856640Y-103018397D01*
X104372870Y-102829528D01*
X104165000Y-102916983D01*
X104115000Y-102916983D01*
X103907130Y-102829528D01*
X103423360Y-103018397D01*
X103048692Y-103378020D01*
X102888464Y-103743485D01*
X102888464Y-103240000D01*
X102858894Y-103091341D01*
X102774686Y-102965314D01*
X102648659Y-102881106D01*
X102500000Y-102851536D01*
X102404766Y-102851536D01*
X103100302Y-102156000D01*
X111529698Y-102156000D01*
X115014000Y-105640303D01*
X115014001Y-112975242D01*
X115003109Y-113030000D01*
X115014001Y-113084757D01*
X115014001Y-113084758D01*
X115020812Y-113119000D01*
X115046261Y-113246940D01*
X115138129Y-113384431D01*
X115138130Y-113384432D01*
X115169148Y-113430853D01*
X115215568Y-113461870D01*
X116408128Y-114654430D01*
X116439147Y-114700853D01*
X116623060Y-114823740D01*
X116785242Y-114856000D01*
X116785246Y-114856000D01*
X116839999Y-114866891D01*
X116894752Y-114856000D01*
X118191536Y-114856000D01*
X118191536Y-115100000D01*
X118221106Y-115248659D01*
X118305314Y-115374686D01*
X118431341Y-115458894D01*
X118580000Y-115488464D01*
X120180000Y-115488464D01*
X120328659Y-115458894D01*
X120454686Y-115374686D01*
X120538894Y-115248659D01*
X120568464Y-115100000D01*
X120568464Y-114856000D01*
X121689698Y-114856000D01*
X124028128Y-117194430D01*
X124059147Y-117240853D01*
X124243060Y-117363740D01*
X124405242Y-117396000D01*
X124405246Y-117396000D01*
X124441536Y-117403218D01*
X124441536Y-117740000D01*
X124471106Y-117888659D01*
X124555314Y-118014686D01*
X124681341Y-118098894D01*
X124830000Y-118128464D01*
X126630000Y-118128464D01*
X126778659Y-118098894D01*
X126904686Y-118014686D01*
X126988894Y-117888659D01*
X127018464Y-117740000D01*
X127018464Y-115940000D01*
X127012986Y-115912461D01*
X127139000Y-116038475D01*
X127139001Y-124571391D01*
X127204623Y-124901294D01*
X127386839Y-125174000D01*
X120704752Y-125174000D01*
X120649999Y-125163109D01*
X120595246Y-125174000D01*
X120595242Y-125174000D01*
X120433060Y-125206260D01*
X120249147Y-125329147D01*
X120218129Y-125375569D01*
X117879698Y-127714000D01*
X104547080Y-127714000D01*
X104525756Y-127692676D01*
X104275459Y-127589000D01*
X104004541Y-127589000D01*
X103754244Y-127692676D01*
X103562676Y-127884244D01*
X103459000Y-128134541D01*
X103459000Y-128405459D01*
X103562676Y-128655756D01*
X103754244Y-128847324D01*
X104004541Y-128951000D01*
X104275459Y-128951000D01*
X104525756Y-128847324D01*
X104547080Y-128826000D01*
X118055247Y-128826000D01*
X118110000Y-128836891D01*
X118164753Y-128826000D01*
X118164758Y-128826000D01*
X118326940Y-128793740D01*
X118510853Y-128670853D01*
X118541872Y-128624430D01*
X120880302Y-126286000D01*
X128039698Y-126286000D01*
X128859000Y-127105302D01*
X128859000Y-127135459D01*
X128962676Y-127385756D01*
X129154244Y-127577324D01*
X129404541Y-127681000D01*
X129675459Y-127681000D01*
X129925756Y-127577324D01*
X130117324Y-127385756D01*
X130221000Y-127135459D01*
X130221000Y-126864541D01*
X130117324Y-126614244D01*
X129925756Y-126422676D01*
X129675459Y-126319000D01*
X129645302Y-126319000D01*
X128795449Y-125469147D01*
X129085405Y-125275405D01*
X129335378Y-124901294D01*
X129401000Y-124571391D01*
X129401000Y-115681385D01*
X129423156Y-115569999D01*
X129401000Y-115458613D01*
X129401000Y-115458609D01*
X129335378Y-115128706D01*
X129085405Y-114754595D01*
X128990972Y-114691497D01*
X126861000Y-112561525D01*
X126861000Y-107293077D01*
X126936675Y-107179821D01*
X127036096Y-106680000D01*
X126936675Y-106180179D01*
X126653549Y-105756451D01*
X126229821Y-105473325D01*
X125856166Y-105399000D01*
X125603834Y-105399000D01*
X125230179Y-105473325D01*
X124806451Y-105756451D01*
X124523325Y-106180179D01*
X124423904Y-106680000D01*
X124523325Y-107179821D01*
X124599000Y-107293077D01*
X124599001Y-112918610D01*
X124576844Y-113030000D01*
X124599001Y-113141391D01*
X124615658Y-113225133D01*
X124664623Y-113471294D01*
X124851497Y-113750972D01*
X124851500Y-113750975D01*
X124914596Y-113845405D01*
X125009026Y-113908501D01*
X126657539Y-115557014D01*
X126630000Y-115551536D01*
X124830000Y-115551536D01*
X124681341Y-115581106D01*
X124555314Y-115665314D01*
X124471106Y-115791341D01*
X124441536Y-115940000D01*
X124441536Y-116035234D01*
X122351871Y-113945569D01*
X122320853Y-113899147D01*
X122136940Y-113776260D01*
X121974758Y-113744000D01*
X121974753Y-113744000D01*
X121920000Y-113733109D01*
X121865247Y-113744000D01*
X120568464Y-113744000D01*
X120568464Y-113500000D01*
X120538894Y-113351341D01*
X120454686Y-113225314D01*
X120328659Y-113141106D01*
X120238539Y-113123180D01*
X120208799Y-113093440D01*
X120409905Y-113017368D01*
X120606033Y-112568634D01*
X120615509Y-112079003D01*
X120436889Y-111623017D01*
X120409905Y-111582632D01*
X120208796Y-111506559D01*
X119415355Y-112300000D01*
X119429498Y-112314143D01*
X119394143Y-112349498D01*
X119380000Y-112335355D01*
X119365858Y-112349498D01*
X119330503Y-112314143D01*
X119344645Y-112300000D01*
X118551204Y-111506559D01*
X118350095Y-111582632D01*
X118153967Y-112031366D01*
X118144491Y-112520997D01*
X118323111Y-112976983D01*
X118350095Y-113017368D01*
X118551201Y-113093440D01*
X118521461Y-113123180D01*
X118431341Y-113141106D01*
X118305314Y-113225314D01*
X118221106Y-113351341D01*
X118191536Y-113500000D01*
X118191536Y-113744000D01*
X117070302Y-113744000D01*
X116126000Y-112799698D01*
X116126000Y-111471204D01*
X118586559Y-111471204D01*
X119380000Y-112264645D01*
X120173441Y-111471204D01*
X120097368Y-111270095D01*
X119648634Y-111073967D01*
X119159003Y-111064491D01*
X118703017Y-111243111D01*
X118662632Y-111270095D01*
X118586559Y-111471204D01*
X116126000Y-111471204D01*
X116126000Y-105464754D01*
X116136891Y-105410000D01*
X116126000Y-105355246D01*
X116126000Y-105355242D01*
X116093740Y-105193060D01*
X116093740Y-105193059D01*
X116001871Y-105055568D01*
X116001870Y-105055567D01*
X115970853Y-105009147D01*
X115924434Y-104978131D01*
X112191872Y-101245570D01*
X112160853Y-101199147D01*
X111976940Y-101076260D01*
X111814758Y-101044000D01*
X111814753Y-101044000D01*
X111760000Y-101033109D01*
X111705247Y-101044000D01*
X102924752Y-101044000D01*
X102869999Y-101033109D01*
X102815246Y-101044000D01*
X102815242Y-101044000D01*
X102653060Y-101076260D01*
X102469147Y-101199147D01*
X102438128Y-101245570D01*
X101245568Y-102438130D01*
X101199148Y-102469147D01*
X101168131Y-102515567D01*
X101168129Y-102515569D01*
X101076261Y-102653060D01*
X101036782Y-102851536D01*
X100700000Y-102851536D01*
X100551341Y-102881106D01*
X100425314Y-102965314D01*
X100341106Y-103091341D01*
X100311536Y-103240000D01*
X100191000Y-103240000D01*
X100191000Y-98948609D01*
X100125378Y-98618706D01*
X99875405Y-98244595D01*
X99501293Y-97994622D01*
X99060000Y-97906843D01*
X98618706Y-97994622D01*
X98346000Y-98176838D01*
X98346000Y-97076000D01*
X115014001Y-97076000D01*
X115014000Y-100275247D01*
X115003109Y-100330000D01*
X115014000Y-100384753D01*
X115014000Y-100384757D01*
X115046260Y-100546939D01*
X115169147Y-100730853D01*
X115215570Y-100761872D01*
X117678128Y-103224430D01*
X117709147Y-103270853D01*
X117893060Y-103393740D01*
X118055242Y-103426000D01*
X118055246Y-103426000D01*
X118109999Y-103436891D01*
X118164752Y-103426000D01*
X118191536Y-103426000D01*
X118191536Y-103670000D01*
X118221106Y-103818659D01*
X118305314Y-103944686D01*
X118431341Y-104028894D01*
X118580000Y-104058464D01*
X120180000Y-104058464D01*
X120328659Y-104028894D01*
X120454686Y-103944686D01*
X120538894Y-103818659D01*
X120568464Y-103670000D01*
X120568464Y-102070000D01*
X120538894Y-101921341D01*
X120454686Y-101795314D01*
X120328659Y-101711106D01*
X120238539Y-101693180D01*
X120208799Y-101663440D01*
X120409905Y-101587368D01*
X120606033Y-101138634D01*
X120615509Y-100649003D01*
X120436889Y-100193017D01*
X120409905Y-100152632D01*
X120208796Y-100076559D01*
X119415355Y-100870000D01*
X119429498Y-100884143D01*
X119394143Y-100919498D01*
X119380000Y-100905355D01*
X119365858Y-100919498D01*
X119330503Y-100884143D01*
X119344645Y-100870000D01*
X118551204Y-100076559D01*
X118350095Y-100152632D01*
X118153967Y-100601366D01*
X118144491Y-101090997D01*
X118323111Y-101546983D01*
X118350095Y-101587368D01*
X118551201Y-101663440D01*
X118521461Y-101693180D01*
X118431341Y-101711106D01*
X118305314Y-101795314D01*
X118221106Y-101921341D01*
X118191536Y-102070000D01*
X118191536Y-102165234D01*
X116126000Y-100099698D01*
X116126000Y-100041204D01*
X118586559Y-100041204D01*
X119380000Y-100834645D01*
X120173441Y-100041204D01*
X120097368Y-99840095D01*
X119648634Y-99643967D01*
X119159003Y-99634491D01*
X118703017Y-99813111D01*
X118662632Y-99840095D01*
X118586559Y-100041204D01*
X116126000Y-100041204D01*
X116126000Y-97076000D01*
X120419698Y-97076000D01*
X127714001Y-104370303D01*
X127714000Y-111705247D01*
X127703109Y-111760000D01*
X127714000Y-111814753D01*
X127714000Y-111814757D01*
X127746260Y-111976939D01*
X127869147Y-112160853D01*
X127915570Y-112191872D01*
X130129000Y-114405302D01*
X130129000Y-114435459D01*
X130232676Y-114685756D01*
X130424244Y-114877324D01*
X130674541Y-114981000D01*
X130945459Y-114981000D01*
X131195756Y-114877324D01*
X131387324Y-114685756D01*
X131491000Y-114435459D01*
X131491000Y-114164541D01*
X131387324Y-113914244D01*
X131195756Y-113722676D01*
X130945459Y-113619000D01*
X130915302Y-113619000D01*
X128826000Y-111529698D01*
X128826000Y-104194752D01*
X128836891Y-104139999D01*
X128826000Y-104085246D01*
X128826000Y-104085242D01*
X128793740Y-103923060D01*
X128670853Y-103739147D01*
X128624430Y-103708128D01*
X121081871Y-96165569D01*
X121050853Y-96119147D01*
X120866940Y-95996260D01*
X120704758Y-95964000D01*
X120704753Y-95964000D01*
X120650000Y-95953109D01*
X120595247Y-95964000D01*
X115624758Y-95964000D01*
X115570000Y-95953108D01*
X115515242Y-95964000D01*
X97844758Y-95964000D01*
X97790000Y-95953108D01*
X97735242Y-95964000D01*
X91847080Y-95964000D01*
X91825756Y-95942676D01*
X91575459Y-95839000D01*
X91304541Y-95839000D01*
X91054244Y-95942676D01*
X90862676Y-96134244D01*
X90759000Y-96384541D01*
X90759000Y-96655459D01*
X90862676Y-96905756D01*
X91054244Y-97097324D01*
X91304541Y-97201000D01*
X91575459Y-97201000D01*
X91825756Y-97097324D01*
X91847080Y-97076000D01*
X97234001Y-97076000D01*
X97234000Y-121689698D01*
X96289698Y-122634000D01*
X88972303Y-122634000D01*
X90524434Y-121081869D01*
X90570853Y-121050853D01*
X90693740Y-120866940D01*
X90726000Y-120704758D01*
X90726000Y-120704753D01*
X90736891Y-120650000D01*
X90726000Y-120595247D01*
X90726000Y-118933029D01*
X91018215Y-119128280D01*
X91333531Y-119191000D01*
X91546469Y-119191000D01*
X91861785Y-119128280D01*
X92219358Y-118889358D01*
X92368601Y-118666000D01*
X93925247Y-118666000D01*
X93980000Y-118676891D01*
X94034753Y-118666000D01*
X94034758Y-118666000D01*
X94196940Y-118633740D01*
X94380853Y-118510853D01*
X94411872Y-118464430D01*
X96874431Y-116001871D01*
X96920853Y-115970853D01*
X97043740Y-115786940D01*
X97076000Y-115624758D01*
X97076000Y-115624754D01*
X97086891Y-115570001D01*
X97076000Y-115515248D01*
X97076000Y-107087080D01*
X97097324Y-107065756D01*
X97201000Y-106815459D01*
X97201000Y-106544541D01*
X97097324Y-106294244D01*
X96905756Y-106102676D01*
X96655459Y-105999000D01*
X96384541Y-105999000D01*
X96134244Y-106102676D01*
X95942676Y-106294244D01*
X95839000Y-106544541D01*
X95839000Y-106815459D01*
X95942676Y-107065756D01*
X95964001Y-107087081D01*
X95964000Y-115339698D01*
X93749698Y-117554000D01*
X92368601Y-117554000D01*
X92219358Y-117330642D01*
X91861785Y-117091720D01*
X91546469Y-117029000D01*
X91333531Y-117029000D01*
X91018215Y-117091720D01*
X90726000Y-117286971D01*
X90726000Y-117070302D01*
X94334434Y-113461869D01*
X94380853Y-113430853D01*
X94411871Y-113384432D01*
X94503740Y-113246941D01*
X94510660Y-113212153D01*
X94536000Y-113084758D01*
X94536000Y-113084754D01*
X94546891Y-113030000D01*
X94536000Y-112975246D01*
X94536000Y-107087080D01*
X94557324Y-107065756D01*
X94661000Y-106815459D01*
X94661000Y-106544541D01*
X94557324Y-106294244D01*
X94365756Y-106102676D01*
X94115459Y-105999000D01*
X93844541Y-105999000D01*
X93594244Y-106102676D01*
X93402676Y-106294244D01*
X93299000Y-106544541D01*
X93299000Y-106815459D01*
X93402676Y-107065756D01*
X93424001Y-107087081D01*
X93424000Y-112799697D01*
X89815568Y-116408130D01*
X89769148Y-116439147D01*
X89738131Y-116485567D01*
X89738129Y-116485569D01*
X89646261Y-116623060D01*
X89603109Y-116840000D01*
X89614001Y-116894758D01*
X89614000Y-120419697D01*
X88186000Y-121847697D01*
X88186000Y-114354752D01*
X88196891Y-114299999D01*
X88186000Y-114245246D01*
X88186000Y-114245242D01*
X88153740Y-114083060D01*
X88030853Y-113899147D01*
X87984431Y-113868129D01*
X87041000Y-112924698D01*
X87041000Y-112894541D01*
X87008044Y-112814976D01*
X90359000Y-112814976D01*
X90359000Y-113245024D01*
X90523572Y-113642337D01*
X90827663Y-113946428D01*
X91224976Y-114111000D01*
X91655024Y-114111000D01*
X92052337Y-113946428D01*
X92356428Y-113642337D01*
X92521000Y-113245024D01*
X92521000Y-112814976D01*
X92356428Y-112417663D01*
X92052337Y-112113572D01*
X91655024Y-111949000D01*
X91224976Y-111949000D01*
X90827663Y-112113572D01*
X90523572Y-112417663D01*
X90359000Y-112814976D01*
X87008044Y-112814976D01*
X86937324Y-112644244D01*
X86745756Y-112452676D01*
X86495459Y-112349000D01*
X86224541Y-112349000D01*
X85974244Y-112452676D01*
X85782676Y-112644244D01*
X85679000Y-112894541D01*
X85679000Y-113165459D01*
X85782676Y-113415756D01*
X85974244Y-113607324D01*
X86224541Y-113711000D01*
X86254698Y-113711000D01*
X87074000Y-114530302D01*
X87074001Y-121689696D01*
X83714698Y-125049000D01*
X83684541Y-125049000D01*
X83434244Y-125152676D01*
X83242676Y-125344244D01*
X83139000Y-125594541D01*
X83139000Y-125865459D01*
X83242676Y-126115756D01*
X83434244Y-126307324D01*
X83640811Y-126392887D01*
X79821243Y-130212455D01*
X79627501Y-129922499D01*
X79220312Y-129650424D01*
X78861239Y-129579000D01*
X78618761Y-129579000D01*
X78259688Y-129650424D01*
X77852499Y-129922499D01*
X77580424Y-130329688D01*
X77484884Y-130810000D01*
X77580424Y-131290312D01*
X77852499Y-131697501D01*
X78259688Y-131969576D01*
X78618761Y-132041000D01*
X78861239Y-132041000D01*
X79220312Y-131969576D01*
X79627501Y-131697501D01*
X79849003Y-131366000D01*
X79955247Y-131366000D01*
X80010000Y-131376891D01*
X80064753Y-131366000D01*
X80064758Y-131366000D01*
X80226940Y-131333740D01*
X80410853Y-131210853D01*
X80441872Y-131164430D01*
X81994001Y-129612301D01*
X81994000Y-130579698D01*
X79821243Y-132752455D01*
X79627501Y-132462499D01*
X79220312Y-132190424D01*
X78861239Y-132119000D01*
X78618761Y-132119000D01*
X78259688Y-132190424D01*
X77852499Y-132462499D01*
X77580424Y-132869688D01*
X77484884Y-133350000D01*
X77580424Y-133830312D01*
X77852499Y-134237501D01*
X78259688Y-134509576D01*
X78618761Y-134581000D01*
X78861239Y-134581000D01*
X79220312Y-134509576D01*
X79627501Y-134237501D01*
X79849003Y-133906000D01*
X79955247Y-133906000D01*
X80010000Y-133916891D01*
X80064753Y-133906000D01*
X80064758Y-133906000D01*
X80226940Y-133873740D01*
X80410853Y-133750853D01*
X80441872Y-133704430D01*
X82904431Y-131241871D01*
X82950853Y-131210853D01*
X83073740Y-131026940D01*
X83106000Y-130864758D01*
X83106000Y-130864754D01*
X83116891Y-130810001D01*
X83106000Y-130755248D01*
X83106000Y-129770302D01*
X83264000Y-129612302D01*
X83264001Y-132484697D01*
X81049698Y-134699000D01*
X75160302Y-134699000D01*
X74216000Y-133754698D01*
X74216000Y-133575047D01*
X74938923Y-133575047D01*
X74948794Y-133624678D01*
X75149151Y-134082585D01*
X75509490Y-134428963D01*
X75974953Y-134611079D01*
X76175000Y-134523008D01*
X76175000Y-133375000D01*
X76225000Y-133375000D01*
X76225000Y-134523008D01*
X76425047Y-134611079D01*
X76890510Y-134428963D01*
X77250849Y-134082585D01*
X77451206Y-133624678D01*
X77461077Y-133575047D01*
X77372984Y-133375000D01*
X76225000Y-133375000D01*
X76175000Y-133375000D01*
X75027016Y-133375000D01*
X74938923Y-133575047D01*
X74216000Y-133575047D01*
X74216000Y-133124953D01*
X74938923Y-133124953D01*
X75027016Y-133325000D01*
X76175000Y-133325000D01*
X76175000Y-132176992D01*
X76225000Y-132176992D01*
X76225000Y-133325000D01*
X77372984Y-133325000D01*
X77461077Y-133124953D01*
X77451206Y-133075322D01*
X77250849Y-132617415D01*
X76890510Y-132271037D01*
X76425047Y-132088921D01*
X76225000Y-132176992D01*
X76175000Y-132176992D01*
X75974953Y-132088921D01*
X75509490Y-132271037D01*
X75149151Y-132617415D01*
X74948794Y-133075322D01*
X74938923Y-133124953D01*
X74216000Y-133124953D01*
X74216000Y-131035047D01*
X74938923Y-131035047D01*
X74948794Y-131084678D01*
X75149151Y-131542585D01*
X75509490Y-131888963D01*
X75974953Y-132071079D01*
X76175000Y-131983008D01*
X76175000Y-130835000D01*
X76225000Y-130835000D01*
X76225000Y-131983008D01*
X76425047Y-132071079D01*
X76890510Y-131888963D01*
X77250849Y-131542585D01*
X77451206Y-131084678D01*
X77461077Y-131035047D01*
X77372984Y-130835000D01*
X76225000Y-130835000D01*
X76175000Y-130835000D01*
X75027016Y-130835000D01*
X74938923Y-131035047D01*
X74216000Y-131035047D01*
X74216000Y-130584953D01*
X74938923Y-130584953D01*
X75027016Y-130785000D01*
X76175000Y-130785000D01*
X76175000Y-129636992D01*
X76225000Y-129636992D01*
X76225000Y-130785000D01*
X77372984Y-130785000D01*
X77461077Y-130584953D01*
X77451206Y-130535322D01*
X77250849Y-130077415D01*
X76890510Y-129731037D01*
X76425047Y-129548921D01*
X76225000Y-129636992D01*
X76175000Y-129636992D01*
X75974953Y-129548921D01*
X75509490Y-129731037D01*
X75149151Y-130077415D01*
X74948794Y-130535322D01*
X74938923Y-130584953D01*
X74216000Y-130584953D01*
X74216000Y-128270000D01*
X74944884Y-128270000D01*
X75040424Y-128750312D01*
X75312499Y-129157501D01*
X75719688Y-129429576D01*
X76078761Y-129501000D01*
X76321239Y-129501000D01*
X76680312Y-129429576D01*
X77087501Y-129157501D01*
X77359576Y-128750312D01*
X77455116Y-128270000D01*
X77484884Y-128270000D01*
X77580424Y-128750312D01*
X77852499Y-129157501D01*
X78259688Y-129429576D01*
X78618761Y-129501000D01*
X78861239Y-129501000D01*
X79220312Y-129429576D01*
X79627501Y-129157501D01*
X79849003Y-128826000D01*
X79955247Y-128826000D01*
X80010000Y-128836891D01*
X80064753Y-128826000D01*
X80064758Y-128826000D01*
X80226940Y-128793740D01*
X80410853Y-128670853D01*
X80441872Y-128624430D01*
X81634431Y-127431871D01*
X81680853Y-127400853D01*
X81803740Y-127216940D01*
X81836000Y-127054758D01*
X81836000Y-127054754D01*
X81846891Y-127000001D01*
X81836000Y-126945248D01*
X81836000Y-117894976D01*
X82739000Y-117894976D01*
X82739000Y-118325024D01*
X82903572Y-118722337D01*
X83207663Y-119026428D01*
X83604976Y-119191000D01*
X84035024Y-119191000D01*
X84432337Y-119026428D01*
X84736428Y-118722337D01*
X84901000Y-118325024D01*
X84901000Y-117894976D01*
X84736428Y-117497663D01*
X84432337Y-117193572D01*
X84035024Y-117029000D01*
X83604976Y-117029000D01*
X83207663Y-117193572D01*
X82903572Y-117497663D01*
X82739000Y-117894976D01*
X81836000Y-117894976D01*
X81836000Y-113030000D01*
X82717822Y-113030000D01*
X82801720Y-113451785D01*
X83040642Y-113809358D01*
X83398215Y-114048280D01*
X83713531Y-114111000D01*
X83926469Y-114111000D01*
X84241785Y-114048280D01*
X84599358Y-113809358D01*
X84838280Y-113451785D01*
X84922178Y-113030000D01*
X84838280Y-112608215D01*
X84599358Y-112250642D01*
X84241785Y-112011720D01*
X83926469Y-111949000D01*
X83713531Y-111949000D01*
X83398215Y-112011720D01*
X83040642Y-112250642D01*
X82801720Y-112608215D01*
X82717822Y-113030000D01*
X81836000Y-113030000D01*
X81836000Y-110490000D01*
X82717822Y-110490000D01*
X82801720Y-110911785D01*
X83040642Y-111269358D01*
X83398215Y-111508280D01*
X83713531Y-111571000D01*
X83926469Y-111571000D01*
X84241785Y-111508280D01*
X84599358Y-111269358D01*
X84614510Y-111246681D01*
X90718674Y-111246681D01*
X90782575Y-111437399D01*
X91195173Y-111616868D01*
X91645043Y-111624782D01*
X92063696Y-111459936D01*
X92097425Y-111437399D01*
X92161326Y-111246681D01*
X91440000Y-110525355D01*
X90718674Y-111246681D01*
X84614510Y-111246681D01*
X84838280Y-110911785D01*
X84881392Y-110695043D01*
X90305218Y-110695043D01*
X90470064Y-111113696D01*
X90492601Y-111147425D01*
X90683319Y-111211326D01*
X91404645Y-110490000D01*
X91475355Y-110490000D01*
X92196681Y-111211326D01*
X92387399Y-111147425D01*
X92566868Y-110734827D01*
X92574782Y-110284957D01*
X92409936Y-109866304D01*
X92387399Y-109832575D01*
X92196681Y-109768674D01*
X91475355Y-110490000D01*
X91404645Y-110490000D01*
X90683319Y-109768674D01*
X90492601Y-109832575D01*
X90313132Y-110245173D01*
X90305218Y-110695043D01*
X84881392Y-110695043D01*
X84922178Y-110490000D01*
X84838280Y-110068215D01*
X84614511Y-109733319D01*
X90718674Y-109733319D01*
X91440000Y-110454645D01*
X92161326Y-109733319D01*
X92097425Y-109542601D01*
X91684827Y-109363132D01*
X91234957Y-109355218D01*
X90816304Y-109520064D01*
X90782575Y-109542601D01*
X90718674Y-109733319D01*
X84614511Y-109733319D01*
X84599358Y-109710642D01*
X84241785Y-109471720D01*
X83926469Y-109409000D01*
X83713531Y-109409000D01*
X83398215Y-109471720D01*
X83040642Y-109710642D01*
X82801720Y-110068215D01*
X82717822Y-110490000D01*
X81836000Y-110490000D01*
X81836000Y-107734976D01*
X82739000Y-107734976D01*
X82739000Y-108165024D01*
X82903572Y-108562337D01*
X83207663Y-108866428D01*
X83604976Y-109031000D01*
X84035024Y-109031000D01*
X84432337Y-108866428D01*
X84736428Y-108562337D01*
X84901000Y-108165024D01*
X84901000Y-107734976D01*
X84736428Y-107337663D01*
X84432337Y-107033572D01*
X84035024Y-106869000D01*
X83604976Y-106869000D01*
X83207663Y-107033572D01*
X82903572Y-107337663D01*
X82739000Y-107734976D01*
X81836000Y-107734976D01*
X81836000Y-105194976D01*
X82739000Y-105194976D01*
X82739000Y-105625024D01*
X82903572Y-106022337D01*
X83207663Y-106326428D01*
X83604976Y-106491000D01*
X84035024Y-106491000D01*
X84432337Y-106326428D01*
X84736428Y-106022337D01*
X84901000Y-105625024D01*
X84901000Y-105194976D01*
X84736428Y-104797663D01*
X84432337Y-104493572D01*
X84035024Y-104329000D01*
X83604976Y-104329000D01*
X83207663Y-104493572D01*
X82903572Y-104797663D01*
X82739000Y-105194976D01*
X81836000Y-105194976D01*
X81836000Y-104194752D01*
X81846891Y-104139999D01*
X81836000Y-104085246D01*
X81836000Y-104085242D01*
X81803740Y-103923060D01*
X81680853Y-103739147D01*
X81634430Y-103708128D01*
X80441871Y-102515569D01*
X80410853Y-102469147D01*
X80226940Y-102346260D01*
X80064758Y-102314000D01*
X80064753Y-102314000D01*
X80010000Y-102303109D01*
X79978464Y-102309382D01*
X79978464Y-102020000D01*
X79948894Y-101871341D01*
X79864686Y-101745314D01*
X79738659Y-101661106D01*
X79590000Y-101631536D01*
X77890000Y-101631536D01*
X77741341Y-101661106D01*
X77615314Y-101745314D01*
X77531106Y-101871341D01*
X77501536Y-102020000D01*
X77501536Y-103720000D01*
X77531106Y-103868659D01*
X77615314Y-103994686D01*
X77741341Y-104078894D01*
X77890000Y-104108464D01*
X79590000Y-104108464D01*
X79738659Y-104078894D01*
X79864686Y-103994686D01*
X79948894Y-103868659D01*
X79978464Y-103720000D01*
X79978464Y-103624766D01*
X80724001Y-104370303D01*
X80724000Y-126769698D01*
X79821243Y-127672455D01*
X79627501Y-127382499D01*
X79220312Y-127110424D01*
X78861239Y-127039000D01*
X78618761Y-127039000D01*
X78259688Y-127110424D01*
X77852499Y-127382499D01*
X77580424Y-127789688D01*
X77484884Y-128270000D01*
X77455116Y-128270000D01*
X77359576Y-127789688D01*
X77087501Y-127382499D01*
X76680312Y-127110424D01*
X76321239Y-127039000D01*
X76078761Y-127039000D01*
X75719688Y-127110424D01*
X75312499Y-127382499D01*
X75040424Y-127789688D01*
X74944884Y-128270000D01*
X74216000Y-128270000D01*
X74216000Y-124880000D01*
X74961536Y-124880000D01*
X74961536Y-126580000D01*
X74991106Y-126728659D01*
X75075314Y-126854686D01*
X75201341Y-126938894D01*
X75350000Y-126968464D01*
X77050000Y-126968464D01*
X77198659Y-126938894D01*
X77324686Y-126854686D01*
X77408894Y-126728659D01*
X77438464Y-126580000D01*
X77438464Y-125730000D01*
X77484884Y-125730000D01*
X77580424Y-126210312D01*
X77852499Y-126617501D01*
X78259688Y-126889576D01*
X78618761Y-126961000D01*
X78861239Y-126961000D01*
X79220312Y-126889576D01*
X79627501Y-126617501D01*
X79899576Y-126210312D01*
X79995116Y-125730000D01*
X79899576Y-125249688D01*
X79627501Y-124842499D01*
X79220312Y-124570424D01*
X78861239Y-124499000D01*
X78618761Y-124499000D01*
X78259688Y-124570424D01*
X77852499Y-124842499D01*
X77580424Y-125249688D01*
X77484884Y-125730000D01*
X77438464Y-125730000D01*
X77438464Y-124880000D01*
X77408894Y-124731341D01*
X77324686Y-124605314D01*
X77198659Y-124521106D01*
X77050000Y-124491536D01*
X75350000Y-124491536D01*
X75201341Y-124521106D01*
X75075314Y-124605314D01*
X74991106Y-124731341D01*
X74961536Y-124880000D01*
X74216000Y-124880000D01*
X74216000Y-123190000D01*
X74944884Y-123190000D01*
X75040424Y-123670312D01*
X75312499Y-124077501D01*
X75719688Y-124349576D01*
X76078761Y-124421000D01*
X76321239Y-124421000D01*
X76680312Y-124349576D01*
X77087501Y-124077501D01*
X77359576Y-123670312D01*
X77455116Y-123190000D01*
X77484884Y-123190000D01*
X77580424Y-123670312D01*
X77852499Y-124077501D01*
X78259688Y-124349576D01*
X78618761Y-124421000D01*
X78861239Y-124421000D01*
X79220312Y-124349576D01*
X79627501Y-124077501D01*
X79899576Y-123670312D01*
X79995116Y-123190000D01*
X79899576Y-122709688D01*
X79627501Y-122302499D01*
X79220312Y-122030424D01*
X78861239Y-121959000D01*
X78618761Y-121959000D01*
X78259688Y-122030424D01*
X77852499Y-122302499D01*
X77580424Y-122709688D01*
X77484884Y-123190000D01*
X77455116Y-123190000D01*
X77359576Y-122709688D01*
X77087501Y-122302499D01*
X76680312Y-122030424D01*
X76321239Y-121959000D01*
X76078761Y-121959000D01*
X75719688Y-122030424D01*
X75312499Y-122302499D01*
X75040424Y-122709688D01*
X74944884Y-123190000D01*
X74216000Y-123190000D01*
X74216000Y-120782750D01*
X74919000Y-120782750D01*
X74919000Y-121585731D01*
X74984616Y-121744142D01*
X75105858Y-121865384D01*
X75264269Y-121931000D01*
X76067250Y-121931000D01*
X76175000Y-121823250D01*
X76175000Y-120675000D01*
X76225000Y-120675000D01*
X76225000Y-121823250D01*
X76332750Y-121931000D01*
X77135731Y-121931000D01*
X77294142Y-121865384D01*
X77415384Y-121744142D01*
X77481000Y-121585731D01*
X77481000Y-120885490D01*
X77488794Y-120924678D01*
X77689151Y-121382585D01*
X78049490Y-121728963D01*
X78514953Y-121911079D01*
X78715000Y-121823008D01*
X78715000Y-120675000D01*
X78765000Y-120675000D01*
X78765000Y-121823008D01*
X78965047Y-121911079D01*
X79430510Y-121728963D01*
X79790849Y-121382585D01*
X79991206Y-120924678D01*
X80001077Y-120875047D01*
X79912984Y-120675000D01*
X78765000Y-120675000D01*
X78715000Y-120675000D01*
X77567016Y-120675000D01*
X77481000Y-120870330D01*
X77481000Y-120782750D01*
X77373250Y-120675000D01*
X76225000Y-120675000D01*
X76175000Y-120675000D01*
X75026750Y-120675000D01*
X74919000Y-120782750D01*
X74216000Y-120782750D01*
X74216000Y-119714269D01*
X74919000Y-119714269D01*
X74919000Y-120517250D01*
X75026750Y-120625000D01*
X76175000Y-120625000D01*
X76175000Y-119476750D01*
X76225000Y-119476750D01*
X76225000Y-120625000D01*
X77373250Y-120625000D01*
X77481000Y-120517250D01*
X77481000Y-120429670D01*
X77567016Y-120625000D01*
X78715000Y-120625000D01*
X78715000Y-119476992D01*
X78765000Y-119476992D01*
X78765000Y-120625000D01*
X79912984Y-120625000D01*
X80001077Y-120424953D01*
X79991206Y-120375322D01*
X79790849Y-119917415D01*
X79430510Y-119571037D01*
X78965047Y-119388921D01*
X78765000Y-119476992D01*
X78715000Y-119476992D01*
X78514953Y-119388921D01*
X78049490Y-119571037D01*
X77689151Y-119917415D01*
X77488794Y-120375322D01*
X77481000Y-120414510D01*
X77481000Y-119714269D01*
X77415384Y-119555858D01*
X77294142Y-119434616D01*
X77135731Y-119369000D01*
X76332750Y-119369000D01*
X76225000Y-119476750D01*
X76175000Y-119476750D01*
X76067250Y-119369000D01*
X75264269Y-119369000D01*
X75105858Y-119434616D01*
X74984616Y-119555858D01*
X74919000Y-119714269D01*
X74216000Y-119714269D01*
X74216000Y-118110000D01*
X74944884Y-118110000D01*
X75040424Y-118590312D01*
X75312499Y-118997501D01*
X75719688Y-119269576D01*
X76078761Y-119341000D01*
X76321239Y-119341000D01*
X76680312Y-119269576D01*
X77087501Y-118997501D01*
X77359576Y-118590312D01*
X77455116Y-118110000D01*
X77359576Y-117629688D01*
X77112559Y-117260000D01*
X77501536Y-117260000D01*
X77501536Y-118960000D01*
X77531106Y-119108659D01*
X77615314Y-119234686D01*
X77741341Y-119318894D01*
X77890000Y-119348464D01*
X79590000Y-119348464D01*
X79738659Y-119318894D01*
X79864686Y-119234686D01*
X79948894Y-119108659D01*
X79978464Y-118960000D01*
X79978464Y-117260000D01*
X79948894Y-117111341D01*
X79864686Y-116985314D01*
X79738659Y-116901106D01*
X79590000Y-116871536D01*
X77890000Y-116871536D01*
X77741341Y-116901106D01*
X77615314Y-116985314D01*
X77531106Y-117111341D01*
X77501536Y-117260000D01*
X77112559Y-117260000D01*
X77087501Y-117222499D01*
X76680312Y-116950424D01*
X76321239Y-116879000D01*
X76078761Y-116879000D01*
X75719688Y-116950424D01*
X75312499Y-117222499D01*
X75040424Y-117629688D01*
X74944884Y-118110000D01*
X74216000Y-118110000D01*
X74216000Y-115570000D01*
X74944884Y-115570000D01*
X75040424Y-116050312D01*
X75312499Y-116457501D01*
X75719688Y-116729576D01*
X76078761Y-116801000D01*
X76321239Y-116801000D01*
X76680312Y-116729576D01*
X77087501Y-116457501D01*
X77359576Y-116050312D01*
X77455116Y-115570000D01*
X77359576Y-115089688D01*
X77112559Y-114720000D01*
X77501536Y-114720000D01*
X77501536Y-116420000D01*
X77531106Y-116568659D01*
X77615314Y-116694686D01*
X77741341Y-116778894D01*
X77890000Y-116808464D01*
X79590000Y-116808464D01*
X79738659Y-116778894D01*
X79864686Y-116694686D01*
X79948894Y-116568659D01*
X79978464Y-116420000D01*
X79978464Y-114720000D01*
X79948894Y-114571341D01*
X79864686Y-114445314D01*
X79738659Y-114361106D01*
X79590000Y-114331536D01*
X77890000Y-114331536D01*
X77741341Y-114361106D01*
X77615314Y-114445314D01*
X77531106Y-114571341D01*
X77501536Y-114720000D01*
X77112559Y-114720000D01*
X77087501Y-114682499D01*
X76680312Y-114410424D01*
X76321239Y-114339000D01*
X76078761Y-114339000D01*
X75719688Y-114410424D01*
X75312499Y-114682499D01*
X75040424Y-115089688D01*
X74944884Y-115570000D01*
X74216000Y-115570000D01*
X74216000Y-114530302D01*
X75118757Y-113627545D01*
X75312499Y-113917501D01*
X75719688Y-114189576D01*
X76078761Y-114261000D01*
X76321239Y-114261000D01*
X76680312Y-114189576D01*
X77087501Y-113917501D01*
X77359576Y-113510312D01*
X77455116Y-113030000D01*
X77359576Y-112549688D01*
X77112559Y-112180000D01*
X77501536Y-112180000D01*
X77501536Y-113880000D01*
X77531106Y-114028659D01*
X77615314Y-114154686D01*
X77741341Y-114238894D01*
X77890000Y-114268464D01*
X79590000Y-114268464D01*
X79738659Y-114238894D01*
X79864686Y-114154686D01*
X79948894Y-114028659D01*
X79978464Y-113880000D01*
X79978464Y-112180000D01*
X79948894Y-112031341D01*
X79864686Y-111905314D01*
X79738659Y-111821106D01*
X79590000Y-111791536D01*
X77890000Y-111791536D01*
X77741341Y-111821106D01*
X77615314Y-111905314D01*
X77531106Y-112031341D01*
X77501536Y-112180000D01*
X77112559Y-112180000D01*
X77087501Y-112142499D01*
X76680312Y-111870424D01*
X76321239Y-111799000D01*
X76078761Y-111799000D01*
X75719688Y-111870424D01*
X75312499Y-112142499D01*
X75090997Y-112474000D01*
X74984752Y-112474000D01*
X74929999Y-112463109D01*
X74875246Y-112474000D01*
X74875242Y-112474000D01*
X74713060Y-112506260D01*
X74529147Y-112629147D01*
X74498128Y-112675570D01*
X73305568Y-113868130D01*
X73259148Y-113899147D01*
X73228131Y-113945567D01*
X73228129Y-113945569D01*
X73136261Y-114083060D01*
X73093109Y-114300000D01*
X72211000Y-114300000D01*
X72211000Y-110354541D01*
X72979000Y-110354541D01*
X72979000Y-110625459D01*
X73082676Y-110875756D01*
X73274244Y-111067324D01*
X73524541Y-111171000D01*
X73795459Y-111171000D01*
X74045756Y-111067324D01*
X74237324Y-110875756D01*
X74341000Y-110625459D01*
X74341000Y-110490000D01*
X74944884Y-110490000D01*
X75040424Y-110970312D01*
X75312499Y-111377501D01*
X75719688Y-111649576D01*
X76078761Y-111721000D01*
X76321239Y-111721000D01*
X76680312Y-111649576D01*
X77087501Y-111377501D01*
X77359576Y-110970312D01*
X77455116Y-110490000D01*
X77359576Y-110009688D01*
X77112559Y-109640000D01*
X77501536Y-109640000D01*
X77501536Y-111340000D01*
X77531106Y-111488659D01*
X77615314Y-111614686D01*
X77741341Y-111698894D01*
X77890000Y-111728464D01*
X79590000Y-111728464D01*
X79738659Y-111698894D01*
X79864686Y-111614686D01*
X79948894Y-111488659D01*
X79978464Y-111340000D01*
X79978464Y-109640000D01*
X79948894Y-109491341D01*
X79864686Y-109365314D01*
X79738659Y-109281106D01*
X79590000Y-109251536D01*
X77890000Y-109251536D01*
X77741341Y-109281106D01*
X77615314Y-109365314D01*
X77531106Y-109491341D01*
X77501536Y-109640000D01*
X77112559Y-109640000D01*
X77087501Y-109602499D01*
X76680312Y-109330424D01*
X76321239Y-109259000D01*
X76078761Y-109259000D01*
X75719688Y-109330424D01*
X75312499Y-109602499D01*
X75040424Y-110009688D01*
X74944884Y-110490000D01*
X74341000Y-110490000D01*
X74341000Y-110354541D01*
X74237324Y-110104244D01*
X74216000Y-110082920D01*
X74216000Y-107950000D01*
X74944884Y-107950000D01*
X75040424Y-108430312D01*
X75312499Y-108837501D01*
X75719688Y-109109576D01*
X76078761Y-109181000D01*
X76321239Y-109181000D01*
X76680312Y-109109576D01*
X77087501Y-108837501D01*
X77359576Y-108430312D01*
X77455116Y-107950000D01*
X77359576Y-107469688D01*
X77112559Y-107100000D01*
X77501536Y-107100000D01*
X77501536Y-108800000D01*
X77531106Y-108948659D01*
X77615314Y-109074686D01*
X77741341Y-109158894D01*
X77890000Y-109188464D01*
X79590000Y-109188464D01*
X79738659Y-109158894D01*
X79864686Y-109074686D01*
X79948894Y-108948659D01*
X79978464Y-108800000D01*
X79978464Y-107100000D01*
X79948894Y-106951341D01*
X79864686Y-106825314D01*
X79738659Y-106741106D01*
X79590000Y-106711536D01*
X77890000Y-106711536D01*
X77741341Y-106741106D01*
X77615314Y-106825314D01*
X77531106Y-106951341D01*
X77501536Y-107100000D01*
X77112559Y-107100000D01*
X77087501Y-107062499D01*
X76680312Y-106790424D01*
X76321239Y-106719000D01*
X76078761Y-106719000D01*
X75719688Y-106790424D01*
X75312499Y-107062499D01*
X75040424Y-107469688D01*
X74944884Y-107950000D01*
X74216000Y-107950000D01*
X74216000Y-105635047D01*
X74938921Y-105635047D01*
X75121037Y-106100510D01*
X75467415Y-106460849D01*
X75925322Y-106661206D01*
X75974953Y-106671077D01*
X76175000Y-106582984D01*
X76175000Y-105435000D01*
X76225000Y-105435000D01*
X76225000Y-106582984D01*
X76425047Y-106671077D01*
X76474678Y-106661206D01*
X76932585Y-106460849D01*
X77278963Y-106100510D01*
X77461079Y-105635047D01*
X77373008Y-105435000D01*
X76225000Y-105435000D01*
X76175000Y-105435000D01*
X75026992Y-105435000D01*
X74938921Y-105635047D01*
X74216000Y-105635047D01*
X74216000Y-105184953D01*
X74938921Y-105184953D01*
X75026992Y-105385000D01*
X76175000Y-105385000D01*
X76175000Y-104237016D01*
X76225000Y-104237016D01*
X76225000Y-105385000D01*
X77373008Y-105385000D01*
X77461079Y-105184953D01*
X77278963Y-104719490D01*
X77125653Y-104560000D01*
X77501536Y-104560000D01*
X77501536Y-106260000D01*
X77531106Y-106408659D01*
X77615314Y-106534686D01*
X77741341Y-106618894D01*
X77890000Y-106648464D01*
X79590000Y-106648464D01*
X79738659Y-106618894D01*
X79864686Y-106534686D01*
X79948894Y-106408659D01*
X79978464Y-106260000D01*
X79978464Y-104560000D01*
X79948894Y-104411341D01*
X79864686Y-104285314D01*
X79738659Y-104201106D01*
X79590000Y-104171536D01*
X77890000Y-104171536D01*
X77741341Y-104201106D01*
X77615314Y-104285314D01*
X77531106Y-104411341D01*
X77501536Y-104560000D01*
X77125653Y-104560000D01*
X76932585Y-104359151D01*
X76474678Y-104158794D01*
X76425047Y-104148923D01*
X76225000Y-104237016D01*
X76175000Y-104237016D01*
X75974953Y-104148923D01*
X75925322Y-104158794D01*
X75467415Y-104359151D01*
X75121037Y-104719490D01*
X74938921Y-105184953D01*
X74216000Y-105184953D01*
X74216000Y-103095047D01*
X74938921Y-103095047D01*
X75121037Y-103560510D01*
X75467415Y-103920849D01*
X75925322Y-104121206D01*
X75974953Y-104131077D01*
X76175000Y-104042984D01*
X76175000Y-102895000D01*
X76225000Y-102895000D01*
X76225000Y-104042984D01*
X76425047Y-104131077D01*
X76474678Y-104121206D01*
X76932585Y-103920849D01*
X77278963Y-103560510D01*
X77461079Y-103095047D01*
X77373008Y-102895000D01*
X76225000Y-102895000D01*
X76175000Y-102895000D01*
X75026992Y-102895000D01*
X74938921Y-103095047D01*
X74216000Y-103095047D01*
X74216000Y-102644953D01*
X74938921Y-102644953D01*
X75026992Y-102845000D01*
X76175000Y-102845000D01*
X76175000Y-101697016D01*
X76225000Y-101697016D01*
X76225000Y-102845000D01*
X77373008Y-102845000D01*
X77461079Y-102644953D01*
X77278963Y-102179490D01*
X76932585Y-101819151D01*
X76474678Y-101618794D01*
X76425047Y-101608923D01*
X76225000Y-101697016D01*
X76175000Y-101697016D01*
X75974953Y-101608923D01*
X75925322Y-101618794D01*
X75467415Y-101819151D01*
X75121037Y-102179490D01*
X74938921Y-102644953D01*
X74216000Y-102644953D01*
X74216000Y-100330000D01*
X74944884Y-100330000D01*
X75040424Y-100810312D01*
X75312499Y-101217501D01*
X75719688Y-101489576D01*
X76078761Y-101561000D01*
X76321239Y-101561000D01*
X76680312Y-101489576D01*
X77087501Y-101217501D01*
X77359576Y-100810312D01*
X77455116Y-100330000D01*
X77359576Y-99849688D01*
X77112559Y-99480000D01*
X77501536Y-99480000D01*
X77501536Y-101180000D01*
X77531106Y-101328659D01*
X77615314Y-101454686D01*
X77741341Y-101538894D01*
X77890000Y-101568464D01*
X79590000Y-101568464D01*
X79738659Y-101538894D01*
X79864686Y-101454686D01*
X79948894Y-101328659D01*
X79978464Y-101180000D01*
X79978464Y-99480000D01*
X79948894Y-99331341D01*
X79864686Y-99205314D01*
X79738659Y-99121106D01*
X79590000Y-99091536D01*
X77890000Y-99091536D01*
X77741341Y-99121106D01*
X77615314Y-99205314D01*
X77531106Y-99331341D01*
X77501536Y-99480000D01*
X77112559Y-99480000D01*
X77087501Y-99442499D01*
X76680312Y-99170424D01*
X76321239Y-99099000D01*
X76078761Y-99099000D01*
X75719688Y-99170424D01*
X75312499Y-99442499D01*
X75040424Y-99849688D01*
X74944884Y-100330000D01*
X74216000Y-100330000D01*
X74216000Y-99290302D01*
X75118757Y-98387545D01*
X75312499Y-98677501D01*
X75719688Y-98949576D01*
X76078761Y-99021000D01*
X76321239Y-99021000D01*
X76680312Y-98949576D01*
X77087501Y-98677501D01*
X77359576Y-98270312D01*
X77455116Y-97790000D01*
X77377335Y-97398967D01*
X77700302Y-97076000D01*
X77736569Y-97076000D01*
X77580424Y-97309688D01*
X77484884Y-97790000D01*
X77580424Y-98270312D01*
X77852499Y-98677501D01*
X78259688Y-98949576D01*
X78618761Y-99021000D01*
X78861239Y-99021000D01*
X79220312Y-98949576D01*
X79627501Y-98677501D01*
X79899576Y-98270312D01*
X79995116Y-97790000D01*
X79899576Y-97309688D01*
X79743431Y-97076000D01*
X81225247Y-97076000D01*
X81280000Y-97086891D01*
X81334753Y-97076000D01*
X81334758Y-97076000D01*
X81496940Y-97043740D01*
X81680853Y-96920853D01*
X81711872Y-96874430D01*
X83471761Y-95114541D01*
X88219000Y-95114541D01*
X88219000Y-95385459D01*
X88322676Y-95635756D01*
X88344001Y-95657081D01*
X88344000Y-106625247D01*
X88333109Y-106680000D01*
X88344000Y-106734753D01*
X88344000Y-106734757D01*
X88376260Y-106896939D01*
X88499147Y-107080853D01*
X88545570Y-107111872D01*
X89738128Y-108304430D01*
X89769147Y-108350853D01*
X89953060Y-108473740D01*
X90115242Y-108506000D01*
X90115246Y-108506000D01*
X90169999Y-108516891D01*
X90224752Y-108506000D01*
X90511399Y-108506000D01*
X90660642Y-108729358D01*
X91018215Y-108968280D01*
X91333531Y-109031000D01*
X91546469Y-109031000D01*
X91861785Y-108968280D01*
X92219358Y-108729358D01*
X92458280Y-108371785D01*
X92542178Y-107950000D01*
X92458280Y-107528215D01*
X92219358Y-107170642D01*
X91861785Y-106931720D01*
X91546469Y-106869000D01*
X91333531Y-106869000D01*
X91018215Y-106931720D01*
X90660642Y-107170642D01*
X90511399Y-107394000D01*
X90400302Y-107394000D01*
X89456000Y-106449698D01*
X89456000Y-105410000D01*
X90337822Y-105410000D01*
X90421720Y-105831785D01*
X90660642Y-106189358D01*
X91018215Y-106428280D01*
X91333531Y-106491000D01*
X91546469Y-106491000D01*
X91861785Y-106428280D01*
X92219358Y-106189358D01*
X92458280Y-105831785D01*
X92542178Y-105410000D01*
X92458280Y-104988215D01*
X92219358Y-104630642D01*
X91861785Y-104391720D01*
X91546469Y-104329000D01*
X91333531Y-104329000D01*
X91018215Y-104391720D01*
X90660642Y-104630642D01*
X90421720Y-104988215D01*
X90337822Y-105410000D01*
X89456000Y-105410000D01*
X89456000Y-95657080D01*
X89477324Y-95635756D01*
X89535000Y-95496513D01*
X89592676Y-95635756D01*
X89614001Y-95657081D01*
X89614000Y-100205249D01*
X89603109Y-100260002D01*
X89614000Y-100314755D01*
X89614000Y-100314759D01*
X89646260Y-100476941D01*
X89769147Y-100660855D01*
X89815570Y-100691874D01*
X90759000Y-101635304D01*
X90759000Y-101665461D01*
X90862676Y-101915758D01*
X91054244Y-102107326D01*
X91304541Y-102211002D01*
X91575459Y-102211002D01*
X91825756Y-102107326D01*
X92017324Y-101915758D01*
X92121000Y-101665461D01*
X92121000Y-101394543D01*
X92017324Y-101144246D01*
X91825756Y-100952678D01*
X91575459Y-100849002D01*
X91545302Y-100849002D01*
X90726000Y-100029700D01*
X90726000Y-95657080D01*
X90747324Y-95635756D01*
X90851000Y-95385459D01*
X90851000Y-95114541D01*
X90747324Y-94864244D01*
X90555756Y-94672676D01*
X90305459Y-94569000D01*
X90034541Y-94569000D01*
X89784244Y-94672676D01*
X89592676Y-94864244D01*
X89535000Y-95003487D01*
X89477324Y-94864244D01*
X89285756Y-94672676D01*
X89035459Y-94569000D01*
X88764541Y-94569000D01*
X88514244Y-94672676D01*
X88322676Y-94864244D01*
X88219000Y-95114541D01*
X83471761Y-95114541D01*
X84050302Y-94536000D01*
X120419698Y-94536000D01*
X128859000Y-102975303D01*
X128859000Y-103005459D01*
X128962676Y-103255756D01*
X129154244Y-103447324D01*
X129404541Y-103551000D01*
X129675459Y-103551000D01*
X129925756Y-103447324D01*
X130117324Y-103255756D01*
X130221000Y-103005459D01*
X130221000Y-102734541D01*
X130117324Y-102484244D01*
X129925756Y-102292676D01*
X129675459Y-102189000D01*
X129645303Y-102189000D01*
X121081872Y-93625570D01*
X121050853Y-93579147D01*
X120866940Y-93456260D01*
X120704758Y-93424000D01*
X120704753Y-93424000D01*
X120650000Y-93413109D01*
X120595247Y-93424000D01*
X84376000Y-93424000D01*
X84376000Y-92782303D01*
X84658130Y-93064433D01*
X84689147Y-93110853D01*
X84735567Y-93141870D01*
X84735568Y-93141871D01*
X84873059Y-93233740D01*
X84907847Y-93240660D01*
X85035242Y-93266000D01*
X85035246Y-93266000D01*
X85090000Y-93276891D01*
X85144754Y-93266000D01*
X127862920Y-93266000D01*
X127884244Y-93287324D01*
X128134541Y-93391000D01*
X128405459Y-93391000D01*
X128655756Y-93287324D01*
X128847324Y-93095756D01*
X128951000Y-92845459D01*
X128951000Y-92574541D01*
X128847324Y-92324244D01*
X128655756Y-92132676D01*
X128405459Y-92029000D01*
X128134541Y-92029000D01*
X127884244Y-92132676D01*
X127862920Y-92154000D01*
X85320303Y-92154000D01*
X85162303Y-91996000D01*
X92302920Y-91996000D01*
X92324244Y-92017324D01*
X92574541Y-92121000D01*
X92845459Y-92121000D01*
X93095756Y-92017324D01*
X93117080Y-91996000D01*
X126945247Y-91996000D01*
X127000000Y-92006891D01*
X127054753Y-91996000D01*
X127054758Y-91996000D01*
X127216940Y-91963740D01*
X127400853Y-91840853D01*
X127431872Y-91794430D01*
X130915303Y-88311000D01*
X130945459Y-88311000D01*
X131195756Y-88207324D01*
X131387324Y-88015756D01*
X131491000Y-87765459D01*
X131491000Y-87494541D01*
X131387324Y-87244244D01*
X131195756Y-87052676D01*
X130945459Y-86949000D01*
X130674541Y-86949000D01*
X130424244Y-87052676D01*
X130232676Y-87244244D01*
X130129000Y-87494541D01*
X130129000Y-87524697D01*
X126769698Y-90884000D01*
X93117080Y-90884000D01*
X93095756Y-90862676D01*
X92845459Y-90759000D01*
X92574541Y-90759000D01*
X92324244Y-90862676D01*
X92302920Y-90884000D01*
X85320303Y-90884000D01*
X81916303Y-87480000D01*
X101967252Y-87480000D01*
X102132643Y-88311475D01*
X102603635Y-89016365D01*
X103308525Y-89487357D01*
X103930119Y-89611000D01*
X104349881Y-89611000D01*
X104971475Y-89487357D01*
X105676365Y-89016365D01*
X106147357Y-88311475D01*
X106312748Y-87480000D01*
X106147357Y-86648525D01*
X105676365Y-85943635D01*
X104971475Y-85472643D01*
X104349881Y-85349000D01*
X103930119Y-85349000D01*
X103308525Y-85472643D01*
X102603635Y-85943635D01*
X102132643Y-86648525D01*
X101967252Y-87480000D01*
X81916303Y-87480000D01*
X80441872Y-86005570D01*
X80410853Y-85959147D01*
X80226940Y-85836260D01*
X80064758Y-85804000D01*
X80064753Y-85804000D01*
X80021000Y-85795297D01*
X80021000Y-85222750D01*
X79913250Y-85115000D01*
X78765000Y-85115000D01*
X78765000Y-85135000D01*
X78715000Y-85135000D01*
X78715000Y-85115000D01*
X77566750Y-85115000D01*
X77459000Y-85222750D01*
X77459000Y-85562698D01*
X77438464Y-85542162D01*
X77438464Y-84240000D01*
X77421412Y-84154269D01*
X77459000Y-84154269D01*
X77459000Y-84957250D01*
X77566750Y-85065000D01*
X78715000Y-85065000D01*
X78715000Y-83916750D01*
X78765000Y-83916750D01*
X78765000Y-85065000D01*
X79913250Y-85065000D01*
X80021000Y-84957250D01*
X80021000Y-84154269D01*
X79955384Y-83995858D01*
X79834142Y-83874616D01*
X79675731Y-83809000D01*
X78872750Y-83809000D01*
X78765000Y-83916750D01*
X78715000Y-83916750D01*
X78607250Y-83809000D01*
X77804269Y-83809000D01*
X77645858Y-83874616D01*
X77524616Y-83995858D01*
X77459000Y-84154269D01*
X77421412Y-84154269D01*
X77408894Y-84091341D01*
X77324686Y-83965314D01*
X77198659Y-83881106D01*
X77050000Y-83851536D01*
X75350000Y-83851536D01*
X75201341Y-83881106D01*
X75075314Y-83965314D01*
X74991106Y-84091341D01*
X74961536Y-84240000D01*
X74961536Y-85940000D01*
X74991106Y-86088659D01*
X75075314Y-86214686D01*
X75201341Y-86298894D01*
X75350000Y-86328464D01*
X76652162Y-86328464D01*
X77023298Y-86699600D01*
X76680312Y-86470424D01*
X76321239Y-86399000D01*
X76078761Y-86399000D01*
X75719688Y-86470424D01*
X75312499Y-86742499D01*
X75040424Y-87149688D01*
X74944884Y-87630000D01*
X75040424Y-88110312D01*
X75312499Y-88517501D01*
X75719688Y-88789576D01*
X76078761Y-88861000D01*
X76321239Y-88861000D01*
X76591033Y-88807335D01*
X77023298Y-89239600D01*
X76680312Y-89010424D01*
X76321239Y-88939000D01*
X76078761Y-88939000D01*
X75719688Y-89010424D01*
X75312499Y-89282499D01*
X75040424Y-89689688D01*
X74944884Y-90170000D01*
X75040424Y-90650312D01*
X75312499Y-91057501D01*
X75719688Y-91329576D01*
X76078761Y-91401000D01*
X76321239Y-91401000D01*
X76680312Y-91329576D01*
X77087501Y-91057501D01*
X77359576Y-90650312D01*
X77455116Y-90170000D01*
X77359576Y-89689688D01*
X77124460Y-89337812D01*
X77253060Y-89423740D01*
X77415242Y-89456000D01*
X77415246Y-89456000D01*
X77469999Y-89466891D01*
X77524752Y-89456000D01*
X77736569Y-89456000D01*
X77580424Y-89689688D01*
X77484884Y-90170000D01*
X77580424Y-90650312D01*
X77852499Y-91057501D01*
X78259688Y-91329576D01*
X78618761Y-91401000D01*
X78861239Y-91401000D01*
X79220312Y-91329576D01*
X79627501Y-91057501D01*
X79849003Y-90726000D01*
X81049698Y-90726000D01*
X83264000Y-92940302D01*
X83264001Y-93749697D01*
X81049698Y-95964000D01*
X79798981Y-95964000D01*
X79991206Y-95524678D01*
X80001077Y-95475047D01*
X79912984Y-95275000D01*
X78765000Y-95275000D01*
X78765000Y-95295000D01*
X78715000Y-95295000D01*
X78715000Y-95275000D01*
X77567016Y-95275000D01*
X77478923Y-95475047D01*
X77488794Y-95524678D01*
X77681019Y-95964000D01*
X77524752Y-95964000D01*
X77469999Y-95953109D01*
X77415246Y-95964000D01*
X77415242Y-95964000D01*
X77253060Y-95996260D01*
X77199148Y-96032283D01*
X77250849Y-95982585D01*
X77451206Y-95524678D01*
X77461077Y-95475047D01*
X77372984Y-95275000D01*
X76225000Y-95275000D01*
X76225000Y-96423008D01*
X76425047Y-96511079D01*
X76864596Y-96339102D01*
X76591033Y-96612665D01*
X76321239Y-96559000D01*
X76078761Y-96559000D01*
X75719688Y-96630424D01*
X75312499Y-96902499D01*
X75090997Y-97234000D01*
X74984752Y-97234000D01*
X74929999Y-97223109D01*
X74875246Y-97234000D01*
X74875242Y-97234000D01*
X74713060Y-97266260D01*
X74529147Y-97389147D01*
X74498129Y-97435569D01*
X73305568Y-98628130D01*
X73259148Y-98659147D01*
X73228131Y-98705567D01*
X73228129Y-98705569D01*
X73136261Y-98843060D01*
X73093109Y-99060000D01*
X73104001Y-99114758D01*
X73104000Y-110082920D01*
X73082676Y-110104244D01*
X72979000Y-110354541D01*
X72211000Y-110354541D01*
X72211000Y-95475047D01*
X74938923Y-95475047D01*
X74948794Y-95524678D01*
X75149151Y-95982585D01*
X75509490Y-96328963D01*
X75974953Y-96511079D01*
X76175000Y-96423008D01*
X76175000Y-95275000D01*
X75027016Y-95275000D01*
X74938923Y-95475047D01*
X72211000Y-95475047D01*
X72211000Y-95024953D01*
X74938923Y-95024953D01*
X75027016Y-95225000D01*
X76175000Y-95225000D01*
X76175000Y-94076992D01*
X76225000Y-94076992D01*
X76225000Y-95225000D01*
X77372984Y-95225000D01*
X77461077Y-95024953D01*
X77478923Y-95024953D01*
X77567016Y-95225000D01*
X78715000Y-95225000D01*
X78715000Y-94076992D01*
X78765000Y-94076992D01*
X78765000Y-95225000D01*
X79912984Y-95225000D01*
X80001077Y-95024953D01*
X79991206Y-94975322D01*
X79790849Y-94517415D01*
X79430510Y-94171037D01*
X78965047Y-93988921D01*
X78765000Y-94076992D01*
X78715000Y-94076992D01*
X78514953Y-93988921D01*
X78049490Y-94171037D01*
X77689151Y-94517415D01*
X77488794Y-94975322D01*
X77478923Y-95024953D01*
X77461077Y-95024953D01*
X77451206Y-94975322D01*
X77250849Y-94517415D01*
X76890510Y-94171037D01*
X76425047Y-93988921D01*
X76225000Y-94076992D01*
X76175000Y-94076992D01*
X75974953Y-93988921D01*
X75509490Y-94171037D01*
X75149151Y-94517415D01*
X74948794Y-94975322D01*
X74938923Y-95024953D01*
X72211000Y-95024953D01*
X72211000Y-92710000D01*
X74944884Y-92710000D01*
X75040424Y-93190312D01*
X75312499Y-93597501D01*
X75719688Y-93869576D01*
X76078761Y-93941000D01*
X76321239Y-93941000D01*
X76680312Y-93869576D01*
X77087501Y-93597501D01*
X77359576Y-93190312D01*
X77455116Y-92710000D01*
X77359576Y-92229688D01*
X77112559Y-91860000D01*
X77501536Y-91860000D01*
X77501536Y-93560000D01*
X77531106Y-93708659D01*
X77615314Y-93834686D01*
X77741341Y-93918894D01*
X77890000Y-93948464D01*
X79590000Y-93948464D01*
X79738659Y-93918894D01*
X79864686Y-93834686D01*
X79948894Y-93708659D01*
X79978464Y-93560000D01*
X79978464Y-91860000D01*
X79948894Y-91711341D01*
X79864686Y-91585314D01*
X79738659Y-91501106D01*
X79590000Y-91471536D01*
X77890000Y-91471536D01*
X77741341Y-91501106D01*
X77615314Y-91585314D01*
X77531106Y-91711341D01*
X77501536Y-91860000D01*
X77112559Y-91860000D01*
X77087501Y-91822499D01*
X76680312Y-91550424D01*
X76321239Y-91479000D01*
X76078761Y-91479000D01*
X75719688Y-91550424D01*
X75312499Y-91822499D01*
X75040424Y-92229688D01*
X74944884Y-92710000D01*
X72211000Y-92710000D01*
X72211000Y-82371000D01*
X131953000Y-82371000D01*
X131953000Y-136069000D01*
G04 #@! TD*
M02*
