G04 #@! TF.GenerationSoftware,KiCad,Pcbnew,(5.0.0-3-g5ebb6b6)*
G04 #@! TF.CreationDate,2018-12-30T11:26:31+01:00*
G04 #@! TF.ProjectId,Leiterfolie,4C6569746572666F6C69652E6B696361,rev?*
G04 #@! TF.SameCoordinates,Original*
G04 #@! TF.FileFunction,Soldermask,Bot*
G04 #@! TF.FilePolarity,Negative*
%FSLAX46Y46*%
G04 Gerber Fmt 4.6, Leading zero omitted, Abs format (unit mm)*
G04 Created by KiCad (PCBNEW (5.0.0-3-g5ebb6b6)) date Sunday, 30. December 2018 um 11:26:31*
%MOMM*%
%LPD*%
G01*
G04 APERTURE LIST*
%ADD10R,2.100000X2.100000*%
%ADD11O,2.100000X2.100000*%
%ADD12C,1.800000*%
%ADD13O,1.800000X1.800000*%
%ADD14R,2.000000X2.000000*%
%ADD15C,2.000000*%
%ADD16R,2.200000X2.200000*%
%ADD17O,2.200000X2.200000*%
%ADD18C,2.800000*%
%ADD19O,2.800000X2.800000*%
%ADD20O,3.900000X3.900000*%
G04 APERTURE END LIST*
D10*
G04 #@! TO.C,J1*
X78740000Y-85090000D03*
D11*
X78740000Y-87630000D03*
X78740000Y-90170000D03*
G04 #@! TD*
D10*
G04 #@! TO.C,J2*
X76200000Y-85090000D03*
D11*
X76200000Y-87630000D03*
X76200000Y-90170000D03*
X76200000Y-92710000D03*
X76200000Y-95250000D03*
X76200000Y-97790000D03*
G04 #@! TD*
D12*
G04 #@! TO.C,R6*
X91440000Y-113030000D03*
D13*
X83820000Y-113030000D03*
G04 #@! TD*
D12*
G04 #@! TO.C,R2*
X83820000Y-118110000D03*
D13*
X91440000Y-118110000D03*
G04 #@! TD*
D10*
G04 #@! TO.C,D3*
X78740000Y-118110000D03*
D11*
X76200000Y-118110000D03*
G04 #@! TD*
D10*
G04 #@! TO.C,J5*
X78740000Y-105410000D03*
D11*
X76200000Y-105410000D03*
G04 #@! TD*
D10*
G04 #@! TO.C,J6*
X78740000Y-92710000D03*
D11*
X78740000Y-95250000D03*
X78740000Y-97790000D03*
G04 #@! TD*
D10*
G04 #@! TO.C,D2*
X78740000Y-115570000D03*
D11*
X76200000Y-115570000D03*
G04 #@! TD*
D10*
G04 #@! TO.C,D4*
X78740000Y-113030000D03*
D11*
X76200000Y-113030000D03*
G04 #@! TD*
D10*
G04 #@! TO.C,D5*
X78740000Y-110490000D03*
D11*
X76200000Y-110490000D03*
G04 #@! TD*
D10*
G04 #@! TO.C,D6*
X78740000Y-107950000D03*
D11*
X76200000Y-107950000D03*
G04 #@! TD*
D10*
G04 #@! TO.C,J7*
X78740000Y-100330000D03*
D11*
X76200000Y-100330000D03*
G04 #@! TD*
D10*
G04 #@! TO.C,J8*
X76200000Y-120650000D03*
D11*
X78740000Y-120650000D03*
X76200000Y-123190000D03*
X78740000Y-123190000D03*
G04 #@! TD*
D10*
G04 #@! TO.C,J4*
X78740000Y-102870000D03*
D11*
X76200000Y-102870000D03*
G04 #@! TD*
D14*
G04 #@! TO.C,C1*
X119380000Y-114300000D03*
D15*
X119380000Y-112300000D03*
G04 #@! TD*
D14*
G04 #@! TO.C,C2*
X111760000Y-114300000D03*
D15*
X111760000Y-112300000D03*
G04 #@! TD*
G04 #@! TO.C,C3*
X105410000Y-114300000D03*
X105410000Y-111800000D03*
G04 #@! TD*
D16*
G04 #@! TO.C,D1*
X105410000Y-119380000D03*
D17*
X115570000Y-119380000D03*
G04 #@! TD*
D16*
G04 #@! TO.C,D7*
X125730000Y-116840000D03*
D17*
X125730000Y-106680000D03*
G04 #@! TD*
D16*
G04 #@! TO.C,D8*
X102870000Y-107950000D03*
D17*
X113030000Y-107950000D03*
G04 #@! TD*
D12*
G04 #@! TO.C,R1*
X83820000Y-107950000D03*
D13*
X91440000Y-107950000D03*
G04 #@! TD*
D12*
G04 #@! TO.C,R3*
X83820000Y-105410000D03*
D13*
X91440000Y-105410000D03*
G04 #@! TD*
D12*
G04 #@! TO.C,R7*
X91440000Y-110490000D03*
D13*
X83820000Y-110490000D03*
G04 #@! TD*
D18*
G04 #@! TO.C,R4*
X95250000Y-132080000D03*
D19*
X115570000Y-132080000D03*
G04 #@! TD*
D18*
G04 #@! TO.C,R5*
X95250000Y-125730000D03*
D19*
X115570000Y-125730000D03*
G04 #@! TD*
D20*
G04 #@! TO.C,U1*
X104140000Y-87480000D03*
D16*
X101600000Y-104140000D03*
D17*
X104140000Y-104140000D03*
X106680000Y-104140000D03*
G04 #@! TD*
D10*
G04 #@! TO.C,J9*
X76200000Y-125730000D03*
D11*
X78740000Y-125730000D03*
X76200000Y-128270000D03*
X78740000Y-128270000D03*
X76200000Y-130810000D03*
X78740000Y-130810000D03*
X76200000Y-133350000D03*
X78740000Y-133350000D03*
G04 #@! TD*
D14*
G04 #@! TO.C,C4*
X119380000Y-102870000D03*
D15*
X119380000Y-100870000D03*
G04 #@! TD*
M02*
