M48
;DRILL file {KiCad (5.0.0-3-g5ebb6b6)} date Sunday, 30. December 2018 um 11:26:36
;FORMAT={-:-/ absolute / metric / decimal}
FMAT,2
METRIC,TZ
T1C0.400
T2C0.700
T3C0.800
T4C0.900
T5C1.000
T6C1.200
T7C3.500
%
G90
G05
M71
T1
X73.66Y-110.49
X83.82Y-125.73
X86.36Y-113.03
X88.9Y-95.25
X90.17Y-95.25
X91.44Y-96.52
X91.44Y-101.53
X92.71Y-91.44
X93.98Y-106.68
X96.52Y-106.68
X104.14Y-128.27
X128.27Y-92.71
X129.54Y-102.87
X129.54Y-127.
X130.74Y-130.81
X130.81Y-87.63
X130.81Y-114.3
T2
X83.82Y-113.03
X83.82Y-110.49
X91.44Y-110.49
X83.82Y-118.11
X91.44Y-118.11
X83.82Y-105.41
X91.44Y-105.41
X91.44Y-113.03
X83.82Y-107.95
X91.44Y-107.95
T3
X99.06Y-99.06
X125.73Y-113.03
X128.27Y-124.46
X130.81Y-125.73
X119.38Y-112.3
X119.38Y-114.3
X111.76Y-112.3
X111.76Y-114.3
X119.38Y-100.87
X119.38Y-102.87
X105.41Y-111.8
X105.41Y-114.3
T4
X115.57Y-119.38
X102.87Y-107.95
X113.03Y-107.95
X125.73Y-106.68
X125.73Y-116.84
X105.41Y-119.38
T5
X78.74Y-92.71
X78.74Y-95.25
X78.74Y-97.79
X76.2Y-100.33
X78.74Y-100.33
X76.2Y-125.73
X76.2Y-128.27
X76.2Y-130.81
X76.2Y-133.35
X78.74Y-125.73
X78.74Y-128.27
X78.74Y-130.81
X78.74Y-133.35
X76.2Y-113.03
X78.74Y-113.03
X76.2Y-105.41
X78.74Y-105.41
X76.2Y-107.95
X78.74Y-107.95
X76.2Y-85.09
X76.2Y-87.63
X76.2Y-90.17
X76.2Y-92.71
X76.2Y-95.25
X76.2Y-97.79
X76.2Y-120.65
X76.2Y-123.19
X78.74Y-120.65
X78.74Y-123.19
X76.2Y-102.87
X78.74Y-102.87
X78.74Y-85.09
X78.74Y-87.63
X78.74Y-90.17
X101.6Y-104.14
X104.14Y-104.14
X106.68Y-104.14
X76.2Y-115.57
X78.74Y-115.57
X76.2Y-118.11
X78.74Y-118.11
X76.2Y-110.49
X78.74Y-110.49
T6
X95.25Y-125.73
X115.57Y-125.73
X95.25Y-132.08
X115.57Y-132.08
T7
X104.14Y-87.48
T0
M30
